<?xml version="1.0" standalone="no"?>
<!DOCTYPE svg PUBLIC "-//W3C//DTD SVG 1.1//EN" "http://www.w3.org/Graphics/SVG/1.1/DTD/svg11.dtd" >
<svg xmlns="http://www.w3.org/2000/svg" xmlns:xlink="http://www.w3.org/1999/xlink" version="1.1">
<metadata></metadata>
<defs>
<font id="nilland-blackregular" horiz-adv-x="569" >
<font-face units-per-em="2048" ascent="1638" descent="-410" />
<missing-glyph horiz-adv-x="500" />
<glyph horiz-adv-x="0" />
<glyph horiz-adv-x="682" />
<glyph horiz-adv-x="757" d="M-47 1436q23 -63 43 -109.5t39.5 -80.5t41 -58.5t46.5 -44.5q102 -80 219 -80q115 0 217 80q25 20 46.5 44.5t42 58.5t40 80.5t39.5 109.5h-217q-29 -59 -48.5 -84t-35.5 -37q-41 -25 -84 -25q-45 0 -84 25q-16 12 -36.5 36.5t-49.5 84.5h-219z" />
<glyph horiz-adv-x="757" d="M211 1122h262v262h-262v-262z" />
<glyph horiz-adv-x="757" d="M88 1253q0 -104 74 -178q70 -76 178 -76q106 0 180 74t74 180t-74 180t-180 74q-109 0 -178 -75q-74 -74 -74 -179zM281 1253q0 25 16 45q20 16 43 17q27 0 43 -19q18 -16 18 -43q0 -29 -18 -43q-16 -18 -43 -18q-23 0 -43 16q-16 20 -16 45z" />
<glyph unicode="&#xa;" horiz-adv-x="757" d="M135 1032h232l286 377l-243 -377h231l344 449h-276h-9h-274z" />
<glyph horiz-adv-x="757" d="M98 -164q0 -119 92 -192q88 -66 199 -66q53 0 94.5 15.5t100.5 50.5v217q-43 -16 -71 -25.5t-43 -15.5t-22.5 -8t-13.5 -2q-10 -2 -21.5 -3.5t-25.5 -1.5q-27 0 -47 17q-4 4 -8 10t-4 23q0 25 14 47q4 6 10 14t23.5 25.5t50.5 46t90 78.5h-285q-35 -27 -55 -49.5 t-37 -49.5q-41 -59 -41 -131z" />
<glyph horiz-adv-x="757" d="M-98 1470l348 -428h180l352 428h-235l-207 -188l-203 188h-235z" />
<glyph unicode="&#xd;" d="M-14 -66h573v224h-166v876h-407v-223h170v-653h-170v-224z" />
<glyph horiz-adv-x="782" d="M-299 -66h233l1074 1522h-234z" />
<glyph horiz-adv-x="1232" d="M-18 -66h534v224h-141v653h78h28h285v-653h-152v-224h535v224h-145v876h-523h-28h-78v129q0 49 14 70.5t51 21.5q16 0 25.5 -4t15.5 -8q6 -6 15.5 -25.5t29.5 -87.5l217 33q-16 96 -39.5 147.5t-60.5 88.5q-41 41 -91 60.5t-110 19.5q-137 0 -221 -97 q-43 -47 -63.5 -107.5t-20.5 -131.5v-109h-149v-223h149v-653h-155v-224zM743 1329q0 -57 43 -104q47 -43 105 -43q57 0 104 43q43 43 43 106q0 57 -43 105q-47 43 -104 43t-105 -43q-43 -43 -43 -107z" />
<glyph horiz-adv-x="1232" d="M-18 -66h534v224h-141v653h157v223h-157v129q0 49 14 70.5t51 21.5q29 0 46.5 -22.5t39.5 -102.5l217 33q-6 43 -12 70h33v-1075h-150v-224h535v224h-148v1298h-438q-51 23 -119 23q-66 0 -123 -23.5t-100 -73.5q-43 -47 -63.5 -107.5t-20.5 -131.5v-109h-155v-223h155 v-653h-155v-224z" />
<glyph horiz-adv-x="1159" d="M-66 319l222 181v-342h-189v-224h1118v684h-241v-460h-443v542l281 230v258l-281 -230v275h187v223h-619v-223h187v-475l-222 -180v-259z" />
<glyph horiz-adv-x="544" d="M-96 299l223 182v-323h-174v-224h586v224h-174v516l225 184v250l-225 -184v532h-414v-223h176v-504l-223 -182v-248z" />
<glyph horiz-adv-x="1255" d="M-10 -66h1143v490h-226v-266h-588l793 1122v176h-1077v-223h158h587l-790 -1120v-179zM127 1927l348 -428h180l353 428h-236l-207 -188l-203 188h-235z" />
<glyph horiz-adv-x="1089" d="M27 -66h929v486h-217v-262h-387l606 696v180h-882v-223h149h406l-604 -694v-183zM51 1511l348 -428h181l352 428h-236l-207 -188l-202 188h-236z" />
<glyph unicode=" " />
<glyph unicode="!" d="M133 -66h246v242h-246v-242zM137 952l27 -649h184l27 643v510h-238v-504z" />
<glyph unicode="&#x22;" horiz-adv-x="638" d="M6 1196l35 -319h176l35 317v285h-246v-283zM326 1196l34 -319h177l34 317v285h-245v-283z" />
<glyph unicode="#" horiz-adv-x="1517" d="M102 365h154l-86 -416h229l86 416h252l-86 -416h230l86 416h301v223h-256l55 266h201v223h-154l86 418h-229l-86 -418h-252l86 418h-230l-86 -418h-301v-223h254l-55 -266h-199v-223zM530 588l56 266h252l-56 -266h-252z" />
<glyph unicode="$" horiz-adv-x="1159" d="M57 1034q0 -86 27 -158.5t82 -130.5q45 -47 110.5 -78.5t149.5 -54.5v-460q-33 10 -63.5 28.5t-77.5 65.5l-166 -166q82 -76 155.5 -111t151.5 -47v-162h225v164q141 23 248 109q154 125 154 313q0 186 -109 307q-45 51 -119.5 87t-173.5 63v371q12 -8 23.5 -16.5 t21.5 -18.5q29 -31 47.5 -85.5t22.5 -168.5h229q-6 170 -41.5 270t-111.5 160q-88 70 -191 96v68h-225v-66q-127 -25 -221 -98q-147 -111 -148 -281zM297 1034q0 70 59 117q31 25 70 37v-328q-51 20 -76 43q-53 41 -53 131zM651 147v414q86 -31 113 -57q59 -56 59 -146 q0 -94 -73 -159q-39 -35 -99 -52z" />
<glyph unicode="%" horiz-adv-x="1918" d="M2 1042q0 -96 19.5 -176t60.5 -139q47 -63 113.5 -93t150.5 -30t149.5 30t110.5 95q41 59 60.5 138t19.5 175q0 59 -10 127t-39 131h537l-963 -1366h231l1071 1522h-180h-16h-842q-57 23 -131 23q-82 0 -147.5 -30t-112.5 -93q-43 -59 -62.5 -138t-19.5 -176zM219 1040 q0 70 10.5 118t28.5 81q29 51 88 51t88 -51q18 -31 28.5 -79t10.5 -118q0 -72 -10 -121t-29 -79q-29 -49 -88 -49t-88 51q-18 31 -28.5 79t-10.5 117zM1040 362q0 -96 19.5 -176t60.5 -139q47 -63 112.5 -93t149.5 -30q102 0 169 39t105 101.5t53 141t15 156.5q0 96 -19 175 t-60 139q-47 66 -113 95.5t-150 29.5q-82 0 -147.5 -30t-112.5 -95q-43 -59 -62.5 -138t-19.5 -176zM1257 360q0 133 39 201q31 51 86 51q59 0 91 -51q16 -31 27 -79t11 -120t-10 -120.5t-28 -79.5q-29 -49 -89 -49q-59 0 -88 49q-16 31 -27.5 79t-11.5 119z" />
<glyph unicode="&#x26;" horiz-adv-x="1587" d="M41 410q0 -186 137 -340q72 -80 168 -118t215 -38q129 0 252 57q76 35 135 90l92 -129l263 11l-201 293q23 29 39 59.5t33 58.5q37 82 67 187h172v223h-356q-16 -96 -33.5 -156.5t-40.5 -113.5q-6 -16 -12 -29.5t-13 -28.5l-239 332q47 20 89 45t81 53q68 53 104.5 120 t36.5 149q0 152 -117 249q-109 94 -264 95q-160 0 -272 -99q-121 -102 -121 -256q0 -51 18.5 -102t53.5 -104q10 -14 19 -29t20 -27q-125 -55 -207 -141q-59 -61 -89 -140t-30 -171zM287 430q0 84 63 150q27 27 64 51t88 47l311 -430q-27 -25 -48.5 -41.5t-41.5 -26.5 q-70 -35 -148 -35q-123 0 -204 82q-84 82 -84 203zM489 1133q0 57 41 88q49 37 115 36q70 0 119 -36q41 -33 41 -84q0 -29 -14.5 -55.5t-51.5 -53.5q-57 -41 -151 -78q-10 16 -22.5 32.5t-24.5 37.5q-31 45 -41.5 71.5t-10.5 41.5z" />
<glyph unicode="'" horiz-adv-x="497" d="M102 1196l35 -319h176l35 317v285h-246v-283z" />
<glyph unicode="(" horiz-adv-x="804" d="M115 489q0 -334 127 -581q33 -66 76.5 -122t103 -107.5t137.5 -98.5t180 -92v225q-121 72 -190.5 146.5t-110.5 165.5q-84 184 -84 464q0 281 84 465q41 90 110.5 165t190.5 147v225q-102 -45 -180 -92t-137.5 -98.5t-103.5 -108.5t-76 -121q-127 -248 -127 -582z" />
<glyph unicode=")" horiz-adv-x="804" d="M-14 -287v-225q102 45 180 92t137 98.5t103.5 107.5t76.5 122q127 247 127 581t-127 582q-33 63 -77 120.5t-103 109t-137 98.5t-180 92v-225q121 -72 190.5 -147t110.5 -165q84 -184 84 -465t-84 -464q-41 -90 -111 -165t-190 -147z" />
<glyph unicode="*" horiz-adv-x="1114" d="M-2 995q109 -35 164 -50t80 -15q6 0 29.5 -3t68.5 -14l-53 -61q-14 -4 -54 -49t-122 -156l202 -151q78 102 112 155.5t34 75.5q0 2 43 70q43 -68 43 -72q0 -20 33.5 -73.5t111.5 -155.5l203 151q-82 111 -122 156t-54 49q-2 0 -53 61q47 10 71.5 13.5t32.5 3.5 q23 0 76 15t162 50l-76 242q-123 -39 -178.5 -60.5t-67.5 -31.5q0 -2 -82 -39q4 45 7 66l3 20q10 16 13.5 76.5t3.5 187.5h-254q0 -127 3 -187.5t13 -76.5l3 -20q3 -21 7 -66q-82 37 -82 39q-12 10 -67 31.5t-178 60.5z" />
<glyph unicode="+" horiz-adv-x="1515" d="M80 549h491v-496h222v496h491v221h-491v490h-222v-490h-491v-221z" />
<glyph unicode="," d="M115 -119v-207q96 4 142 25.5t75 64.5q27 41 37 91.5t10 107.5v232h-246v-261h47q-2 -31 -4 -44t-4 -17t-10 2t-47 6z" />
<glyph unicode="-" horiz-adv-x="782" d="M4 449h692v223h-692v-223z" />
<glyph unicode="." d="M164 -66h246v263h-246v-263z" />
<glyph unicode="/" horiz-adv-x="638" d="M-90 -102h231l523 1558h-232z" />
<glyph unicode="0" horiz-adv-x="1206" d="M31 696q0 -174 28.5 -314t90.5 -245q129 -221 393 -221q266 0 395 221q61 104 90 244.5t29 314.5t-29 315.5t-90 245.5q-129 221 -393 222q-266 0 -395 -222q-61 -104 -90 -245.5t-29 -315.5zM266 696q0 143 20.5 250t57.5 182q35 72 84 103t115 31t116 -32t84 -102 q37 -76 57.5 -182.5t20.5 -249.5q0 -141 -20.5 -247.5t-57.5 -182.5q-35 -72 -84 -102.5t-114 -30.5q-66 0 -116 32t-85 101q-37 76 -57.5 182.5t-20.5 247.5z" />
<glyph unicode="1" horiz-adv-x="1206" d="M238 -66h630v224h-196v1308l-434 -59v-195h196v-1054h-196v-224z" />
<glyph unicode="2" horiz-adv-x="1206" d="M45 25l6 -91h942l4 461h-221v-237h-479q14 47 35.5 91t54.5 89q90 125 305 258q76 47 133.5 96t92.5 103q37 53 54 118.5t17 139.5q0 92 -29.5 169.5t-93.5 137.5q-61 61 -141 90t-176 29q-106 0 -197.5 -41t-187.5 -146l160 -162q31 39 58.5 65t54 41t54 20.5t60.5 5.5 q84 0 145 -58q57 -61 58 -151q0 -100 -49 -156q-51 -68 -168 -137q-135 -82 -231.5 -175t-151.5 -200q-51 -96 -83 -186t-26 -174z" />
<glyph unicode="3" horiz-adv-x="1206" d="M92 973h232q0 57 5 96t12 65.5t16.5 44t21.5 29.5q49 53 141 54q47 0 82 -14.5t62 -41.5q55 -59 55 -149q0 -102 -66 -162q-31 -29 -72.5 -42t-107.5 -19l-94 -11v-207l158 5q63 2 111 -15.5t83 -48.5t52.5 -72t17.5 -98q0 -113 -74 -182q-76 -72 -195 -72 q-59 0 -113 24.5t-126 96.5l-174 -148q111 -109 207 -149.5t202 -40.5t197.5 32t163.5 97q145 133 145 340q0 86 -23.5 156.5t-76.5 128.5q-51 55 -113 84q68 57 100.5 133t32.5 166q0 180 -120 305q-121 121 -308 121q-92 0 -171 -29t-138 -88q-59 -61 -90 -151.5 t-35 -237.5z" />
<glyph unicode="4" horiz-adv-x="1206" d="M-76 346l217 -4h471v-250v-158h387v224h-165v184h227v213h-227v913h-191l-608 -944zM303 555l309 489v-489h-309z" />
<glyph unicode="5" horiz-adv-x="1206" d="M92 635q45 -16 59.5 -22.5t22.5 -10.5q2 -2 6 -4t11.5 -9t21.5 -20.5t39 -38.5q31 43 55.5 73t43 49.5t33.5 30.5t32 19q63 35 133 35q121 0 192 -78q35 -39 54.5 -90t19.5 -120q0 -74 -20.5 -131.5t-59.5 -100.5q-39 -41 -87 -62.5t-113 -21.5q-57 0 -127 28.5 t-136 92.5l-133 -156q106 -102 198.5 -142t194.5 -40q229 0 373 150q144 152 144 385q0 217 -136 358q-135 145 -340 145q-125 0 -233 -59l31 328h436h160v233h-801z" />
<glyph unicode="6" horiz-adv-x="1206" d="M68 659q0 -184 29.5 -324t95.5 -233q135 -186 376 -186q213 0 344 150q129 147 129 376q0 219 -122 361q-129 145 -328 145q-80 0 -150.5 -24.5t-132.5 -67.5q18 166 70 268q35 70 88 104t133 34q20 0 41 -4.5t41 -16.5t45 -35.5t55 -60.5l150 174q-92 92 -172 126 t-170 34q-256 0 -393 -228q-66 -111 -97.5 -258t-31.5 -334zM301 569v11q59 68 123 102q82 49 154 49q106 0 165 -74q31 -39 48.5 -93t17.5 -130t-17.5 -130t-50.5 -95q-66 -76 -174 -76q-111 0 -184 100q-39 53 -60.5 135.5t-21.5 200.5z" />
<glyph unicode="7" horiz-adv-x="1206" d="M66 1016h225v207h418q-72 -104 -125.5 -223t-94.5 -252q-25 -84 -44 -196t-31.5 -214t-18.5 -173l-6 -71v-160h402v224h-164q8 279 92 555q47 154 117 291t172 272v180h-942v-440z" />
<glyph unicode="8" horiz-adv-x="1206" d="M20 385q0 -205 152 -340q150 -129 373 -129t370 127q150 131 150 340q0 145 -80 256q-23 31 -50.5 55.5t-60.5 44.5q76 53 112 134t36 180q0 186 -141 307q-133 119 -338 119t-340 -117q-137 -125 -137 -311q0 -147 81 -248q25 -33 66 -64q-29 -18 -54.5 -39.5 t-47.5 -50.5q-90 -115 -91 -264zM256 391q0 109 74 170q37 31 90 48.5t125 17.5t123 -17.5t90 -48.5q73 -61 73 -172q0 -115 -75 -184q-78 -72 -213 -72q-72 0 -123 18.5t-88 53.5q-76 66 -76 186zM295 1047q0 94 67 153q35 29 81 45.5t108 16.5q109 0 176 -62 q66 -59 66 -149q0 -102 -62 -154q-33 -29 -78 -43t-110 -14q-63 0 -108.5 14t-78.5 43q-29 27 -45 62.5t-16 87.5z" />
<glyph unicode="9" horiz-adv-x="1206" d="M43 950q0 -104 29.5 -194t93.5 -162q129 -147 328 -148q78 0 147.5 24t134.5 67q-18 -166 -69 -269q-35 -72 -86.5 -103.5t-122.5 -31.5q-47 0 -88 20.5t-101 86.5l-153 -166q94 -90 177 -124t175 -34q129 0 225 59.5t162 174.5q63 111 93 257t30 328q0 184 -30 324.5 t-95 232.5q-131 186 -373 187q-213 0 -346 -152q-131 -150 -131 -377zM279 948q0 82 17 139.5t50 96.5q61 78 174 78q115 0 187 -99q37 -51 57 -133t20 -205v-12q-57 -63 -125 -102q-80 -47 -149 -47q-104 0 -166 73q-31 39 -48 90.5t-17 120.5z" />
<glyph unicode=":" d="M143 -66h246v263h-246v-263zM143 713h246v262h-246v-262z" />
<glyph unicode=";" d="M115 -119v-207q96 4 142 25.5t75 64.5q27 41 37 91.5t10 107.5v232h-246v-261h47q-2 -31 -4 -44t-4 -17t-10 2t-47 6zM143 713h246v262h-246v-262z" />
<glyph unicode="&#x3c;" horiz-adv-x="1515" d="M80 571l1204 -512v244l-844 352l844 353v243l-1204 -512v-168z" />
<glyph unicode="=" horiz-adv-x="1515" d="M90 494h1204v221h-1204v-221zM90 780h1204v221h-1204v-221z" />
<glyph unicode="&#x3e;" horiz-adv-x="1515" d="M96 59l1204 512v168l-1204 512v-243l842 -353l-842 -352v-244z" />
<glyph unicode="?" horiz-adv-x="1017" d="M-4 969h227q0 106 15.5 153t44.5 74q59 59 155 59q100 0 164 -63q61 -66 62 -154q0 -66 -19.5 -104.5t-52.5 -61.5q-55 -37 -148 -36q-16 0 -35.5 2t-48.5 6l-79 -31l47 -502h168l26 299q162 10 266 129q109 127 109 297q0 166 -119 301q-61 72 -145 107t-187 35 q-104 0 -189 -33t-146 -103q-59 -66 -87 -151.5t-28 -222.5zM285 -66h245v263h-245v-263z" />
<glyph unicode="@" horiz-adv-x="1363" d="M125 811q0 -248 166 -432q168 -186 436 -186q182 0 338 90l-53 94q-59 -31 -140 -49.5t-155 -18.5q-176 0 -328 140q-145 141 -145 356q0 209 141 354.5t334 145.5q178 0 299 -121t121 -277q0 -147 -84 -256q-43 -59 -80 -81.5t-66 -22.5l-2 2v4q0 8 2 14l123 578h-149 l-11 -49q-10 12 -23 21t-28 18q-68 37 -127 36q-174 0 -276 -145q-98 -141 -99 -303q0 -143 78 -223q82 -78 183 -78q86 0 155 47q16 10 28.5 21.5t24.5 21.5q6 -31 23 -53q10 -16 26.5 -28.5t39.5 -12.5q72 0 136 38t124 109q118 143 118 338q0 209 -153 363 q-154 156 -387 155q-246 0 -420 -186q-170 -186 -170 -424zM469 715q0 131 63 233q63 98 160 99q59 0 94 -41q39 -42 39 -101q0 -115 -69 -239q-35 -61 -72 -88t-78 -27q-49 0 -94 39q-20 18 -31.5 48t-11.5 77z" />
<glyph unicode="A" horiz-adv-x="1517" d="M-76 -66h422v154l129 375h467l109 -305h-148v-224h592v224h-190l-379 1075h147v223h-506l-45 -137l-403 -1161h-195v-224zM553 686l158 459l155 -459h-313z" />
<glyph unicode="B" horiz-adv-x="1280" d="M-31 1233h178v-1141v-160l439 2q123 0 222 29t177 88q78 61 116 148t38 198q0 152 -88 260q-47 53 -109 91q33 27 55 57q72 92 72 229q0 98 -32.5 177t-100.5 137q-66 57 -155 82.5t-195 25.5h-617v-223zM393 158v456h187q86 0 145 -15t96 -44q35 -27 53.5 -67t18.5 -99 t-19.5 -99t-56.5 -69q-39 -29 -97 -46t-145 -17h-182zM393 838v395h187q63 0 107 -14.5t77 -40.5q59 -50 59 -140t-65 -143q-70 -57 -197 -57h-168z" />
<glyph unicode="C" horiz-adv-x="1705" d="M61 696q0 -172 51.5 -313t159.5 -252q211 -217 549 -217q236 0 424 121q96 63 169.5 168.5t139.5 277.5l-211 123q-59 -166 -113 -248t-114 -123q-123 -88 -293 -88q-227 0 -370 154q-145 156 -146 397q0 244 144 400q140 151 361 151h3q158 0 293 -86q61 -41 101 -103.5 t63 -176.5h215v452h-225v-8q-35 29 -71 50.5t-75 37.5q-150 66 -297 66q-336 0 -547 -219q-106 -111 -158.5 -252.5t-52.5 -311.5z" />
<glyph unicode="D" horiz-adv-x="1609" d="M-35 1233h193v-1141v-158h467q215 0 373.5 55.5t256.5 178.5q179 227 179 526q0 336 -201 549q-104 111 -256 162t-350 51h-662v-223zM403 158v1075h234q139 0 239.5 -36t170 -103.5t105.5 -166t36 -233.5q0 -141 -35 -239.5t-100.5 -164t-167 -99t-244.5 -33.5h-238z " />
<glyph unicode="E" horiz-adv-x="1372" d="M-35 1233h178v-1141v-158h1067v224h-159h-662v442h578v223h-578v410h596v-246h223v469h-1243v-223z" />
<glyph unicode="F" horiz-adv-x="1206" d="M-35 -66h426v158v512l512 -2v225h-512v406h541v-248h223v471h-1190v-223h180v-1075h-180v-224z" />
<glyph unicode="G" horiz-adv-x="1800" d="M37 696q0 -342 221 -563q221 -219 567 -219q326 0 537 192q109 100 161 238.5t54 347.5h-823v-223h559q-37 -133 -148 -217q-72 -53 -155.5 -80t-182.5 -27q-244 0 -393 154q-76 78 -113.5 175t-37.5 222q0 246 145 398q142 153 370 153h3q158 0 295 -88 q66 -41 111.5 -107.5t80.5 -181.5h207v504h-223v-59q-31 25 -66 46t-71 40q-162 78 -336 78q-328 0 -545 -223.5t-217 -559.5z" />
<glyph unicode="H" horiz-adv-x="1564" d="M-27 1233h170v-1075h-168v-224h414v158v524h629v-458h-178v-224h424v158v1141h168v223h-594v-223h180v-395h-629v460v158h-416v-223z" />
<glyph unicode="I" horiz-adv-x="638" d="M4 -66h596v224h-176v1140v158h-246v-158v-1140h-174v-224zM176 1511h246v263h-246v-263z" />
<glyph unicode="J" horiz-adv-x="616" d="M-68 -498q143 0 229.5 22.5t141.5 76t79 130t24 171.5v1331h198v223h-653v-223h209v-1344q0 -57 -10.5 -86.5t-20.5 -40.5q-6 -6 -16.5 -11t-31 -9t-54 -7t-84.5 -3z" />
<glyph unicode="K" horiz-adv-x="1325" d="M-39 1233h184v-1141v-158h439v224h-193v420l477 -529l99 -115h327v224h-186l-530 581l499 494h189v223h-283l-113 -110l-479 -474v361h191v223h-621v-223z" />
<glyph unicode="L" horiz-adv-x="1159" d="M-33 -66h1118v582h-241v-358h-443l2 1298h-436v-223h189v-1075h-189v-224z" />
<glyph unicode="M" horiz-adv-x="1941" d="M-27 1233h181v-1141v-158h393v224h-166v841l430 -1065h111l436 1063v-905v-158h420v224h-174v1075h174v223h-467l-434 -1059l-439 1059h-465v-223z" />
<glyph unicode="N" horiz-adv-x="1609" d="M-45 1233h186v-1141v-158h424v224h-196v886l737 -1128h209v1317h180v223h-408v-158v-921q-141 221 -282 430q-100 152 -202.5 308.5t-217.5 340.5h-430v-223z" />
<glyph unicode="O" horiz-adv-x="1775" d="M37 696q0 -336 217 -559t549 -223t549 223t217 559t-217 559.5t-549 223.5t-549 -223.5t-217 -559.5zM283 696q0 242 147 396q146 155 370 155h3q227 0 373 -153q147 -158 147 -398q0 -242 -147 -397q-145 -154 -373 -154q-225 0 -373 156q-147 154 -147 395z" />
<glyph unicode="P" horiz-adv-x="1255" d="M-33 -66h430v158v416h252q111 0 203 30.5t163.5 96t106.5 154t35 192.5q0 111 -35 198t-108.5 152.5t-171 95t-213.5 29.5h-662v-223h185v-1075h-185v-224zM397 731v502h211q92 0 149.5 -16.5t88.5 -45.5q29 -27 47 -74.5t18 -127.5q0 -66 -18.5 -108t-50.5 -68 q-37 -29 -93.5 -45.5t-140.5 -16.5h-211z" />
<glyph unicode="Q" horiz-adv-x="1775" d="M37 696q0 -336 217 -559q88 -90 195 -141q-14 -8 -30 -20.5t-50 -36.5l116 -168q59 41 83 54t42 19q39 12 70 13q20 0 81.5 -23.5t138.5 -58.5t153.5 -75t130.5 -75l133 197q-49 29 -119 63.5t-139 67.5q168 55 293 184q217 223 217 559t-217 559.5t-549 223.5 t-549 -223.5t-217 -559.5zM283 696q0 242 147 396q146 155 370 155h3q227 0 373 -153q147 -158 147 -398q0 -242 -147 -397q-145 -154 -373 -154q-225 0 -373 156q-147 154 -147 395z" />
<glyph unicode="R" horiz-adv-x="1302" d="M-59 1233h204v-1301h246v697h199l313 -695h367v224h-201l-229 501q61 20 112.5 51t87.5 76q47 55 70 124t23 147q0 174 -129 289q-63 57 -142.5 83.5t-171.5 26.5h-749v-223zM391 852v381h275q57 0 97 -14.5t68 -38.5q56 -47 56 -133q0 -51 -15.5 -85t-44.5 -57 q-31 -25 -79 -39t-119 -14h-238z" />
<glyph unicode="S" horiz-adv-x="1232" d="M23 -66h225v84q39 -27 76 -45q123 -59 249 -59q213 0 361 127q151 129 151 324t-122 309q-59 57 -165 101t-247 79q-150 37 -225 90q-61 39 -62 125q0 72 60 123q63 55 168 55q76 0 128 -9t93 -40q18 -14 30.5 -34.5t19.5 -43t11 -44t4 -34.5v-92h242l-1 31t-6 74 t-12.5 87t-19.5 70q-16 35 -32.5 57.5t-43.5 51.5q-43 47 -85 71.5t-93 47.5q-57 25 -115.5 32t-113.5 7q-193 0 -330 -113q-141 -119 -141 -293q0 -184 120 -297q59 -53 146.5 -91t200.5 -67q111 -27 179 -54t105 -54q61 -49 62 -133q0 -98 -72 -164q-74 -68 -193 -68 q-137 0 -233 88q-94 86 -94 195v115h-225v-609z" />
<glyph unicode="T" horiz-adv-x="1302" d="M-16 887h225v346h270v-1075h-190v-224h436v1299h270v-182h226v405h-1237v-569z" />
<glyph unicode="U" horiz-adv-x="1468" d="M-45 1233h178v-817q0 -117 35 -211t111 -162q74 -68 174 -98.5t223 -30.5t223 31.5t174 97.5q74 70 109 163t35 210v817h178v223h-424v-158v-899q0 -72 -18.5 -116.5t-51.5 -73.5q-35 -29 -89 -46.5t-138 -17.5q-78 0 -133.5 17.5t-89.5 50.5q-35 29 -53.5 75t-18.5 115 v830h176v223h-600v-223z" />
<glyph unicode="V" horiz-adv-x="1490" d="M-111 1233h201l498 -1313h186l481 1313h201v223h-579v-223h141l-330 -895l-375 983l-45 135h-379v-223z" />
<glyph unicode="W" horiz-adv-x="2154" d="M-106 1233h190l393 -1313h195l297 1155l317 -1155h189l378 1313h191v223h-580v-223h158l-236 -844l-251 928l-41 139h-248l-31 -143l-237 -922l-265 926l-37 139h-382v-223z" />
<glyph unicode="X" horiz-adv-x="1490" d="M-23 -66h621v224h-129l207 331l282 -446l66 -109h371v224h-224l-358 561l324 514h213v223h-598v-223h118l-194 -303l-254 403l-82 123h-363v-223h222l342 -533l-342 -542h-222v-224z" />
<glyph unicode="Y" horiz-adv-x="1372" d="M-61 1233h208l398 -625v-450h-193v-224h439v158v516l397 625h194v223h-587v-223h127l-244 -383l-324 514l-59 92h-356v-223z" />
<glyph unicode="Z" horiz-adv-x="1255" d="M-10 -66h1143v490h-226v-266h-588l793 1122v176h-1077v-223h158h587l-790 -1120v-179z" />
<glyph unicode="[" horiz-adv-x="782" d="M174 -477h565v223h-327v1487h327v223h-565v-1933z" />
<glyph unicode="\" horiz-adv-x="638" d="M-92 1456l524 -1550h236l-525 1550h-235z" />
<glyph unicode="]" horiz-adv-x="782" d="M-35 -254v-223h565l2 1933h-567v-223h328l2 -1487h-330z" />
<glyph unicode="^" horiz-adv-x="1490" d="M135 870l158 -143l379 453l379 -453l157 143l-536 646z" />
<glyph unicode="_" horiz-adv-x="1136" d="M-66 -283v-233h1156v233h-1156z" />
<glyph unicode="`" horiz-adv-x="757" d="M37 1481l344 -449h231l-290 449h-285z" />
<glyph unicode="a" horiz-adv-x="1159" d="M39 272q0 -147 104 -247q104 -104 263 -105q76 0 148.5 24.5t135.5 63.5v-74h400v224h-162v563q0 82 -29 147.5t-90 112.5q-59 41 -136 60.5t-171 19.5q-43 0 -100.5 -14.5t-108.5 -32t-87 -31.5l-36 -14l74 -183q23 8 54.5 19.5t67 23t70.5 18.5t62 7q53 0 90 -9t61 -26 q18 -12 29.5 -34.5t11.5 -63.5v-127q-18 8 -36.5 13t-35.5 9q-80 20 -151 21q-92 0 -169 -23.5t-136 -76.5q-123 -104 -123 -265zM330 377q23 23 60.5 36t94.5 13q66 0 121 -20q41 -14 84 -37v-115q-49 -49 -115 -82q-78 -39 -145 -39q-41 0 -67.5 10.5t-45.5 28.5 q-38 40 -38 89q0 71 51 116z" />
<glyph unicode="b" horiz-adv-x="1398" d="M-37 1233h176v-1141v-158h238v91q20 -16 39.5 -29.5t42.5 -24.5q109 -51 219 -51q250 0 405 164q156 162 156 418q0 242 -156 399q-158 160 -395 160q-113 0 -231 -57q-41 -20 -80 -54v506h-414v-223zM375 494q0 154 94 251q90 96 221 97q135 0 221 -94q88 -98 88 -250 q0 -162 -88 -262q-86 -96 -225 -97q-133 0 -221 94q-43 45 -66.5 110t-23.5 151z" />
<glyph unicode="c" horiz-adv-x="1159" d="M18 483q0 -250 152 -413.5t393 -163.5q164 0 291 88q66 45 116 112.5t97 190.5l-205 88q-39 -90 -68.5 -132t-62.5 -69q-33 -25 -73 -38t-93 -13q-139 0 -221 92q-41 47 -63.5 109.5t-22.5 148.5q0 162 84 258q80 92 209 93q96 0 170 -60q31 -23 51.5 -73t24.5 -166h217 v438h-189q-59 47 -128.5 67.5t-145.5 20.5q-229 0 -383 -170q-150 -164 -150 -408z" />
<glyph unicode="d" horiz-adv-x="1349" d="M8 483q0 -240 155.5 -401.5t389.5 -161.5q121 0 231 53q20 10 40 22.5t38 29.5v-91h414v224h-176v1298h-238v-158v-348q-37 31 -82 54q-109 57 -233 57q-233 0 -387 -166q-152 -164 -152 -412zM240 483q0 156 90 258q92 100 219 101q129 0 221 -101q94 -100 94 -252 q0 -156 -88 -253q-86 -96 -223 -97q-129 0 -221 98.5t-92 245.5z" />
<glyph unicode="e" horiz-adv-x="1255" d="M16 483q0 -246 160 -411q162 -166 406 -166q43 0 104.5 15.5t118.5 32.5t98 32l41 16l-61 207q-25 -10 -63 -24.5t-78 -29t-78.5 -23.5t-65.5 -9q-150 0 -248 100q-70 76 -90 172h870q-10 184 -50 302t-115 202q-150 162 -390 162q-242 0 -401 -164q-158 -164 -158 -414z M272 618q23 70 70 123q88 98 225 99q133 0 213 -80q59 -60 86 -142h-594z" />
<glyph unicode="f" d="M-18 811h149v-784l4 -93h424v224h-190v653h190v223h-190v129q0 49 14 70.5t51 21.5q16 0 25.5 -4t15.5 -8q6 -6 15.5 -25.5t29.5 -87.5l217 33q-16 96 -39.5 147.5t-60.5 88.5q-41 41 -91 60.5t-110 19.5q-137 0 -221 -97q-43 -47 -63.5 -107.5t-20.5 -131.5v-109h-149 v-223z" />
<glyph unicode="g" horiz-adv-x="1349" d="M14 475q0 -238 156 -395q156 -160 389 -160q125 0 244 60q23 10 41 22t37 27v-62q0 -68 -20.5 -114t-59.5 -78q-84 -72 -230 -72q-23 0 -55.5 5t-67 12.5t-67.5 14.5t-57 13l-56 -217l34 -8t81 -19.5t96 -19.5t82 -8q242 0 397 135q160 137 160 366v834h178v223h-415v-94 q-45 43 -93 66q-109 55 -227 55q-227 0 -389 -172q-158 -174 -158 -414zM254 483q0 152 92 254q88 100 219 101q127 0 221 -103q95 -100 95 -252t-93 -245q-88 -96 -223 -97q-137 0 -223 95q-88 94 -88 247z" />
<glyph unicode="h" horiz-adv-x="1232" d="M-39 1233h176v-1206h4v-93h394v224h-160v544q29 25 62.5 47.5t74.5 41.5q45 23 83 33t73 10q53 0 77.5 -25t24.5 -80v-637v-158h393v224h-155v583q0 143 -90 232q-47 47 -106.5 67.5t-129.5 20.5q-86 0 -161 -24.5t-146 -67.5v487h-414v-223z" />
<glyph unicode="i" d="M-16 811h170v-784l4 -93h399v224h-166v876h-407v-223zM96 1329q0 -57 43 -104q47 -43 105 -43q57 0 104 43q43 43 43 106q0 57 -43 105q-47 43 -104 43t-105 -43q-43 -43 -43 -107z" />
<glyph unicode="j" horiz-adv-x="544" d="M-57 -258v-223q38 -3 72 -3q86 0 143 18q80 26 133 75q55 51 79.5 118.5t24.5 151.5v1155h-415v-223h178v-905q0 -47 -8.5 -80t-32 -53.5t-65.5 -27.5q-27 -4 -64 -4q-21 0 -45 1zM100 1329q0 -57 43 -104q47 -43 105 -43q57 0 104 43q43 43 43 106q0 57 -43 105 q-47 43 -104 43t-105 -43q-43 -43 -43 -107z" />
<glyph unicode="k" horiz-adv-x="1183" d="M-39 1233h178v-1206l4 -93h412v224h-178v198l483 -422h299v224h-188l-420 350l442 303h150v223h-217l-54 -36q-53 -37 -135 -93.5t-178 -123t-182 -124.5v799h-416v-223z" />
<glyph unicode="l" horiz-adv-x="544" d="M-49 1233h176v-1141v-158h412v224h-174v1298h-414v-223z" />
<glyph unicode="m" horiz-adv-x="1918" d="M-41 811h176v-719v-158h397v224h-159v544q29 25 62.5 47.5t72.5 41.5q45 23 82 33t67 10q33 0 49.5 -7.5t26.5 -15.5q10 -10 16.5 -28.5t6.5 -53.5v-795h237v760q66 63 137 99q76 41 150 41q51 0 73.5 -25t22.5 -80v-637v-158h389v224h-151v583q0 143 -92 234 q-47 45 -106.5 65.5t-131.5 20.5q-55 0 -113.5 -16.5t-117.5 -45.5q-63 -33 -115 -71q-47 72 -117.5 102.5t-154.5 30.5q-80 0 -154 -24.5t-139 -65.5v63h-414v-223z" />
<glyph unicode="n" horiz-adv-x="1206" d="M-49 811h176v-719v-158h395v224h-157v544q29 25 62.5 47.5t72.5 41.5q45 23 83 33t72 10q53 0 77 -25t24 -80v-637v-158h391v224h-154v583q0 143 -90 232q-47 47 -105.5 67.5t-127.5 20.5q-84 0 -160 -25.5t-145 -66.5v65h-414v-223z" />
<glyph unicode="o" horiz-adv-x="1255" d="M18 483q0 -242 156 -409.5t393 -167.5q238 0 393.5 167.5t155.5 409.5t-155.5 410t-393.5 168t-393.5 -168t-155.5 -410zM258 483q0 156 88 254q86 96 221 97q135 0 221 -97q89 -98 89 -254t-89 -254q-86 -96 -221 -96t-221 96q-88 98 -88 254z" />
<glyph unicode="p" horiz-adv-x="1349" d="M-47 811h164v-1153v-158h413v224h-176v284q16 -14 36 -26.5t40 -22.5q113 -53 232 -53q240 0 393 166q149 167 149 417q0 121 -37 222.5t-114 183.5q-154 166 -385 166q-119 0 -230 -55q-23 -10 -43 -24.5t-41 -31.5v84h-401v-223zM350 487q0 162 88 256.5t219 94.5 q141 0 228 -97q90 -96 90 -258q0 -82 -22.5 -144.5t-65.5 -111.5q-84 -94 -223 -94q-133 0 -224 96q-43 47 -66.5 110.5t-23.5 147.5z" />
<glyph unicode="q" horiz-adv-x="1349" d="M20 487q0 -254 152 -417q78 -84 177.5 -124t219.5 -40q121 0 232 55q18 10 34.5 21.5t32.5 23.5v-282h-172v-224h410v158v1165h180v224h-418v-93q-35 29 -80 52q-111 55 -229 55q-231 0 -387 -168q-152 -168 -152 -406zM252 485q0 82 22.5 144.5t67.5 111.5q90 96 227 97 q135 0 217 -95q88 -94 88 -256q0 -86 -23.5 -149.5t-66.5 -110.5q-88 -94 -225 -94q-133 0 -221 94q-41 47 -63.5 110.5t-22.5 147.5z" />
<glyph unicode="r" horiz-adv-x="901" d="M-10 811h184v-719v-158h436v224h-198v368q0 86 20.5 131t56.5 78q39 35 103.5 57.5t163.5 22.5h104v215l-102 2h-20q-60 0 -108 -10q-56 -12 -124 -45q-29 -14 -57.5 -33.5t-36.5 -23.5v114h-422v-223z" />
<glyph unicode="s" horiz-adv-x="1017" d="M12 -66h226v31q20 -14 41 -22q86 -39 192 -39q92 0 170 22.5t137 69.5q125 100 125 264q0 68 -20.5 126t-65.5 103.5t-127 74t-190 48.5q-78 12 -121 26.5t-62 25.5q-10 8 -17 21t-7 42q0 45 35 80q16 16 42.5 25.5t67.5 9.5q47 0 81 -13.5t63 -37.5q27 -23 41 -63 t18 -130h219v408h-213q-47 29 -100 42t-111 13q-152 0 -258 -88q-112 -93 -112 -247q0 -77 24.5 -138.5t81.5 -102.5q47 -35 117.5 -59.5t161.5 -40.5q82 -14 129 -28.5t67 -30.5q14 -10 22.5 -26.5t8.5 -49.5q0 -25 -11.5 -46.5t-39.5 -43.5q-59 -43 -146 -43 q-115 0 -178 59q-29 27 -46 73t-19 152h-226v-467z" />
<glyph unicode="t" horiz-adv-x="591" d="M-45 811h172v-651q0 -53 13.5 -99.5t47.5 -80.5q35 -37 81 -52.5t104 -15.5l193 33v225l-185 -31h-10q-6 8 -6 41v631h201v223h-201v221l-238 -6v-215h-172v-223z" />
<glyph unicode="u" horiz-adv-x="1232" d="M-29 811h170v-584q0 -66 20.5 -123t65.5 -100q45 -45 102.5 -64.5t125.5 -19.5q123 0 233 49q20 10 38.5 20.5t37.5 20.5v-76h405v224h-168v876h-237v-157v-594q-53 -51 -133 -93q-86 -43 -158 -43q-94 0 -94 99v788h-408v-223z" />
<glyph unicode="v" horiz-adv-x="1183" d="M-70 811h181l342 -891h188l328 891h170v223h-326l-51 -135l-217 -590l-187 502h105v223h-533v-223z" />
<glyph unicode="w" horiz-adv-x="1705" d="M-59 811h143l276 -891h203l197 682l201 -682h194l289 891h155v223h-327l-41 -139l-172 -516l-135 432h84v223h-498v-223h88l-139 -442l-162 526l-41 139h-315v-223z" />
<glyph unicode="x" horiz-adv-x="1206" d="M-25 -66h578v224h-121l121 161l240 -292l73 -93h262v224h-153l-279 342l244 311h164v223h-488v-223h37l-102 -129l-102 129h43v223h-492v-223h160l250 -311l-281 -367z" />
<glyph unicode="y" horiz-adv-x="1206" d="M-61 811h182l321 -786l-186 -525h231l496 1311h168v223h-535v-223h125l-180 -477l-231 567l-51 133h-340v-223z" />
<glyph unicode="z" horiz-adv-x="1089" d="M27 -66h929v486h-217v-262h-387l606 696v180h-882v-223h149h406l-604 -694v-183z" />
<glyph unicode="{" horiz-adv-x="757" d="M33 369q43 0 70.5 -4.5t45 -10.5t25.5 -14t14 -18q16 -29 26.5 -73t10.5 -106v-280q0 -133 68 -232q41 -59 108.5 -83.5t149.5 -24.5h98v227q-47 0 -76.5 2t-46 6t-24.5 8.5t-10 8.5q-6 6 -15.5 37.5t-9.5 109.5v240q0 78 -14.5 143.5t-49.5 116.5q-14 20 -28.5 36.5 t-30.5 30.5q16 14 30.5 31t28.5 37q35 51 49.5 116.5t14.5 143.5v240q0 78 9 109.5t16 37.5q2 4 10 8.5t24.5 8.5t46 6t76.5 2v227h-98q-82 0 -149.5 -24.5t-108.5 -83.5q-68 -98 -68 -232v-280q0 -61 -10 -105.5t-27 -73.5q-6 -10 -14 -18t-25.5 -14.5t-45 -10.5t-70.5 -4 v-241z" />
<glyph unicode="|" horiz-adv-x="1128" d="M389 -524h238v1980h-238v-1980z" />
<glyph unicode="}" horiz-adv-x="757" d="M33 -250v-227h98q82 0 149.5 24.5t108.5 83.5q68 98 68 232v280q0 61 10 105.5t27 73.5q6 10 14 18t25.5 14t45 10.5t70.5 4.5v241q-43 0 -70.5 4t-45 10.5t-25.5 14.5t-14 18q-16 29 -26.5 73t-10.5 106v280q0 133 -68 232q-41 59 -108.5 83.5t-149.5 24.5h-98v-227 q47 0 76.5 -2t46 -6t23.5 -8.5t11 -8.5q6 -6 15.5 -37.5t9.5 -109.5v-240q0 -78 14.5 -143.5t49.5 -116.5q14 -20 28.5 -36.5t30.5 -31.5q-16 -14 -30.5 -30.5t-28.5 -36.5q-35 -51 -49.5 -116.5t-14.5 -143.5v-240q0 -78 -9 -109.5t-16 -37.5q-4 -4 -11 -8.5t-23.5 -8.5 t-46 -6t-76.5 -2z" />
<glyph unicode="~" horiz-adv-x="1490" d="M70 463q57 45 96 73.5t65.5 47t44 30t33.5 19.5q53 29 115 29q29 0 81 -16.5t130 -53.5q80 -41 151.5 -62.5t135.5 -21.5q115 0 211 55q39 23 70.5 46.5t70.5 54.5l-4 264q-57 -41 -97 -67.5t-68 -44t-46.5 -29t-32.5 -19.5q-51 -29 -108 -29q-29 0 -80.5 15.5 t-128.5 54.5q-82 41 -154 62.5t-133 21.5q-119 0 -213 -55q-39 -25 -71 -47.5t-68 -53.5v-274z" />
<glyph unicode="&#xa0;" />
<glyph unicode="&#xa1;" d="M133 711h246v323h-246v-323zM137 23v-510h238v503l-27 650h-184z" />
<glyph unicode="&#xa2;" horiz-adv-x="1159" d="M18 475q0 -248 152 -407q57 -59 139 -105l-119 -463h205l105 408q14 -2 30 -2h33q164 0 291 88q66 45 116 112.5t97 190.5l-205 88q-39 -90 -68.5 -132t-62.5 -69q-33 -25 -73 -38t-93 -13h-8l162 627q33 -25 53.5 -75t24.5 -165h217v500h-219v-41q-4 4 -8.5 5t-8.5 5 l115 447h-205l-100 -392q-10 2 -19 3h-18q-229 0 -383 -166q-150 -164 -150 -406zM258 475q0 158 84 252q67 82 186 92l-157 -620q-8 6 -14.5 12t-12.5 12q-41 47 -63.5 108.5t-22.5 143.5z" />
<glyph unicode="&#xa3;" horiz-adv-x="1183" d="M23 164q0 -106 69 -178q72 -70 180 -70q41 0 80 13.5t74 35.5q47 31 80 82q59 -51 132 -91t155 -40q139 0 223 113q80 104 80 260v84h-211q-2 -53 -5 -90t-7.5 -60.5t-8.5 -38t-10 -22.5q-8 -14 -21.5 -21.5t-39.5 -7.5q-20 0 -43 7t-50 26q-25 18 -52 39.5t-58 48.5 q4 16 5 28.5t3 24.5q6 43 6 96q0 86 -22 172h213v224h-289q-16 39 -29.5 76.5t-27.5 76.5q-16 47 -22.5 85t-6.5 67q0 43 12 70.5t35 44.5q49 43 129 43q51 0 82 -13.5t51 -36.5q23 -25 34 -65.5t15 -134.5h230q-2 137 -29 219t-84 139t-133 83t-168 26t-167 -27t-132 -84 q-111 -111 -111 -270q0 -96 31 -191q8 -25 18.5 -52.5t22.5 -55.5h-211v-224h297q8 -20 14 -41.5t15 -44.5q6 -27 10 -50t6 -48q-47 18 -100 19q-55 0 -103.5 -17.5t-87.5 -54.5q-74 -74 -73 -174zM229 158q0 14 4.5 20t8.5 10q23 16 47 17q16 0 30.5 -5.5t28.5 -13.5 q-16 -27 -33 -43q-12 -14 -23 -18t-22 -4q-20 0 -30 10q-4 6 -7.5 11t-3.5 16z" />
<glyph unicode="&#xa4;" horiz-adv-x="1705" d="M-33 453h166q33 -123 98.5 -222.5t158.5 -170t212 -108.5t260 -38q270 0 447 144t286 423l-211 123q-43 -121 -94 -208t-113.5 -142t-139 -82t-173.5 -27q-172 0 -291.5 84t-177.5 224h776v221h-823v22v21q0 12 2 22h821v222h-770q59 129 174 207.5t281 78.5 q78 0 151.5 -21.5t135 -66.5t106.5 -114.5t64 -163.5h215v493h-225v-51q-94 76 -207 116t-236 40q-135 0 -251.5 -37t-209 -105.5t-159 -164t-101.5 -211.5h-172v-222h135v-43v-22h-135v-221z" />
<glyph unicode="&#xa5;" horiz-adv-x="1255" d="M-66 561h508v-403h-192v-224h637v224h-199v403h504v223h-410l58 115h352v223h-244l56 111h194v223h-592v-223h142l-54 -111h-133h-94l-51 111h145v223h-627v-223h205l51 -111h-256v-223h361l53 -115h-414v-223zM539 946h43h8l-23 -47z" />
<glyph unicode="&#xa6;" horiz-adv-x="1128" d="M389 350v-874h238v874h-238zM389 580h238v876h-238v-876z" />
<glyph unicode="&#xa7;" horiz-adv-x="995" d="M-33 545q0 -139 84 -236q82 -90 242 -159l166 -72q59 -27 98 -52.5t61 -50.5q39 -45 39 -104q0 -41 -13 -66.5t-40 -42.5q-66 -45 -131 -45q-88 0 -147 47q-25 18 -42.5 61.5t-25.5 147.5h-225q8 -150 43 -237.5t106 -141.5q129 -94 281 -94q174 0 297 99 q66 51 96.5 122.5t30.5 157.5q0 88 -39 166q-10 25 -26.5 47.5t-35.5 44.5q27 23 48.5 50.5t37.5 56.5q56 92 56 190q0 139 -84 236q-82 90 -242 159l-166 72q-59 27 -98 52.5t-62 50.5q-39 45 -38 104q0 41 13 66.5t40 42.5q66 45 131 45q88 0 147 -48q25 -18 42.5 -61 t25.5 -147h227q-10 150 -45 237.5t-106 140.5q-129 94 -281 95q-174 0 -297 -99q-66 -51 -96.5 -122.5t-30.5 -157.5q0 -88 39 -166q10 -25 26.5 -47.5t35.5 -44.5q-27 -23 -48.5 -50.5t-37.5 -56.5q-55 -92 -56 -190zM197 561q0 53 30 101q25 35 60 61l260 -117 q53 -25 82.5 -47t42.5 -39q26 -32 26 -98q0 -57 -30 -103q-12 -18 -27.5 -32.5t-32.5 -28.5l-260 117q-53 25 -82.5 48t-42.5 40q-27 33 -26 98z" />
<glyph unicode="&#xa8;" horiz-adv-x="757" d="M33 1122h262v262h-262v-262zM387 1122h262v262h-262v-262z" />
<glyph unicode="&#xa9;" horiz-adv-x="1642" d="M25 727q0 -332 233 -561q229 -233 563 -234q330 0 561 234q234 229 234 563q0 330 -234 561q-231 233 -563 234q-332 0 -561 -234q-233 -231 -233 -563zM186 729q0 260 187 447q184 186 448 186q260 0 447 -186q186 -185 186 -449q0 -260 -186 -446q-184 -186 -449 -187 q-260 0 -446 187q-186 184 -187 448zM412 727q0 -207 118.5 -338t298.5 -131q127 0 226 74q49 39 84.5 95t62.5 146l-151 56q-23 -70 -44.5 -107t-50.5 -61q-57 -47 -131 -47q-115 0 -176 90q-66 94 -65 235q0 123 67 209q63 80 185 80q72 0 118 -41q25 -23 44.5 -52.5 t37.5 -80.5l164 49q-31 61 -63.5 110.5t-75.5 85.5t-97.5 55.5t-125.5 19.5q-199 0 -314 -127q-113 -125 -112 -320z" />
<glyph unicode="&#xaa;" horiz-adv-x="757" d="M-6 1235l170 -39q-35 -16 -62 -37q-43 -35 -66.5 -80t-23.5 -100q0 -98 76 -168t186 -70q41 0 83 11.5t79 27.5v-30h305v186h-104v311q0 74 -29.5 119t-75 70.5t-98.5 34t-98 8.5q-55 0 -104.5 -11.5t-90.5 -35.5q-39 -25 -70.5 -65t-76.5 -132zM184 1202 q20 43 31.5 56.5t24.5 23.5q12 8 34.5 13t59.5 5q59 0 88 -18q6 -4 10 -10t4 -25v-41q-12 4 -20 4q-59 12 -103 13q-74 -1 -129 -21zM215 973q0 29 23 49q10 10 31.5 16t56.5 6q29 0 56.5 -7t53.5 -17v-39q-25 -23 -61 -37q-45 -23 -84 -22q-41 0 -60 18q-10 10 -13 18.5 t-3 14.5z" />
<glyph unicode="&#xab;" horiz-adv-x="1067" d="M-16 489l354 -555h268l-352 555l352 555h-268zM420 489l354 -555h268l-352 555l352 555h-268z" />
<glyph unicode="&#xac;" horiz-adv-x="2070" d="M-18 592l90 -90l82 82l342 -342l65 -66l172 170l-90 90l-74 -76l-266 265q4 29 8 56.5t15 55.5q20 61 53 94q16 16 29.5 21.5t23.5 5.5q27 0 55 -29l365 -364l96 96l-350 350q0 63 18 117q18 59 54 94q29 29 54.5 27t53.5 -31l219 -219v-807v-125h373v158h-192v537 l534 -592l90 -103h279v158h-168l-561 614l532 527h168v157h-237l-101 -102l-407 -399l-129 -109v156v297h190v157h-555v-157h184v-174l-129 129q-63 63 -143 61q-78 0 -145 -68q-47 -47 -76 -131q-8 -27 -13.5 -51t-9.5 -47q-53 16 -101 -1t-89 -58q-25 -25 -43.5 -54.5 t-32.5 -64.5q-12 -37 -18 -74l-37 37zM907 -303q0 -80 58 -141q61 -57 141 -58q78 0 139 58q58 61 58 141q0 82 -57.5 139.5t-141.5 57.5q-82 0 -139.5 -57.5t-57.5 -139.5z" />
<glyph unicode="&#xad;" horiz-adv-x="782" d="M4 449h692v223h-692v-223z" />
<glyph unicode="&#xae;" horiz-adv-x="1642" d="M25 727q0 -332 233 -561q229 -233 563 -234q330 0 561 234q234 229 234 563q0 330 -234 561q-231 233 -563 234q-332 0 -561 -234q-233 -231 -233 -563zM186 729q0 260 187 447q184 186 448 186q260 0 447 -186q186 -185 186 -449q0 -260 -186 -446q-184 -186 -449 -187 q-260 0 -446 187q-186 184 -187 448zM479 285h172v348h33q109 0 164 -49q29 -23 67.5 -93.5t94.5 -205.5h196q-53 123 -88 191.5t-59 109.5q-31 47 -78 80q61 20 106 65q70 72 70 176q0 98 -74 172q-39 39 -97 56.5t-132 17.5h-375v-868zM651 782v224h142q51 0 86.5 -7.5 t58.5 -17.5q18 -10 28.5 -27.5t10.5 -50.5q0 -57 -35 -88q-16 -14 -55 -23.5t-105 -9.5h-131z" />
<glyph unicode="&#xaf;" horiz-adv-x="757" d="M-53 1163h788v191h-788v-191z" />
<glyph unicode="&#xb0;" horiz-adv-x="901" d="M51 1124q0 -150 105 -250q102 -104 250 -104q147 0 249 104q105 100 105 250q0 147 -105 250q-102 104 -249 105q-150 0 -250 -105q-104 -102 -105 -250zM264 1124q0 31 10.5 54.5t30.5 46.5q23 20 46.5 30.5t54.5 10.5t54 -10.5t46 -30.5q20 -23 30.5 -46.5t10.5 -54.5 t-10.5 -54t-30.5 -46q-23 -20 -46.5 -30.5t-53.5 -10.5q-31 0 -54.5 10.5t-46.5 30.5q-20 23 -30.5 46.5t-10.5 53.5z" />
<glyph unicode="&#xb1;" horiz-adv-x="1366" d="M113 -33h1138v156h-1138v-156zM113 739h491v-493h156v493h491v156h-491v494h-156v-494h-491v-156z" />
<glyph unicode="&#xb2;" horiz-adv-x="661" d="M16 692l7 -45h565l12 291h-121l-6 -178h-315q14 45 55 96q51 61 190 133q94 45 140 101q45 57 45 137q0 100 -76 162q-72 59 -190 59q-127 0 -205 -72q-78 -70 -78 -188v-49h125v45q0 70 39 112q18 18 47 29.5t74 11.5q59 0 98 -32q35 -31 35 -78t-29 -80 q-31 -31 -106 -72q-84 -43 -143.5 -91t-94.5 -101q-33 -53 -50.5 -99.5t-17.5 -91.5z" />
<glyph unicode="&#xb3;" horiz-adv-x="661" d="M18 936q4 -86 29 -139.5t70 -87.5q45 -37 99 -54.5t116 -17.5q131 0 215 65q90 73 90 179q0 92 -62 147q-31 27 -67 43q80 57 80 156q0 98 -76 159q-74 61 -182 62q-53 0 -100.5 -14.5t-82.5 -44.5q-37 -31 -56 -77t-23 -124h129q2 57 10 81.5t24 37.5q33 31 95 30 q59 0 96 -30q35 -29 35 -78q0 -53 -41 -82q-45 -35 -111 -35l-57 6v-121l90 7q41 4 71.5 -7.5t55.5 -27.5q43 -35 43 -88q0 -55 -47 -95q-49 -39 -127 -38q-80 0 -129 43q-25 23 -40 54.5t-24 90.5h-123z" />
<glyph unicode="&#xb4;" horiz-adv-x="757" d="M70 1032h231l344 449h-285z" />
<glyph unicode="&#xb5;" horiz-adv-x="1130" d="M10 844h170v-1311h166v455q57 -35 129 -35q106 0 207 47q57 27 111 66v-99h340v158h-168v876h-340v-157h168v-574q-61 -61 -149.5 -108t-168.5 -47q-63 0 -92 32q-14 16 -22.5 40t-8.5 59v755h-342v-157z" />
<glyph unicode="&#xb6;" horiz-adv-x="1468" d="M31 965q0 -203 141 -344q121 -121 307 -140v-981h262v1688h136v-1688h262v1688h192v268h-760q-238 0 -389 -133q-78 -68 -114.5 -158t-36.5 -200z" />
<glyph unicode="&#xb7;" horiz-adv-x="663" d="M143 522h246v262h-246v-262z" />
<glyph unicode="&#xb8;" horiz-adv-x="757" d="M82 -301v-199h94q78 0 144.5 13.5t119.5 42.5q115 67 115 202q0 45 -14.5 85t-46.5 71q-33 37 -76 51l16 86h-198l-56 -280q43 0 68.5 -1t39 -3.5t18.5 -4.5t9 -4q6 -6 7 -14q0 -18 -19 -29q-31 -16 -74 -20q-25 -2 -54.5 0t-92.5 4z" />
<glyph unicode="&#xb9;" horiz-adv-x="661" d="M143 647h377v113h-121v676h-254v-113h121v-563h-123v-113z" />
<glyph unicode="&#xba;" horiz-adv-x="804" d="M-14 1106q0 -158 108 -266q106 -106 271 -107q164 0 270 107q108 108 108 266q0 156 -108 264q-106 109 -270 109t-271 -109q-109 -109 -108 -264zM186 1106q0 82 50 131q51 51 129 51t129 -51q49 -49 49 -131q0 -43 -13.5 -76t-35.5 -57q-51 -51 -129 -51t-129 51 q-23 25 -36.5 57.5t-13.5 75.5z" />
<glyph unicode="&#xbb;" horiz-adv-x="1067" d="M-80 -66h268l355 555l-355 555h-268l352 -555zM356 -66h269l354 555l-354 555h-269l353 -555z" />
<glyph unicode="&#xbc;" horiz-adv-x="1728" d="M145 647h377v113h-121v676h-254v-113h121v-563h-123v-113zM193 -33h151l1028 1456h-151zM846 246q29 -18 34 -22.5t7 -6.5t4 -9t12 -30h322v-98h-97v-113h295v113h-75v98h139v109h-139v475h-107zM1018 287l207 276v-276h-207z" />
<glyph unicode="&#xbd;" horiz-adv-x="1728" d="M143 647h377v113h-121v676h-254v-113h121v-563h-123v-113zM190 -33h152l1028 1456h-151zM987 12l6 -45h566l12 291h-121l-6 -178h-316q14 45 56 96q51 61 190 133q94 45 139 101q45 57 46 137q0 100 -76 162q-72 59 -191 59q-127 0 -205 -72q-78 -70 -77 -188v-49h125v45 q0 70 39 112q18 18 46.5 29.5t73.5 11.5q59 0 99 -32q35 -31 34 -78q0 -47 -28 -80q-31 -31 -107 -72q-84 -43 -143 -91t-94 -101q-33 -53 -50.5 -99.5t-17.5 -91.5z" />
<glyph unicode="&#xbe;" horiz-adv-x="1728" d="M94 936q4 -86 28.5 -139.5t70.5 -87.5q45 -37 99 -54.5t116 -17.5q131 0 215 65q90 73 90 179q0 92 -62 147q-31 27 -67 43q80 57 80 156q0 98 -76 159q-74 61 -182 62q-53 0 -100.5 -14.5t-82.5 -44.5q-37 -31 -56.5 -77t-23.5 -124h129q2 57 10.5 81.5t24.5 37.5 q33 31 94 30q59 0 97 -30q35 -29 34 -78q0 -53 -40 -82q-45 -35 -111 -35l-57 6v-121l90 7q41 4 71.5 -7.5t55.5 -27.5q43 -35 43 -88q0 -55 -47 -95q-49 -39 -127 -38q-80 0 -129 43q-25 23 -40.5 54.5t-23.5 90.5h-123zM344 -33h152l1028 1456h-152zM995 246 q29 -18 34 -22.5t7 -6.5t4 -9t13 -30h321v-98h-96v-113h295v113h-76v98h139v109h-139v475h-106zM1167 287l207 276v-276h-207z" />
<glyph unicode="&#xbf;" horiz-adv-x="1017" d="M20 -66q0 -166 117 -301q61 -72 145.5 -106.5t186.5 -34.5q104 0 189 33t147 102q59 66 88 152t29 223h-228q0 -106 -15 -153.5t-44 -73.5q-59 -59 -156 -60q-100 0 -164 64q-61 63 -61 153q0 66 19.5 105t50.5 59q61 39 149 39q16 0 35.5 -2t48.5 -6l80 -10l-47 542 h-168l-27 -299q-162 -10 -266 -129q-109 -127 -109 -297zM387 713h246v323h-246v-323z" />
<glyph unicode="&#xc0;" horiz-adv-x="1490" d="M-113 -66h422v154l129 375h467l109 -305h-148v-224h592v224h-190l-379 1075h147v223h-506l-45 -137l-403 -1161h-195v-224zM369 1937l344 -448h231l-291 448h-284zM516 686l158 459l155 -459h-313z" />
<glyph unicode="&#xc1;" horiz-adv-x="1490" d="M-113 -66h422v154l129 375h467l109 -305h-148v-224h592v224h-190l-379 1075h147v223h-506l-45 -137l-403 -1161h-195v-224zM401 1489h232l344 448h-285zM516 686l158 459l155 -459h-313z" />
<glyph unicode="&#xc2;" horiz-adv-x="1490" d="M-113 -66h422v154l129 375h467l109 -305h-148v-224h592v224h-190l-379 1075h147v223h-506l-45 -137l-403 -1161h-195v-224zM295 1497h235l203 189l207 -189h236l-353 428h-180zM516 686l158 459l155 -459h-313z" />
<glyph unicode="&#xc3;" horiz-adv-x="1490" d="M-113 -66h422v154l129 375h467l109 -305h-148v-224h592v224h-190l-379 1075h147v223h-506l-45 -137l-403 -1161h-195v-224zM252 1516h188q25 57 35 71.5t14 18.5q10 8 29 8q12 0 40 -9.5t73 -33.5q51 -27 99 -42.5t95 -15.5q41 0 78 15.5t68 44.5q16 14 31.5 34.5 t30 49.5t30 70t33.5 98h-193q-23 -59 -32 -72.5t-13 -15.5q-12 -10 -29 -11q-14 0 -41.5 9.5t-72.5 33.5q-49 27 -97.5 42.5t-95.5 15.5q-80 0 -145 -60q-35 -29 -61.5 -84t-63.5 -167zM516 686l158 459l155 -459h-313z" />
<glyph unicode="&#xc4;" horiz-adv-x="1490" d="M-113 -66h422v154l129 375h467l109 -305h-148v-224h592v224h-190l-379 1075h147v223h-506l-45 -137l-403 -1161h-195v-224zM365 1538h262v262h-262v-262zM516 686l158 459l155 -459h-313zM719 1538h262v262h-262v-262z" />
<glyph unicode="&#xc5;" horiz-adv-x="1490" d="M-113 -66h422v154l129 375h467l109 -305h-148v-224h592v224h-190l-379 1075h147v223h-506l-45 -137l-403 -1161h-195v-224zM461 1731q0 -104 74 -179q70 -76 178 -75q106 0 180 74t74 180t-74 180t-180 74q-109 0 -178 -76q-74 -74 -74 -178zM516 686l158 459l155 -459 h-313zM653 1731q0 25 17 45q20 16 43 16q27 0 43 -18q18 -16 18 -43q0 -29 -18 -43q-16 -18 -43 -19q-23 0 -43 17q-16 20 -17 45z" />
<glyph unicode="&#xc6;" horiz-adv-x="2131" d="M-133 -66h498v224h-117l248 444h327v-444h-231v-224h1302v474h-225v-250h-600v442h582v223h-582v410h666h157v223h-1501v-223h184q-63 -115 -139 -255t-154.5 -284.5t-153.5 -281t-133 -243t-93 -171.5zM614 825l209 379v-379h-209z" />
<glyph unicode="&#xc7;" horiz-adv-x="1705" d="M61 696q0 -172 51.5 -313t159.5 -252q154 -160 379 -203l-30 -157q43 0 68.5 -1t38.5 -3.5t18.5 -4.5t9.5 -4q6 -6 6 -14q0 -18 -19 -29q-31 -16 -73 -20q-25 -2 -54.5 0t-93.5 4v-199h94q78 0 144.5 13.5t120.5 42.5q115 68 114 202q0 45 -14 85t-47 71l-4 6 q172 23 315 115q96 63 169.5 168.5t139.5 277.5l-211 123q-59 -166 -113 -248t-114 -123q-123 -88 -293 -88q-227 0 -370 154q-145 156 -146 397q0 244 144 400q141 152 364 151q158 0 293 -86q61 -41 101 -103.5t63 -176.5h215v452h-225v-8q-35 29 -71 50.5t-75 37.5 q-150 66 -297 66q-336 0 -547 -219q-106 -111 -158.5 -252.5t-52.5 -311.5z" />
<glyph unicode="&#xc8;" horiz-adv-x="1372" d="M-35 1233h178v-1141v-158h1067v224h-159h-662v442h578v223h-578v410h596v-246h223v469h-1243v-223zM315 1937l344 -448h232l-291 448h-285z" />
<glyph unicode="&#xc9;" horiz-adv-x="1372" d="M-35 1233h178v-1141v-158h1067v224h-159h-662v442h578v223h-578v410h596v-246h223v469h-1243v-223zM348 1509h232l344 449h-285z" />
<glyph unicode="&#xca;" horiz-adv-x="1372" d="M-35 1233h178v-1141v-158h1067v224h-159h-662v442h578v223h-578v410h596v-246h223v469h-1243v-223zM180 1497h236l202 189l207 -189h236l-352 428h-181z" />
<glyph unicode="&#xcb;" horiz-adv-x="1372" d="M-35 1233h178v-1141v-158h1067v224h-159h-662v442h578v223h-578v410h596v-246h223v469h-1243v-223zM311 1538h262v262h-262v-262zM666 1538h262v262h-262v-262z" />
<glyph unicode="&#xcc;" horiz-adv-x="638" d="M-16 1937l198 -258l142 -190h51h184l-291 448h-284zM-10 -66h596v224h-176v1140v158h-246v-158v-1140h-174v-224z" />
<glyph unicode="&#xcd;" horiz-adv-x="638" d="M-10 -66h596v224h-176v1140v158h-246v-158v-1140h-174v-224zM16 1489h242q43 57 79 106.5t74 101.5t82 109t99 131h-285z" />
<glyph unicode="&#xce;" horiz-adv-x="638" d="M-152 1456h236l133 125l70 64l65 -60l142 -129h235l-352 428h-180zM-10 -66h596v224h-176v1140v158h-246v-158v-1140h-174v-224z" />
<glyph unicode="&#xcf;" horiz-adv-x="638" d="M-20 1538h215h47v262h-262v-262zM-10 -66h596v224h-176v1140v158h-246v-158v-1140h-174v-224zM334 1538h41h221v262h-262v-262z" />
<glyph unicode="&#xd0;" horiz-adv-x="1609" d="M-49 1235l192 4v-430h-190v-223h190v-494v-158h467q215 0 374 55.5t257 178.5q178 227 178 526q0 336 -200 549q-104 111 -256 162t-351 51h-661v-221zM389 158v428h428v223h-428v424h234q139 0 239.5 -36t170 -103.5t105.5 -166t36 -233.5q0 -141 -35 -239.5 t-100.5 -164t-167 -99t-244.5 -33.5h-238z" />
<glyph unicode="&#xd1;" horiz-adv-x="1609" d="M-45 1233h186v-1141v-158h424v224h-196v886l737 -1128h209v1317h180v223h-408v-158v-921q-141 221 -282 430q-100 152 -202.5 308.5t-217.5 340.5h-430v-223zM305 1516h189q25 57 35 71.5t14 18.5q10 8 28 8q12 0 40 -9.5t73 -33.5q51 -27 99 -42.5t96 -15.5 q41 0 77.5 15.5t67.5 44.5q16 14 31.5 34.5t30 49.5t30 70t33.5 98h-193q-23 -59 -32 -72.5t-13 -15.5q-12 -10 -28 -11q-14 0 -42 9.5t-73 33.5q-49 27 -97 42.5t-96 15.5q-80 0 -145 -60q-35 -29 -61.5 -84t-63.5 -167z" />
<glyph unicode="&#xd2;" horiz-adv-x="1775" d="M37 696q0 -336 217 -559t549 -223t549 223t217 559t-217 559.5t-549 223.5t-549 -223.5t-217 -559.5zM283 696q0 242 147 396q147 156 373 155q227 0 373 -153q147 -158 147 -398q0 -242 -147 -397q-145 -154 -373 -154q-225 0 -373 156q-147 154 -147 395zM496 1958 l344 -449h231l-291 449h-284z" />
<glyph unicode="&#xd3;" horiz-adv-x="1775" d="M37 696q0 -336 217 -559t549 -223t549 223t217 559t-217 559.5t-549 223.5t-549 -223.5t-217 -559.5zM283 696q0 242 147 396q147 156 373 155q227 0 373 -153q147 -158 147 -398q0 -242 -147 -397q-145 -154 -373 -154q-225 0 -373 156q-147 154 -147 395zM528 1509h232 l344 449h-285z" />
<glyph unicode="&#xd4;" horiz-adv-x="1775" d="M37 696q0 -336 217 -559t549 -223t549 223t217 559t-217 559.5t-549 223.5t-549 -223.5t-217 -559.5zM283 696q0 242 147 396q147 156 373 155q227 0 373 -153q147 -158 147 -398q0 -242 -147 -397q-145 -154 -373 -154q-225 0 -373 156q-147 154 -147 395zM360 1497h236 l203 189l207 -189h235l-321 426l-211 2z" />
<glyph unicode="&#xd5;" horiz-adv-x="1775" d="M37 696q0 -336 217 -559t549 -223t549 223t217 559t-217 559.5t-549 223.5t-549 -223.5t-217 -559.5zM283 696q0 242 147 396q147 156 373 155q227 0 373 -153q147 -158 147 -398q0 -242 -147 -397q-145 -154 -373 -154q-225 0 -373 156q-147 154 -147 395zM379 1516h188 q25 57 35 71.5t14 18.5q10 8 29 8q12 0 40 -9.5t73 -33.5q51 -27 99 -42.5t95 -15.5q41 0 78 15.5t68 44.5q16 14 31.5 34.5t30 49.5t30 70t33.5 98h-193q-23 -59 -32 -72.5t-13 -15.5q-12 -10 -29 -11q-14 0 -41.5 9.5t-72.5 33.5q-49 27 -97.5 42.5t-95.5 15.5 q-80 0 -145 -60q-35 -29 -61.5 -84t-63.5 -167z" />
<glyph unicode="&#xd6;" horiz-adv-x="1775" d="M37 696q0 -336 217 -559t549 -223t549 223t217 559t-217 559.5t-549 223.5t-549 -223.5t-217 -559.5zM283 696q0 242 147 396q147 156 373 155q227 0 373 -153q147 -158 147 -398q0 -242 -147 -397q-145 -154 -373 -154q-225 0 -373 156q-147 154 -147 395zM492 1538h262 v262h-262v-262zM846 1538h262v262h-262v-262z" />
<glyph unicode="&#xd7;" horiz-adv-x="1517" d="M102 233l160 -159l422 422l422 -422l160 159l-422 422l422 422l-160 160l-422 -422l-422 422l-160 -160l422 -422z" />
<glyph unicode="&#xd8;" horiz-adv-x="1775" d="M37 696q0 -152 43 -280.5t135 -237.5l-131 -149l152 -133l129 145q182 -127 438 -127q332 0 549 223t217 559q0 139 -40 265t-140 247l135 154l-152 133l-129 -147q-182 131 -440 131q-332 0 -549 -223.5t-217 -559.5zM283 696q0 242 147 396q147 156 373 155 q167 0 282 -78l-708 -804q-94 137 -94 331zM522 221l707 805q94 -137 94 -330q0 -242 -147 -397q-145 -154 -373 -154q-164 0 -281 76z" />
<glyph unicode="&#xd9;" horiz-adv-x="1468" d="M-59 1233h178v-817q0 -117 34.5 -211t110.5 -162q74 -68 174.5 -98.5t223.5 -30.5t223 31.5t174 97.5q74 70 108.5 163t34.5 210v817h178v223h-424v-158v-899q0 -72 -18 -116.5t-51 -73.5q-35 -29 -89.5 -46.5t-138.5 -17.5q-78 0 -133 17.5t-90 50.5q-35 29 -53 75 t-18 115v830h176v223h-600v-223zM358 1937l344 -448h232l-291 448h-285z" />
<glyph unicode="&#xda;" horiz-adv-x="1468" d="M-59 1233h178v-817q0 -117 34.5 -211t110.5 -162q74 -68 174.5 -98.5t223.5 -30.5t223 31.5t174 97.5q74 70 108.5 163t34.5 210v817h178v223h-424v-158v-899q0 -72 -18 -116.5t-51 -73.5q-35 -29 -89.5 -46.5t-138.5 -17.5q-78 0 -133 17.5t-90 50.5q-35 29 -53 75 t-18 115v830h176v223h-600v-223zM391 1489h232l344 448h-285z" />
<glyph unicode="&#xdb;" horiz-adv-x="1468" d="M-59 1233h178v-817q0 -117 34.5 -211t110.5 -162q74 -68 174.5 -98.5t223.5 -30.5t223 31.5t174 97.5q74 70 108.5 163t34.5 210v817h178v223h-424v-158v-899q0 -72 -18 -116.5t-51 -73.5q-35 -29 -89.5 -46.5t-138.5 -17.5q-78 0 -133 17.5t-90 50.5q-35 29 -53 75 t-18 115v830h176v223h-600v-223zM223 1497h236l203 189l206 -189h236l-352 428h-181z" />
<glyph unicode="&#xdc;" horiz-adv-x="1468" d="M-59 1233h178v-817q0 -117 34.5 -211t110.5 -162q74 -68 174.5 -98.5t223.5 -30.5t223 31.5t174 97.5q74 70 108.5 163t34.5 210v817h178v223h-424v-158v-899q0 -72 -18 -116.5t-51 -73.5q-35 -29 -89.5 -46.5t-138.5 -17.5q-78 0 -133 17.5t-90 50.5q-35 29 -53 75 t-18 115v830h176v223h-600v-223zM354 1497h262v262h-262v-262zM709 1497h262v262h-262v-262z" />
<glyph unicode="&#xdd;" horiz-adv-x="1372" d="M-104 1233h208l398 -625v-450h-193v-224h439v158v516l397 625h194v223h-587v-223h127l-244 -383l-324 514l-59 92h-356v-223zM348 1448h232l344 448h-285z" />
<glyph unicode="&#xde;" horiz-adv-x="1255" d="M-33 -66h430v158v129h252q111 0 203 31t163.5 96.5t106.5 153.5t35 192q0 223 -149 353q-76 63 -174.5 92.5t-219.5 29.5h-217v64h187v223h-617v-223h185v-1075h-185v-224zM397 444v502h211q92 0 149.5 -16.5t88.5 -44.5q29 -27 47 -75t18 -128q0 -66 -18.5 -108 t-50.5 -68q-37 -29 -93.5 -45.5t-140.5 -16.5h-211z" />
<glyph unicode="&#xdf;" horiz-adv-x="1398" d="M-33 -66h412v158v944q0 66 16.5 107t44.5 63q68 55 189 56q102 0 182 -52q66 -41 66 -131q0 -47 -12.5 -76.5t-35.5 -48.5q-51 -45 -141 -45h-86v-213q70 0 121 -5t89 -15t64.5 -23.5t47.5 -31.5q39 -35 60.5 -86.5t21.5 -126.5q0 -115 -64 -197q-59 -74 -156 -74 q-16 0 -31.5 1t-25.5 3q-6 0 -12 2l-19.5 6.5t-36 12.5t-59.5 24v-243l174 -23q109 0 195 36t149 112q119 143 119 342q0 193 -104 315q-55 61 -123 98q14 14 26.5 30.5t22.5 33.5q51 92 51 184q0 186 -137 299q-68 57 -154 83t-190 26t-191.5 -27t-156.5 -84 q-74 -61 -108 -151.5t-34 -204.5v-854h-174v-224z" />
<glyph unicode="&#xe0;" horiz-adv-x="1159" d="M39 272q0 -147 104 -247q104 -104 263 -105q76 0 148.5 24.5t135.5 63.5v-74h400v224h-162v563q0 82 -29 147.5t-90 112.5q-59 41 -136 60.5t-171 19.5q-43 0 -100.5 -14.5t-108.5 -32t-87 -31.5l-36 -14l74 -183q23 8 54.5 19.5t67 23t70.5 18.5t62 7q53 0 90 -9t61 -26 q18 -12 29.5 -34.5t11.5 -63.5v-127q-18 8 -36.5 13t-35.5 9q-80 20 -151 21q-92 0 -169 -23.5t-136 -76.5q-123 -104 -123 -265zM219 1542l344 -448h232l-291 448h-285zM279 264q0 68 51 113q23 23 60.5 36t94.5 13q66 0 121 -20q41 -14 84 -37v-115q-49 -49 -115 -82 q-78 -39 -145 -39q-41 0 -67.5 10.5t-45.5 28.5q-39 41 -38 92z" />
<glyph unicode="&#xe1;" horiz-adv-x="1159" d="M39 272q0 -147 104 -247q104 -104 263 -105q76 0 148.5 24.5t135.5 63.5v-74h400v224h-162v563q0 82 -29 147.5t-90 112.5q-59 41 -136 60.5t-171 19.5q-43 0 -100.5 -14.5t-108.5 -32t-87 -31.5l-36 -14l74 -183q23 8 54.5 19.5t67 23t70.5 18.5t62 7q53 0 90 -9t61 -26 q18 -12 29.5 -34.5t11.5 -63.5v-127q-18 8 -36.5 13t-35.5 9q-80 20 -151 21q-92 0 -169 -23.5t-136 -76.5q-123 -104 -123 -265zM252 1094h231l344 448h-284zM279 264q0 68 51 113q23 23 60.5 36t94.5 13q66 0 121 -20q41 -14 84 -37v-115q-49 -49 -115 -82 q-78 -39 -145 -39q-41 0 -67.5 10.5t-45.5 28.5q-39 41 -38 92z" />
<glyph unicode="&#xe2;" horiz-adv-x="1159" d="M39 272q0 -147 104 -247q104 -104 263 -105q76 0 148.5 24.5t135.5 63.5v-74h400v224h-162v563q0 82 -29 147.5t-90 112.5q-59 41 -136 60.5t-171 19.5q-43 0 -100.5 -14.5t-108.5 -32t-87 -31.5l-36 -14l74 -183q23 8 54.5 19.5t67 23t70.5 18.5t62 7q53 0 90 -9t61 -26 q18 -12 29.5 -34.5t11.5 -63.5v-127q-18 8 -36.5 13t-35.5 9q-80 20 -151 21q-92 0 -169 -23.5t-136 -76.5q-123 -104 -123 -265zM84 1081h235l203 189l207 -189h236l-353 428h-180zM279 264q0 68 51 113q23 23 60.5 36t94.5 13q66 0 121 -20q41 -14 84 -37v-115 q-49 -49 -115 -82q-78 -39 -145 -39q-41 0 -67.5 10.5t-45.5 28.5q-39 41 -38 92z" />
<glyph unicode="&#xe3;" horiz-adv-x="1159" d="M39 272q0 -147 104 -247q104 -104 263 -105q76 0 148.5 24.5t135.5 63.5v-74h400v224h-162v563q0 82 -29 147.5t-90 112.5q-59 41 -136 60.5t-171 19.5q-43 0 -100.5 -14.5t-108.5 -32t-87 -31.5l-36 -14l74 -183q23 8 54.5 19.5t67 23t70.5 18.5t62 7q53 0 90 -9t61 -26 q18 -12 29.5 -34.5t11.5 -63.5v-127q-18 8 -36.5 13t-35.5 9q-80 20 -151 21q-92 0 -169 -23.5t-136 -76.5q-123 -104 -123 -265zM102 1100h189q25 57 35 71.5t14 18.5q10 8 29 8q12 0 39.5 -9t72.5 -34q51 -27 99.5 -42t95.5 -15q41 0 78 15t67 44q16 14 31.5 34.5t30 49.5 t30 70t33.5 98h-192q-23 -59 -32 -72.5t-13 -15.5q-12 -10 -29 -10q-14 0 -42 9t-73 34q-49 27 -97 42t-95 15q-80 0 -146 -59q-35 -29 -61.5 -84.5t-63.5 -167.5zM279 264q0 68 51 113q23 23 60.5 36t94.5 13q66 0 121 -20q41 -14 84 -37v-115q-49 -49 -115 -82 q-78 -39 -145 -39q-41 0 -67.5 10.5t-45.5 28.5q-39 41 -38 92z" />
<glyph unicode="&#xe4;" horiz-adv-x="1159" d="M39 272q0 -147 104 -247q104 -104 263 -105q76 0 148.5 24.5t135.5 63.5v-74h400v224h-162v563q0 82 -29 147.5t-90 112.5q-59 41 -136 60.5t-171 19.5q-43 0 -100.5 -14.5t-108.5 -32t-87 -31.5l-36 -14l74 -183q23 8 54.5 19.5t67 23t70.5 18.5t62 7q53 0 90 -9t61 -26 q18 -12 29.5 -34.5t11.5 -63.5v-127q-18 8 -36.5 13t-35.5 9q-80 20 -151 21q-92 0 -169 -23.5t-136 -76.5q-123 -104 -123 -265zM215 1122h262v262h-262v-262zM279 264q0 68 51 113q23 23 60.5 36t94.5 13q66 0 121 -20q41 -14 84 -37v-115q-49 -49 -115 -82 q-78 -39 -145 -39q-41 0 -67.5 10.5t-45.5 28.5q-39 41 -38 92zM569 1122h262v262h-262v-262z" />
<glyph unicode="&#xe5;" horiz-adv-x="1159" d="M39 272q0 -147 104 -247q104 -104 263 -105q76 0 148.5 24.5t135.5 63.5v-74h400v224h-162v563q0 82 -29 147.5t-90 112.5q-59 41 -136 60.5t-171 19.5q-43 0 -100.5 -14.5t-108.5 -32t-87 -31.5l-36 -14l74 -183q23 8 54.5 19.5t67 23t70.5 18.5t62 7q53 0 90 -9t61 -26 q18 -12 29.5 -34.5t11.5 -63.5v-127q-18 8 -36.5 13t-35.5 9q-80 20 -151 21q-92 0 -169 -23.5t-136 -76.5q-123 -104 -123 -265zM270 1356q0 -104 74 -178q70 -76 178 -76q106 0 180 74t74 180t-73.5 180t-180.5 74q-109 0 -178 -76q-74 -74 -74 -178zM279 264q0 68 51 113 q23 23 60.5 36t94.5 13q66 0 121 -20q41 -14 84 -37v-115q-49 -49 -115 -82q-78 -39 -145 -39q-41 0 -67.5 10.5t-45.5 28.5q-39 41 -38 92zM463 1356q0 25 16 45q20 16 43 16q27 0 43 -18q19 -16 19 -43q0 -29 -19 -43q-16 -18 -43 -19q-23 0 -43 17q-16 20 -16 45z" />
<glyph unicode="&#xe6;" horiz-adv-x="1966" d="M45 272q0 -145 109 -249q55 -53 124.5 -78t149.5 -25q78 0 147.5 17.5t129.5 56.5q35 23 66.5 47.5t59.5 50.5q72 -84 162 -129q115 -57 252 -57q39 0 101.5 16.5t121 37t100.5 36.5l42 16l-125 193q-29 -14 -57.5 -27.5t-61.5 -25.5q-35 -12 -65.5 -20.5t-53.5 -8.5 q-145 0 -239 100q-66 70 -86 172h847q-10 174 -46.5 289t-108.5 201q-141 176 -375 176q-223 0 -375 -158q-31 47 -72.5 78t-89 48.5t-99.5 24.5t-101 7q-86 0 -162 -22.5t-174 -88.5l125 -170q66 45 109.5 59.5t97.5 14.5q53 0 89 -9t60 -26q16 -10 27.5 -33.5t11.5 -64.5 v-127q-16 8 -34.5 13t-35.5 9q-76 20 -149 21q-182 0 -301 -100q-121 -104 -121 -265zM285 264q0 66 49 115q25 23 61.5 35t91.5 12q63 0 117 -20q23 -8 43.5 -17.5t38.5 -19.5v-115q-23 -23 -50.5 -44.5t-62.5 -37.5q-78 -39 -143 -39q-72 0 -106 39q-39 41 -39 92z M934 618q20 72 65 123q86 98 218 99q131 0 204 -78q57 -58 82 -144h-569z" />
<glyph unicode="&#xe7;" horiz-adv-x="1159" d="M18 483q0 -250 152 -413q47 -51 104.5 -87t122.5 -55l-30 -157q43 0 68.5 -1t38.5 -3.5t18.5 -4.5t9.5 -4q6 -6 6 -14q0 -18 -19 -29q-31 -16 -73 -20q-25 -2 -54.5 0t-93.5 4v-199h94q78 0 144.5 13.5t120.5 42.5q115 68 114 202q0 45 -14 85t-47 71q47 10 90 30.5 t84 49.5q66 45 116 112.5t97 190.5l-205 88q-39 -90 -68.5 -132t-62.5 -69q-33 -25 -73 -38t-93 -13q-139 0 -221 92q-41 47 -63.5 109.5t-22.5 148.5q0 162 84 258q80 92 209 93q96 0 170 -60q31 -23 51.5 -73t24.5 -166h217v458h-219q-106 68 -244 68q-229 0 -383 -170 q-150 -164 -150 -408z" />
<glyph unicode="&#xe8;" horiz-adv-x="1255" d="M16 483q0 -246 160 -411q162 -166 406 -166q43 0 104.5 15.5t118.5 32.5t98 32l41 16l-61 207q-25 -10 -63 -24.5t-78 -29t-78.5 -23.5t-65.5 -9q-150 0 -248 100q-70 76 -90 172h870q-10 184 -50 302t-115 202q-150 162 -390 162q-242 0 -401 -164q-158 -164 -158 -414z M262 1538l344 -448h230l-289 448h-285zM272 618q23 70 70 123q88 98 225 99q133 0 213 -80q59 -60 86 -142h-594z" />
<glyph unicode="&#xe9;" horiz-adv-x="1255" d="M16 483q0 -246 160 -411q162 -166 406 -166q43 0 104.5 15.5t118.5 32.5t98 32l41 16l-61 207q-25 -10 -63 -24.5t-78 -29t-78.5 -23.5t-65.5 -9q-150 0 -248 100q-70 76 -90 172h870q-10 184 -50 302t-115 202q-150 162 -390 162q-242 0 -401 -164q-158 -164 -158 -414z M272 618q23 70 70 123q88 98 225 99q133 0 213 -80q59 -60 86 -142h-594zM295 1094h231l344 448h-284z" />
<glyph unicode="&#xea;" horiz-adv-x="1255" d="M16 483q0 -246 160 -411q162 -166 406 -166q43 0 104.5 15.5t118.5 32.5t98 32l41 16l-61 207q-25 -10 -63 -24.5t-78 -29t-78.5 -23.5t-65.5 -9q-150 0 -248 100q-70 76 -90 172h870q-10 184 -50 302t-115 202q-150 162 -390 162q-242 0 -401 -164q-158 -164 -158 -414z M137 1075h234l204 189l205 -189h238l-352 428h-181zM272 618q23 70 70 123q88 98 225 99q133 0 213 -80q59 -60 86 -142h-594z" />
<glyph unicode="&#xeb;" horiz-adv-x="1255" d="M16 483q0 -246 160 -411q162 -166 406 -166q43 0 104.5 15.5t118.5 32.5t98 32l41 16l-61 207q-25 -10 -63 -24.5t-78 -29t-78.5 -23.5t-65.5 -9q-150 0 -248 100q-70 76 -90 172h870q-10 184 -50 302t-115 202q-150 162 -390 162q-242 0 -401 -164q-158 -164 -158 -414z M258 1122h262v262h-262v-262zM272 618q23 70 70 123q88 98 225 99q133 0 213 -80q59 -60 86 -142h-594zM612 1122h262v262h-262v-262z" />
<glyph unicode="&#xec;" d="M-47 1522l344 -449h231l-290 449h-285zM-14 -66h573v224h-166v876h-407v-223h170v-653h-170v-224z" />
<glyph unicode="&#xed;" d="M-14 -66h573v224h-166v876h-407v-223h170v-653h-170v-224zM-14 1073h231l344 449h-285z" />
<glyph unicode="&#xee;" d="M-182 1081h235l203 189l207 -189h235l-352 428h-180zM-14 -66h573v224h-166v876h-407v-223h170v-653h-170v-224z" />
<glyph unicode="&#xef;" d="M-51 1122h262v262h-262v-262zM-14 -66h573v224h-166v876h-407v-223h170v-653h-170v-224zM303 1122h262v262h-262v-262z" />
<glyph unicode="&#xf0;" horiz-adv-x="1280" d="M29 477q0 -244 157 -407q160 -166 398 -166q252 0 399 196q74 96 108.5 217t34.5 267q0 293 -170 534q-18 27 -40.5 52.5t-49.5 54.5l273 131l-199 139l-254 -121q-41 29 -96 55.5t-135 61.5l-262 -131q90 -41 145 -65.5t90 -43.5l-254 -121l170 -118q-86 -41 -162 -121 q-154 -170 -153 -414zM268 477q0 82 22.5 145.5t65.5 114.5q84 96 222 97q133 0 219 -93q88 -98 88 -237q0 -164 -90 -271q-88 -102 -220 -102q-133 0 -217 96q-45 51 -67.5 111.5t-22.5 138.5zM512 1057l125 59q47 -39 63 -59l8.5 -8.5l8.5 -8.5q-63 20 -139 21 q-16 0 -33 -1t-33 -3z" />
<glyph unicode="&#xf1;" horiz-adv-x="1206" d="M-49 811h176v-719v-158h395v224h-157v544q29 25 62.5 47.5t72.5 41.5q45 23 83 33t72 10q53 0 77 -25t24 -80v-637v-158h391v224h-154v583q0 143 -90 232q-47 47 -105.5 67.5t-127.5 20.5q-84 0 -160 -25.5t-145 -66.5v65h-414v-223zM123 1100h188q25 57 35 71.5t14 18.5 q10 8 29 8q12 0 40 -9t73 -34q51 -27 99 -42t95 -15q41 0 78 15t68 44q16 14 31.5 34.5t30 49.5t30 70t33.5 98h-193q-23 -59 -32 -72.5t-13 -15.5q-12 -10 -29 -10q-14 0 -41.5 9t-72.5 34q-49 27 -97.5 42t-95.5 15q-80 0 -145 -59q-35 -29 -61.5 -84.5t-63.5 -167.5z" />
<glyph unicode="&#xf2;" horiz-adv-x="1255" d="M18 483q0 -242 156 -409.5t393 -167.5q238 0 393.5 167.5t155.5 409.5t-155.5 410t-393.5 168t-393.5 -168t-155.5 -410zM258 483q0 156 88 254q86 96 221 97q135 0 221 -97q89 -98 89 -254t-89 -254q-86 -96 -221 -96t-221 96q-88 98 -88 254zM262 1542l344 -448h232 l-291 448h-285z" />
<glyph unicode="&#xf3;" horiz-adv-x="1255" d="M18 483q0 -242 156 -409.5t393 -167.5q238 0 393.5 167.5t155.5 409.5t-155.5 410t-393.5 168t-393.5 -168t-155.5 -410zM258 483q0 156 88 254q86 96 221 97q135 0 221 -97q89 -98 89 -254t-89 -254q-86 -96 -221 -96t-221 96q-88 98 -88 254zM295 1094h231l344 448 h-284z" />
<glyph unicode="&#xf4;" horiz-adv-x="1255" d="M18 483q0 -242 156 -409.5t393 -167.5q238 0 393.5 167.5t155.5 409.5t-155.5 410t-393.5 168t-393.5 -168t-155.5 -410zM127 1081h235l203 189l207 -189h236l-353 428h-180zM258 483q0 156 88 254q86 96 221 97q135 0 221 -97q89 -98 89 -254t-89 -254q-86 -96 -221 -96 t-221 96q-88 98 -88 254z" />
<glyph unicode="&#xf5;" horiz-adv-x="1255" d="M18 483q0 -242 156 -409.5t393 -167.5q238 0 393.5 167.5t155.5 409.5t-155.5 410t-393.5 168t-393.5 -168t-155.5 -410zM145 1100h189q25 57 35 71.5t14 18.5q10 8 29 8q12 0 39.5 -9t72.5 -34q51 -27 99.5 -42t95.5 -15q41 0 78 15t67 44q16 14 31.5 34.5t30 49.5 t30 70t33.5 98h-192q-23 -59 -32 -72.5t-13 -15.5q-12 -10 -29 -10q-14 0 -42 9t-73 34q-49 27 -97 42t-95 15q-80 0 -146 -59q-35 -29 -61.5 -84.5t-63.5 -167.5zM258 483q0 156 88 254q86 96 221 97q135 0 221 -97q89 -98 89 -254t-89 -254q-86 -96 -221 -96t-221 96 q-88 98 -88 254z" />
<glyph unicode="&#xf6;" horiz-adv-x="1255" d="M18 483q0 -242 156 -409.5t393 -167.5q238 0 393.5 167.5t155.5 409.5t-155.5 410t-393.5 168t-393.5 -168t-155.5 -410zM258 483q0 156 88 254q86 96 221 97q135 0 221 -97q89 -98 89 -254t-89 -254q-86 -96 -221 -96t-221 96q-88 98 -88 254zM258 1122h262v262h-262 v-262zM612 1122h262v262h-262v-262z" />
<glyph unicode="&#xf7;" horiz-adv-x="1517" d="M80 545h1204v221h-1204v-221zM571 51h246v262h-246v-262zM571 942h246v262h-246v-262z" />
<glyph unicode="&#xf8;" horiz-adv-x="1255" d="M-18 -41l153 -129l137 160q63 -43 137 -63.5t158 -20.5q238 0 393.5 168t155.5 409q0 201 -108 353l147 172l-151 133l-142 -164q-63 43 -137 63.5t-158 20.5q-238 0 -393.5 -168t-155.5 -410q0 -201 109 -352zM258 483q0 156 88 254q86 96 221 97q43 0 78 -8.5t64 -24.5 l-420 -486q-31 70 -31 168zM424 166l422 483q31 -68 31 -166q0 -156 -89 -254q-86 -96 -221 -96q-84 0 -143 33z" />
<glyph unicode="&#xf9;" horiz-adv-x="1232" d="M-39 811h170v-584q0 -66 20.5 -123t65.5 -100q45 -45 102.5 -64.5t124.5 -19.5q123 0 234 49q20 10 38.5 20.5t37.5 20.5v-76h405v224h-168v876h-237v-157v-594q-53 -51 -133 -93q-86 -43 -158 -43q-94 0 -94 99v788h-408v-223zM252 1522l344 -449h231l-290 449h-285z " />
<glyph unicode="&#xfa;" horiz-adv-x="1232" d="M-39 811h170v-584q0 -66 20.5 -123t65.5 -100q45 -45 102.5 -64.5t124.5 -19.5q123 0 234 49q20 10 38.5 20.5t37.5 20.5v-76h405v224h-168v876h-237v-157v-594q-53 -51 -133 -93q-86 -43 -158 -43q-94 0 -94 99v788h-408v-223zM285 1073h231l344 449h-285z" />
<glyph unicode="&#xfb;" horiz-adv-x="1232" d="M-39 811h170v-584q0 -66 20.5 -123t65.5 -100q45 -45 102.5 -64.5t124.5 -19.5q123 0 234 49q20 10 38.5 20.5t37.5 20.5v-76h405v224h-168v876h-237v-157v-594q-53 -51 -133 -93q-86 -43 -158 -43q-94 0 -94 99v788h-408v-223zM106 1096h234l205 188l205 -188h237 l-352 428h-180z" />
<glyph unicode="&#xfc;" horiz-adv-x="1232" d="M-39 811h170v-584q0 -66 20.5 -123t65.5 -100q45 -45 102.5 -64.5t124.5 -19.5q123 0 234 49q20 10 38.5 20.5t37.5 20.5v-76h405v224h-168v876h-237v-157v-594q-53 -51 -133 -93q-86 -43 -158 -43q-94 0 -94 99v788h-408v-223zM248 1122h262v262h-262v-262zM602 1122 h262v262h-262v-262z" />
<glyph unicode="&#xfd;" horiz-adv-x="1206" d="M-61 811h182l321 -786l-186 -525h231l496 1311h168v223h-535v-223h125l-180 -477l-231 567l-51 133h-340v-223zM313 1032h232l344 449h-285z" />
<glyph unicode="&#xfe;" horiz-adv-x="1349" d="M-70 -276v-224h412l2 508q2 -2 14.5 -10t31 -20.5t30.5 -18.5q113 -53 231 -53q240 0 393 166q150 167 150 417q0 121 -37 222.5t-115 183.5q-154 166 -385 166q-119 0 -229 -55q-23 -10 -43 -24.5t-41 -31.5v506h-414v-223h176v-1509h-176zM340 487q0 162 88 256.5 t219 94.5q141 0 227 -97q91 -96 91 -258q0 -82 -22.5 -144.5t-65.5 -111.5q-84 -94 -224 -94q-133 0 -223 96q-43 47 -66.5 110.5t-23.5 147.5z" />
<glyph unicode="&#xff;" horiz-adv-x="1206" d="M-61 811h182l321 -786l-186 -525h231l496 1311h168v223h-535v-223h125l-180 -477l-231 567l-51 133h-340v-223zM236 1122h262v262h-262v-262zM590 1122h262v262h-262v-262z" />
<glyph unicode="&#x152;" horiz-adv-x="2392" d="M37 707q0 -178 54 -320.5t167 -247.5q111 -104 261.5 -154.5t336.5 -50.5h1243v224h-160h-661v442h577v223h-577v410h596v-246h223v469h-1263q-176 0 -320.5 -49t-255.5 -154q-113 -104 -167 -241.5t-54 -304.5zM283 684q0 141 37.5 241.5t109.5 168t179.5 103.5 t256.5 36h166v-1075h-172q-141 0 -246.5 35.5t-181.5 103.5q-72 66 -110.5 162t-38.5 225z" />
<glyph unicode="&#x153;" horiz-adv-x="2107" d="M14 483q0 -121 36 -222t112 -185q147 -170 373 -170q160 0 284 76q80 49 133 120q63 -80 142 -125q123 -72 284 -71q82 0 163 23.5t190 88.5l-115 195q-84 -55 -135 -72.5t-97 -17.5q-139 0 -227 98q-63 70 -86 174h827q-10 174 -46.5 288t-106.5 202q-141 176 -373 176 q-156 0 -285 -80q-82 -53 -135 -125q-51 70 -127 121q-131 84 -290 84q-225 0 -373 -170q-76 -84 -112 -185.5t-36 -222.5zM254 483q0 156 84 256q80 94 205 95q123 0 202 -95q84 -100 84 -256t-84 -256q-80 -94 -202 -94q-125 0 -205 94q-84 100 -84 256zM1083 618 q20 72 66 123q80 98 207 99q123 0 196 -78q59 -62 82 -144h-551z" />
<glyph unicode="&#x178;" horiz-adv-x="1372" d="M-104 1233h208l398 -625v-450h-193v-224h439v158v516l397 625h194v223h-587v-223h127l-244 -383l-324 514l-59 92h-356v-223zM311 1538h262v262h-262v-262zM666 1538h262v262h-262v-262z" />
<glyph unicode="&#x2c6;" horiz-adv-x="757" d="M-98 1040h235l203 189l207 -189h235l-352 428h-180z" />
<glyph unicode="&#x2dc;" horiz-adv-x="757" d="M-80 1100h189q25 57 35 71.5t14 18.5q10 8 28 8q12 0 40 -9t73 -34q51 -27 99 -42t96 -15q41 0 77.5 15t67.5 44q16 14 31.5 34.5t30 49.5t30 70t33.5 98h-193q-23 -59 -32 -72.5t-13 -15.5q-12 -10 -28 -10q-14 0 -42 9t-73 34q-49 27 -97 42t-96 15q-80 0 -145 -59 q-35 -29 -61.5 -84.5t-63.5 -167.5z" />
<glyph unicode="&#x2000;" horiz-adv-x="992" />
<glyph unicode="&#x2001;" horiz-adv-x="1985" />
<glyph unicode="&#x2002;" horiz-adv-x="992" />
<glyph unicode="&#x2003;" horiz-adv-x="1985" />
<glyph unicode="&#x2004;" horiz-adv-x="661" />
<glyph unicode="&#x2005;" horiz-adv-x="496" />
<glyph unicode="&#x2006;" horiz-adv-x="330" />
<glyph unicode="&#x2007;" horiz-adv-x="330" />
<glyph unicode="&#x2008;" horiz-adv-x="248" />
<glyph unicode="&#x2009;" horiz-adv-x="397" />
<glyph unicode="&#x200a;" horiz-adv-x="110" />
<glyph unicode="&#x2010;" horiz-adv-x="782" d="M4 449h692v223h-692v-223z" />
<glyph unicode="&#x2011;" horiz-adv-x="782" d="M4 449h692v223h-692v-223z" />
<glyph unicode="&#x2012;" horiz-adv-x="782" d="M4 449h692v223h-692v-223z" />
<glyph unicode="&#x2013;" horiz-adv-x="1136" d="M-66 393h1156v240h-1156v-240z" />
<glyph unicode="&#x2014;" horiz-adv-x="2273" d="M-66 393h2180v240h-2180v-240z" />
<glyph unicode="&#x2018;" d="M133 877h246v321h-49q4 47 8 57q0 2 2 11.5t8 19.5t17.5 18.5t31.5 8.5v147q-98 -6 -145 -28.5t-76 -67.5q-23 -41 -33 -92t-10 -111v-284z" />
<glyph unicode="&#x2019;" d="M115 872q98 6 145 29t76 68q23 41 33 92t10 110v285h-246v-321h49q-4 -47 -8 -58q0 -2 -2 -11t-8 -19.5t-17.5 -18.5t-31.5 -8v-148z" />
<glyph unicode="&#x201a;" d="M115 -180v-148q98 6 145 29t76 68q23 41 33 92t10 110v285h-246v-322h49q-4 -47 -8 -57q0 -2 -2 -11t-8 -19.5t-17.5 -18.5t-31.5 -8z" />
<glyph unicode="&#x201c;" horiz-adv-x="1089" d="M119 877h246v321h-50q4 47 9 57q0 2 2 11.5t8 19.5t17.5 18.5t31.5 8.5v147q-98 -6 -145.5 -28.5t-75.5 -67.5q-23 -41 -33 -92t-10 -111v-284zM598 877h246v321h-49q4 47 8 57q0 2 2 11.5t8 19.5t17.5 18.5t31.5 8.5v147q-98 -6 -145 -28.5t-76 -67.5q-23 -41 -33 -92 t-10 -111v-284z" />
<glyph unicode="&#x201d;" horiz-adv-x="1089" d="M119 872q98 6 145 29t76 68q23 41 33 92t10 110v285h-246v-321h49q-4 -47 -8 -58q0 -2 -2 -11t-8 -19.5t-17.5 -18.5t-31.5 -8v-148zM598 872q98 6 145.5 29t75.5 68q23 41 33 92t10 110v285h-246v-321h50q-4 -47 -9 -58q0 -2 -2 -11t-8 -19.5t-17.5 -18.5t-31.5 -8v-148 z" />
<glyph unicode="&#x201e;" horiz-adv-x="1089" d="M115 -180v-148q98 6 145 29t76 68q23 41 33 92t10 110v285h-246v-322h49q-4 -47 -8 -57q0 -2 -2 -11t-8 -19.5t-17.5 -18.5t-31.5 -8zM602 -180v-148q98 6 145.5 29t75.5 68q23 41 33 92t10 110v285h-245v-322h49q-4 -47 -8 -57q0 -2 -2.5 -11t-8.5 -19.5t-17 -18.5 t-32 -8z" />
<glyph unicode="&#x2022;" horiz-adv-x="751" d="M100 623q0 -96 68 -164t164 -68q94 0 162 68q65 70 65 164q0 96 -65 161q-68 68 -164 68q-98 0 -162 -68q-68 -66 -68 -161z" />
<glyph unicode="&#x2026;" horiz-adv-x="2273" d="M229 -66h246v263h-246v-263zM911 -66h246v263h-246v-263zM1593 -66h246v263h-246v-263z" />
<glyph unicode="&#x202f;" horiz-adv-x="397" />
<glyph unicode="&#x2039;" horiz-adv-x="520" d="M-45 489l354 -555h269l-353 555l353 555h-269z" />
<glyph unicode="&#x203a;" horiz-adv-x="520" d="M-109 -66h269l354 555l-354 555h-269l353 -555z" />
<glyph unicode="&#x205f;" horiz-adv-x="496" />
<glyph unicode="&#x2122;" horiz-adv-x="2131" d="M166 1237h274v-729h222v729h233v-729h225v373l115 -373h166l129 393v-393h221v948h-266l-164 -508l-156 508h-231h-39h-729v-219z" />
<glyph unicode="&#x25fc;" horiz-adv-x="1034" d="M0 0v1034h1034v-1034h-1034z" />
</font>
</defs>
</svg>
