<?xml version="1.0" encoding="utf-8"?>
<!-- Generator: Adobe Illustrator 24.0.2, SVG Export Plug-In . SVG Version: 6.00 Build 0)  -->
<svg version="1.1" xmlns="http://www.w3.org/2000/svg" xmlns:xlink="http://www.w3.org/1999/xlink" x="0px" y="0px"
	 viewBox="0 0 511.9 511.9" style="enable-background:new 0 0 511.9 511.9;" xml:space="preserve">
<style type="text/css">
	.st0{fill:#FFFFFF;stroke:#FFFFFF;stroke-miterlimit:10;}
</style>
<g id="Layer_1">
	<title>162-512</title>
	<path class="st0" d="M376,511.7H5.2c-2.5-0.5-4.5-2.5-5-5V85.9c0.6-3,3.2-5.1,6.3-5.2c2.6-0.1,5.2-0.4,7.7,0.4
		c2.5,1.7,0.5,3.1-0.5,4.4c-1.9,2.4-4.6,4.3-7,7.8c6.1-3.8,9-9.8,14.6-12.4c4.2-0.5,8.6-0.5,12.8,0.2c2.7,1.7,0.7,3.3-0.4,4.4
		c-3.7,3.8-7.1,7.8-11.4,11c-1.6,0.9-3.6,0.4-5.2,1.4c-1.2,1.4-0.6,3.4-1.4,4.9c-2.3,3.9-6.5,6.1-8.9,10.3c2.5-1,3.5-3.1,5.2-4.2
		c1.3-0.9,2.7-2.4,4,0.1c0.6,4.2,0.7,8.4,0.2,12.6c-1.7,4.7-6.7,6.8-9.4,11.8c2.5-1.4,3.6-3.3,5.3-4.4c1.3-0.9,2.7-2.5,4,0
		c0.6,4.2,0.7,8.4,0.2,12.6c-1.8,4.7-6.6,6.9-9.6,11.9c2.7-1.5,3.8-3.4,5.5-4.5c1.3-0.9,2.7-2.5,4,0c0.6,4.2,0.7,8.4,0.2,12.6
		c-1.8,4.7-6.6,6.9-9.6,11.9c2.7-1.5,3.8-3.4,5.5-4.5c1.3-0.9,2.7-2.5,4,0c0.6,4.2,0.7,8.4,0.2,12.6c-1.8,4.7-6.6,6.9-9.6,11.9
		c2.7-1.5,3.8-3.4,5.5-4.5c1.3-0.9,2.7-2.5,4,0c0.6,4.2,0.7,8.4,0.2,12.6c-1.8,4.7-6.6,6.9-9.6,11.9c2.7-1.5,3.8-3.4,5.5-4.5
		c1.3-0.9,2.7-2.5,4,0c0.6,4.2,0.7,8.4,0.2,12.6c-1.8,4.7-6.6,6.9-9.6,11.9c2.7-1.5,3.8-3.4,5.5-4.5c1.3-0.9,2.7-2.5,4,0
		c0.6,4.2,0.7,8.4,0.2,12.6c-1.7,4.7-6.7,6.8-9.4,11.8c2.5-1.4,3.6-3.3,5.3-4.4c1.3-0.9,2.7-2.5,4,0c0.6,4.2,0.7,8.4,0.2,12.6
		c-1.7,4.7-6.7,6.8-9.4,11.8c2.5-1.4,3.6-3.3,5.3-4.4c1.3-0.9,2.7-2.5,4,0c0.6,4.2,0.7,8.4,0.2,12.6c-1.7,4.7-6.7,6.8-9.4,11.8
		c2.5-1.4,3.6-3.3,5.3-4.4c1.3-0.9,2.7-2.5,4,0c0.6,4.2,0.7,8.4,0.2,12.6c-1.7,4.7-6.7,6.8-9.4,11.8c2.5-1.4,3.6-3.3,5.3-4.4
		c1.3-0.9,2.7-2.5,4,0c0.6,4.2,0.7,8.4,0.2,12.6c-1.7,4.7-6.7,6.8-9.4,11.8c2.5-1.4,3.6-3.3,5.3-4.4c1.3-0.9,2.7-2.5,4,0
		c0.6,4.2,0.7,8.4,0.2,12.6C14.7,346,9.7,348.1,7,353c2.5-1.4,3.6-3.3,5.3-4.4c1.3-0.9,2.7-2.5,4,0c0.6,4.2,0.7,8.4,0.2,12.6
		C14.7,366,9.7,368,7,373c2.5-1.4,3.6-3.3,5.3-4.4c1.3-0.9,2.7-2.5,4,0c0.6,4.2,0.7,8.4,0.2,12.6C14.7,386,9.7,388,7,393
		c2.5-1.4,3.6-3.3,5.3-4.4c1.3-0.9,2.7-2.5,4,0c0.6,4.2,0.7,8.4,0.2,12.6C14.7,405.9,9.7,408,7,413c2.5-1.4,3.6-3.3,5.3-4.4
		c1.3-0.9,2.7-2.5,4,0c0.6,4.2,0.7,8.4,0.2,12.6C14.7,425.9,9.7,428,7,433c2.5-1.4,3.6-3.3,5.3-4.4c1.3-0.9,2.7-2.5,4,0
		c0.6,4.2,0.7,8.4,0.2,12.6c-1.7,4.7-6.7,6.8-9.4,11.8c2.5-1.4,3.6-3.3,5.3-4.4c1.3-0.9,2.7-2.5,4,0c0.6,4.2,0.7,8.4,0.2,12.6
		c-1.8,4.7-6.6,6.9-9.6,11.9c2.7-1.5,3.8-3.4,5.5-4.5c1.3-0.9,2.7-2.5,4,0c0.6,4.2,0.7,8.4,0.2,12.6c-1.7,4.7-6.8,6.9-9.3,11.4
		c3.6-1,4.3-6,8.7-4.9c1.3,2,0.3,4.5,1.4,6.5c0.8,1.1,2.3,1.1,3.2,2.1c0.1,4.4-4.7,5.5-6.4,9.4c5.1-2.8,7.4-8.2,12.5-10.2
		c4.2-0.5,8.4-0.5,12.6,0.1c2.6,1.1,1.3,2.6,0.3,3.9c-1.5,2.1-3.7,3.6-5.9,6.6c5.6-3.1,8-8.5,13-10.5c4.2-0.5,8.4-0.5,12.6,0.1
		c2.6,1.1,1.3,2.6,0.3,3.9c-1.5,2.1-3.7,3.6-5.9,6.6c5.6-3.1,8-8.5,13-10.5c4.2-0.5,8.4-0.5,12.6,0.1c2.6,1.1,1.3,2.6,0.3,3.9
		c-1.5,2.1-3.7,3.6-5.9,6.6c5.6-3.1,8-8.5,13-10.5c4.2-0.5,8.4-0.5,12.6,0.1c2.6,1.1,1.3,2.6,0.3,3.9c-1.5,2.1-3.7,3.6-5.9,6.6
		c5.6-3.1,8-8.5,13-10.5c4.2-0.5,8.4-0.5,12.6,0.1c2.6,1.1,1.3,2.6,0.3,3.9c-1.5,2.1-3.7,3.6-5.9,6.6c5.6-3.1,8-8.5,13-10.5
		c4.2-0.5,8.4-0.5,12.6,0.1c2.6,1.1,1.3,2.6,0.3,3.9c-1.5,2.1-3.7,3.6-5.9,6.6c5.6-3.1,8-8.5,13-10.5c4.2-0.5,8.4-0.5,12.6,0.1
		c2.6,1.1,1.3,2.6,0.3,3.9c-1.5,2.1-3.7,3.6-5.9,6.6c5.6-3.1,8-8.5,13-10.5c4.2-0.5,8.4-0.5,12.6,0.1c2.6,1.1,1.3,2.6,0.3,3.9
		c-1.5,2.1-3.7,3.6-5.9,6.6c5.6-3.1,8-8.5,13-10.5c4.2-0.5,8.4-0.5,12.6,0.1c2.6,1.1,1.3,2.6,0.3,3.9c-1.5,2.1-3.7,3.6-5.9,6.6
		c5.6-3.1,8-8.5,13-10.5c4.2-0.5,8.4-0.5,12.6,0.1c2.6,1.1,1.3,2.6,0.3,3.9c-1.5,2.1-3.7,3.6-5.9,6.6c5.6-3.1,8-8.5,13-10.5
		c4.2-0.5,8.4-0.5,12.6,0.1c2.6,1.1,1.3,2.6,0.3,3.9c-1.5,2.1-3.7,3.6-5.9,6.6c5.6-3.1,8-8.5,13-10.5c4.2-0.5,8.4-0.5,12.6,0.1
		c2.6,1.1,1.3,2.6,0.3,3.9c-1.5,2-3.7,3.6-5.1,5.8c4.8-2.4,7.1-7.7,12.2-9.8c4.2-0.5,8.4-0.5,12.6,0.1c2.6,1.1,1.3,2.6,0.3,3.9
		c-1.6,2-3.7,3.6-5.1,5.8c4.8-2.4,7.1-7.7,12.2-9.8c4.2-0.5,8.4-0.5,12.6,0.1c2.6,1.1,1.3,2.6,0.3,3.9c-1.5,2.1-3.7,3.6-5.9,6.6
		c5.6-3.1,8-8.5,13-10.5c4.2-0.5,8.4-0.5,12.6,0.1c2.6,1.1,1.3,2.6,0.3,3.9c-1.5,2.1-3.7,3.6-5.9,6.6c5.6-3.1,8-8.5,13-10.5
		c4.2-0.5,8.4-0.5,12.6,0.1c2.6,1.1,1.3,2.6,0.3,3.9c-1.5,2.1-3.7,3.6-5.9,6.6c5.6-3.1,8-8.4,13-10.5c4.2-0.5,8.4-0.5,12.5,0
		c2.6,1,1.4,2.5,0.4,3.9c-1.5,2.1-3.9,3.6-5,6.1c3.6-2.5,6.5-5.8,9.6-8.9c0.3-0.3,0.6-0.7,1-1s0.6-0.7,1-1c3.1-2.9,6-6,9-8.9
		c1.3-1.2,2.4-2.7,4.4-2.8c0.5,0.1,0.9,0.3,1.3,0.6c0.4,0.6,0.7,1.3,0.7,2c0.9,8,0.1,15.3-8.2,19.5c1.2,1,1.6,0.4,2,0.1
		c0.4-0.3,0.8-0.6,1.1-0.9c3.9-2.9,4.4-2.7,5.1,2.4C380.8,509.9,378.4,510.7,376,511.7z"/>
	<path class="st0" d="M511.9,394.7c-2,2.5-4.7,4.2-7.8,5.1c-2.3-1.8-4.2-1.9-6.1,0.8c-1.8,2.5-4.4,4.4-6.4,6.9
		c-2.4,2.5-5.6,3.2-8.7,4.2l-21.9,11c-1.9,0.5-1.4-0.8-1.1-1.6c0.7-1.7,2.2-2.9,3.5-4.2c9.7-9.9,19.8-19.5,29.3-29.6
		c0.8-0.8,1.6-1.6,2.5-2.3l1.5-1.4c3-3.2,6.5-6,9.6-10.3c-3.2,1.6-4.4,3.9-6.4,5.3c-1.3,0.9-2.7,2.5-4-0.1
		c-0.6-4.2-0.6-8.4-0.2-12.6c2.1-5,7.3-7.5,9.9-12.2c-2.3,1.2-3.7,3.4-5.7,4.9c-1.2,0.9-2.7,2.5-4-0.1c-0.6-4.2-0.7-8.4-0.2-12.6
		c2-5.1,7.4-7.4,10.6-13c-3,2-4.4,4.2-6.5,5.7c-1.2,0.9-2.7,2.5-4-0.1c-0.6-4.2-0.7-8.4-0.2-12.6c2-5.1,7.4-7.4,10.6-13
		c-3,2-4.4,4.2-6.5,5.7c-1.2,0.9-2.7,2.5-4-0.1c-0.6-4.2-0.7-8.4-0.2-12.6c2-5.1,7.4-7.4,10.6-13c-3,2-4.4,4.2-6.5,5.7
		c-1.2,0.9-2.7,2.5-4-0.1c-0.6-4.2-0.7-8.4-0.2-12.6c2-5.1,7.4-7.5,10.6-13c-2.6,1.6-3.8,3.4-5.3,4.6c-1.3,1-2.3,3.1-4.5,1.9
		c-2-2.7,0.5-6.4-2.1-8.9c-0.4-0.2-0.8-0.4-1.2-0.7c-1.2-1.7,0.1-2.8,1-3.8c4.2-4.1,8-8.7,12.7-12.2c1.6-0.5,3.2-1.6,4.9-0.3
		L511.9,394.7z"/>
	<path class="st0" d="M101.1,80.9c4.5-8.6,11.3-15.2,18.1-21.9c4.1-3.8,8.7-7.1,13.6-9.8c1.8-1,3.4-2.1,3.7-4.3
		c7.9-9.2,17-17.3,25.5-26c3.3-3.5,6.8-6.8,9.9-10.5c-1.9,0.4-3,1.9-4.2,3.1c-7.9,7.9-15.8,15.8-23.7,23.6c-1.4,1.4-2.5,3.8-5.3,2.7
		c5.6-19.1,18.9-30.1,37.4-35.9c2-0.6,4.3-0.3,5.9-2h16c4.5,2.1,10.1,1.1,14,4.9c0.8,1.7-0.7,2.6-1.5,3.7c-2.9,2.6-5.3,5.8-8.6,8.1
		c-0.7,0.3-1.4,0.4-2.1,0.4c-1.6-0.2-3.3-0.6-4.8-1.2c-9.3-1.8-6.7-2.3-3.1-7.9c-3.4,2-5.7,5.3-8.7,7.8c-1.5,1.2-3.5,1.4-5.3,2.1
		c-13.1,4.6-21.9,13.2-25,27.1c-0.3,0.9-0.8,1.8-1.4,2.5c-17.5,17.7-35.1,35.3-52.7,52.8c-1.3,1.3-2.6,4.4-5.4,1.8
		c-0.2-0.6-0.2-1.3-0.1-2c0.3-1.5,0.1-2.6-1.8-2.7c-1.4-0.1-2.9,0-4.3-0.9c-1.3-2,0.4-3.1,1.4-4.1c3.4-3.5,6.7-7.2,10.6-10.3
		C100,81.7,100.6,81.4,101.1,80.9z"/>
	<path class="st0" d="M511.9,253.8l-5,1c-1.8,0.3-3.5,0.5-4.9,2c-6.7,7-13.9,13.5-20.4,20.7c-2.3,2.4-5.6,3.2-8.3,5
		s-6.2,2.7-8.6,5.3c-1.2,2.1-0.2,4.6-1.2,6.8c-3.5,4.9-8.1,8.7-12.4,12.9c-1,1-2.5,2.7-4.1,0.4c-0.9-4.3-0.6-8.6-0.3-12.9
		c0.6-2.4,2.5-3.8,4.1-5.5c10.3-10.5,20.9-20.5,30.9-31.2c1.5-1.8,3.6-2.7,5.3-4.3c3.3-3.9,6.5-7.8,10.7-10.7c0.7-0.2,1.5,0,2,0.5
		c4,2.6,8.4,4.7,12,8L511.9,253.8z"/>
	<path class="st0" d="M0.2,506.7c1.3,2,3,3.7,5,5C1,512.6-0.7,510.9,0.2,506.7z"/>
	<path class="st0" d="M443.9,213.9l2.1,1.8c0.6,2.6-1.6,3.7-3,5.1c-1.9,2-3.8,4-5.7,6c-0.4,0.3-0.8,0.4-1.3,0.4
		c-1.5-0.4-3-1-4.5-1.8c-3.1-1.5-5.8-3.5-8.9-4.9c-1.2-0.7-2.5-1.3-3.1-2.7c2-5.1,6-8.2,10.4-11.1l1-0.1c1.4,0.5,2,2.8,4,2
		L443.9,213.9z"/>
	<path class="st0" d="M270.2,67.9l2.9,2c1.7,2.5,4.1,4.6,5.1,7.6c0.7,1.2,0.5,2.7-0.5,3.7c-3.2,3.3-5.9,7.2-10.2,9.3
		c-0.5,0-1,0-1.4-0.2c-2.3-2.4-3.5-5.6-5.8-8c-0.8-1-1.2-2.2-1.2-3.4C261.3,73.7,264.5,69.5,270.2,67.9z"/>
	<path class="st0" d="M430,206.8l-10,11c-0.3,0.3-0.8,0.5-1.2,0.5c-3.2-1.2-5.9-3.4-9.1-4.7c-1.1-0.5-2-1.4-2.4-2.6
		c1.2-5.5,5.5-8.3,9.7-11.1l0.9-0.2l4,2.1C424.8,203.1,428,203.9,430,206.8z"/>
	<path class="st0" d="M380,178.9c0.7,1.2,1.9,1.3,3,1.8c2.9,0.8,5.6,2.2,8,4.1c0.8,0.9,0.7,2.3-0.2,3.1c0,0,0,0,0,0
		c-2.9,3.2-5.5,6.7-9.5,8.6c-0.7,0.2-1.5,0.1-2.2,0c-2.9-1.2-5.6-2.6-8.3-4.1c-1-0.7-1.9-1.6-2.3-2.8c1.4-5.2,5.4-9.4,10.6-10.9
		C379.4,178.9,379.7,178.9,380,178.9z"/>
	<path class="st0" d="M497.9,244l-10.2,10.9c-4.7-1.3-9.1-3-12.5-6.8c1-6,5.8-8.7,10.2-11.8c0.5,0,1,0.2,1.4,0.4
		c2.4,1.8,5,3.2,7.8,4.2C496.1,241.6,497.8,242,497.9,244z"/>
	<path class="st0" d="M379.4,83.8h0.6l1.1,3c0.7,3,0.1,6,0.3,9.1c-2.6,6.3-8.1,9.9-12.9,14.1c-0.6,0.5-1.5,0.4-2-0.2
		c-0.1-0.1-0.1-0.2-0.2-0.3c-1.5-3.8-0.3-7.9-0.9-11.8c-0.1-0.5-0.1-1,0-1.5c2.9-4.7,7.3-8,11.1-11.8
		C377.3,83.6,378.4,83.3,379.4,83.8z"/>
	<path class="st0" d="M379.1,178.8c-3.8,3.3-8,6.1-10.1,11c-0.9,0.6-1.8,0.2-2.7,0c-2.5-1.4-4.9-0.9-7.4,0.4c-2.3,1.1-4.4,3-7.2,2.3
		c-2.1-1.7-0.3-3,0.7-4.1c4.3-4.6,8.8-9,13.3-13.3c1.5-1.5,3.2-2.4,5.3-1.1C373.9,175.2,377,176.1,379.1,178.8z"/>
	<path class="st0" d="M246.1,48.9l0.9,1.1c-1.8,5.8-6.9,8.6-10.9,12.4c-0.5,0.1-1,0.2-1.5,0.2c-3.9-1-5.9-3.6-6.6-7.4
		c0-0.7,0.1-1.5,0.4-2.2c3.3-4.5,7.6-8.1,11.5-12c1.1-1,2.6-2.5,4-0.1C245.5,43.4,244,46.7,246.1,48.9z"/>
	<path class="st0" d="M238,26c2.1,2.3,2.8,5.4,4.3,8c0.2,0.4,0.4,0.9,0.4,1.4c-3.7,5.2-7.4,10.4-13.7,12.8c-0.8-0.6-1.4-1.4-1.7-2.4
		c-0.6-2.6-1.6-5.1-2.1-7.7c-0.1-0.7,0-1.5,0.3-2.2c2.3-3.4,5.4-6,8.3-8.8C234.9,26.1,236.1,24.6,238,26z"/>
	<path class="st0" d="M210.1,8l2-3.1c4.8,1,8.8,3.6,12.9,6.1c0.3,0.4,0.5,0.8,0.6,1.3c-2.8,4.6-5.9,8.9-11.5,10.5
		c-2.8-0.6-5.4-2-7.5-4c-1.6-2.3-0.4-4.1,1.3-5.6C209.3,11.9,210.2,10,210.1,8z"/>
	<path class="st0" d="M250.2,51.7c0.3,0,0.6,0,0.9,0l8,5.6c1.2,1.7-0.1,2.8-1,3.8c-2.8,2.9-5.4,6.1-8.8,8.4c-0.5,0.2-1,0.2-1.5,0.2
		c-3-1.4-6.5-2.4-8.4-5.5C240.8,58,245.7,55.1,250.2,51.7z"/>
	<path class="st0" d="M394.1,186.4c0.8,0.1,0.7,1.6,1.9,1.1c2.9,1.1,5.6,2.5,8,4.4c0.8,0.9,0.7,2.3-0.2,3.1c0,0-0.1,0-0.1,0.1
		c-2.9,3.2-5.5,6.7-9.5,8.6c-0.7,0.2-1.5,0.1-2.2-0.1c-2.9-1.2-5.6-2.6-8.3-4.3c-0.3-0.4-0.6-0.8-0.8-1.2c-0.3-1-0.6-2.2,0.4-2.6
		C388.1,193.7,390.6,189.5,394.1,186.4z"/>
	<path class="st0" d="M270.2,67.9c-3.8,3.4-8.3,6.2-10.2,11.3c-0.9,0.1-1.9-0.2-2.5-0.9c-2-2.2-4.6-3.9-5.9-6.7
		c1.6-5.7,6.3-8.7,10.7-11.9c0.3,0.1,0.6,0.1,0.9,0.1l6.8,6.2L270.2,67.9z"/>
	<path class="st0" d="M229.1,15c2.6,1.4,3.9,4.2,6.1,6c0.3,0.4,0.5,0.8,0.5,1.3c-2.7,4.7-6.6,8.6-11.3,11.3c-0.5,0-0.9-0.1-1.4-0.3
		c-2.1-2.2-3.9-4.6-5.4-7.3c-0.1-0.5-0.2-1-0.1-1.4c1.9-4,5.4-6.5,8.5-9.3C226.7,14.3,228.1,14.2,229.1,15C229,14.9,229,15,229.1,15
		z"/>
	<path class="st0" d="M417,199.7c-2.3,4.4-7.7,6.2-9.1,11.3c-0.6,0.5-1.4,0.6-2.1,0.3c-2.8-1.9-6.4-2.6-8.4-5.7
		c1.2-5.2,7.2-10.8,11.7-10.9C412,196,415.2,196.9,417,199.7z"/>
	<path class="st0" d="M469,226.8c0.1,0.2,0.1,0.4,0.1,0.6c-1.5,5.9-5.8,9.1-11.1,11.3c-3.5-0.5-6.5-1.8-8.5-4.9
		c0.7-4.6,5.9-10.1,10.8-11.3c0.2,0,0.5-0.1,0.7-0.1L469,226.8z"/>
	<path class="st0" d="M473.1,229.8c0.3,0,0.6-0.1,0.8-0.1l7.9,4.2c0.4,0.3,0.6,0.8,0.6,1.3c-2.9,4.7-6.1,9-11.8,10.6
		c-3.3-0.7-6.4-1.7-8.4-4.7C463.8,235.3,467.5,231.6,473.1,229.8z"/>
	<path class="st0" d="M437,226.8c1.5-4.9,6.8-6.7,9.1-11l2.9,0.1l6,3.9c1.1,0.7,1.7,1.8,0.8,2.9c-3.1,3.6-5.7,8-10.9,9.2
		C441.5,231.2,438.6,230,437,226.8z"/>
	<path class="st0" d="M371,173.9c-1.5-0.1-3,0.4-4,1.5c-4.8,4.8-9.6,9.6-14.4,14.4c-0.7,0.6-1.7,1.4-0.2,2.3
		c-1.8,4.4-6.5,4.6-9.8,6.8c-1.1,0.5-2.3,0.9-3.5,0.3c-0.9-1.5,0.2-2.6,1.1-3.5c8.5-8.4,16.4-17.3,25.5-25c0.5-0.2,1,0,1.3,0.3
		c0.8,0.9,1.9,1.6,3,1.8L371,173.9z"/>
	<path class="st0" d="M380.9,154.7l-3.9,3.2c-3.4,2.2-6.4,1.6-9.1-1.2c-0.3-0.5-0.5-1-0.6-1.5c2.4-5.9,7.5-9.4,12.1-13.2
		c0.9-0.7,1.9-0.4,2,1c-0.2,3.3,0.4,6.7-0.4,10L380.9,154.7z"/>
	<path class="st0" d="M242.1,34.9L244,39l-0.1,1.9c-2.1-1.3-2.9,0.7-4,1.7c-3.6,3.4-7.1,6.9-10.7,10.3c-1.6-1.6-1.6-3.3-0.1-5
		C233.9,44,238.2,39.7,242.1,34.9z"/>
	<path class="st0" d="M281,81.1c0,0.3,0,0.6,0.1,0.9c-3.1,5-7.4,9.2-12.5,12.3c-1.8-1-2.7-2.3-1.5-4.3c4.1-3.8,9-6.9,11.1-12.4
		c0.3,0.1,0.6,0.2,0.9,0.4L281,81.1z"/>
	<path class="st0" d="M409.2,194.8c-5,2.3-8.5,6.2-11.2,10.8c-0.2,0.4-0.7,0.6-1.1,0.6c-1.6-0.5-3.1-1.2-3.3-3.1
		c4-3.3,8.3-6.2,10.4-11.2h1.1c1.1,1.1,2.4,1.8,3.9,2.1C409,194.2,409.1,194.5,409.2,194.8z"/>
	<path class="st0" d="M235.1,21.8L238,25c0,0.3,0,0.6,0,0.9c-3.8,0.9-5.4,4.6-8.2,6.7c-1.4,1.1-2.4,2.8-4.1,3.4
		c-1.6-0.5-2.3-1.5-1.6-3.1C228.2,29.7,231.9,26,235.1,21.8z"/>
	<path class="st0" d="M444.8,230.9c4.6-2.6,9.1-5.3,10.2-11.1l1.6,0.2l3.6,2.7c-3.9,3.2-8.1,6.2-10.3,11c-0.3,0.3-0.7,0.5-1.1,0.4
		c-1.5-0.4-2.9-1.1-4-2.1C444.6,231.7,444.6,231.3,444.8,230.9z"/>
	<path class="st0" d="M262.2,59.7c-2.5,4.7-8.1,6.9-10.1,12c-0.2,0.4-0.6,0.6-1,0.6c-1.3-0.6-2.2-1.4-2.1-3c2.5-4.7,8.1-6.9,10.1-12
		c0.2,0,0.4-0.1,0.7-0.1L262.2,59.7z"/>
	<path class="st0" d="M229.1,15c-4.9,2.1-7.8,6.4-11.1,10.3c-1.6,0.2-3.2-0.6-4.1-2c-0.2-0.4-0.1-0.9,0.1-1.3c5-2,7.8-6.4,11.2-10.3
		c1.8,0,3.3,0.5,3.8,2.4C229,14.5,229,14.7,229.1,15z"/>
	<path class="st0" d="M394.1,186.4c-1.5,4.5-4.7,7.5-8.9,9.3c-1.5,0.6-1.8,1-1.3,2.3c-2,0.8-2.9-0.1-3.3-2
		c3.9-3.3,8.3-6.2,10.4-11.2l1.9,0.4L394.1,186.4z"/>
	<path class="st0" d="M377,481.4c1.1,0.3,1.9,1.1,2.2,2.2l-13,12.1c-2.5-2.9-1.2-6.4-1.5-9.7C366.7,479.2,371.5,477.4,377,481.4z"/>
	<path class="st0" d="M87.2,95.9h5c3.1,0,3.9,1.3,2.2,4c-2.9-1.9-6.2-1.7-9.5-1.6c-1.7-0.1-3.4,0.2-5,0c-4.8,0.1-9.6,0.1-14.3,0.1
		c-1.8-0.2-3.6,0.1-5.4,0c-4.8,0-9.7,0.1-14.5,0.1c-1.8-0.3-3.6,0.1-5.4-0.1c-4.8,0-9.6,0.1-14.4,0c-1.8-0.2-3.5,0-5.3-0.1
		c-1.5,0-2.9-0.4-4.2-1.3l0.2-0.2l-0.1-0.3c1.8-1.3,3.9-0.4,5.9-0.7c1.5-1,3.4-1.5,5.2-1.4c4.8-0.1,9.7-0.1,14.5-0.1
		c1.8,0.2,3.6-0.1,5.4,0c4.8,0,9.7-0.1,14.5,0c1.8,0.2,3.6-0.1,5.4,0c4.9,0,9.7-0.1,14.6,0C83.8,94.7,85.8,94.3,87.2,95.9z"/>
	<path class="st0" d="M27.2,95.9h-5l13-13.8h5C37.7,88.5,32.3,92,27.2,95.9z"/>
	<path class="st0" d="M15.2,82.1h5C16.4,86,12.6,90,8.8,93.9c-0.7,0.7-1.4,2.3-2.8,1.1s-0.7-2.4,0.3-3.5
		C9.2,88.3,12.2,85.2,15.2,82.1z"/>
	<path class="st0" d="M380.1,485.4c1.8,3.3,0.2,6.9,1,10.3c1.5,1.7,0.8,3.3,0,5c-0.6,2,0.6,4.3-1.1,6.2l-0.3-3.5
		c-3.5,0.7-4.6,6.4-10.1,3.6C377.9,501.6,381.7,494.6,380.1,485.4z"/>
	<path class="st0" d="M280,496.8h5c-3.1,3.2-6.2,6.4-9.3,9.6c-1.1,1.1-2.7,2-3.9,0.7s0.6-2.2,1.4-3.1
		C275.5,501.6,277.8,499.2,280,496.8z"/>
	<path class="st0" d="M320,496.8h5c-3.1,3.2-6.1,6.4-9.3,9.6c-1.1,1.1-2.7,2-3.9,0.7s0.6-2.2,1.4-3.1
		C315.4,501.6,317.7,499.2,320,496.8z"/>
	<path class="st0" d="M140.1,496.8h5c-3.1,3.2-6.2,6.4-9.3,9.6c-1.1,1.1-2.7,2-3.9,0.7s0.6-2.2,1.4-3.1
		C135.5,501.6,137.8,499.2,140.1,496.8z"/>
	<path class="st0" d="M340,496.8h5c-3.1,3.2-6.1,6.4-9.3,9.6c-1.1,1.1-2.7,2-3.9,0.7s0.6-2.2,1.4-3.1
		C335.4,501.6,337.7,499.2,340,496.8z"/>
	<path class="st0" d="M20.2,496.8h5c-3.1,3.2-6.2,6.4-9.3,9.6c-1.1,1.1-2.7,2-3.9,0.7s0.6-2.2,1.4-3.1
		C15.6,501.6,17.9,499.2,20.2,496.8z"/>
	<path class="st0" d="M80.1,496.8h5c-3.1,3.2-6.2,6.4-9.3,9.6c-1.1,1.1-2.7,2-3.9,0.7s0.6-2.2,1.4-3.1
		C75.6,501.6,77.9,499.2,80.1,496.8z"/>
	<path class="st0" d="M200.1,496.8h5c-3.1,3.2-6.1,6.4-9.3,9.6c-1.1,1.1-2.7,2-3.9,0.7s0.6-2.2,1.4-3.1
		C195.5,501.6,197.8,499.2,200.1,496.8z"/>
	<path class="st0" d="M40.2,496.8h5c-3.1,3.2-6.2,6.4-9.3,9.6c-1.1,1.1-2.7,2-3.9,0.7s0.6-2.2,1.4-3.1
		C35.6,501.6,37.9,499.2,40.2,496.8z"/>
	<path class="st0" d="M220.1,496.8h5c-3.1,3.2-6.2,6.4-9.3,9.6c-1.1,1.1-2.7,2-3.9,0.7s0.6-2.2,1.4-3.1
		C215.5,501.6,217.8,499.2,220.1,496.8z"/>
	<path class="st0" d="M100.1,496.8h5c-3.1,3.2-6.1,6.4-9.3,9.6c-1.1,1.1-2.7,2-3.9,0.7s0.6-2.2,1.4-3.1
		C95.6,501.6,97.9,499.2,100.1,496.8z"/>
	<path class="st0" d="M120.1,496.8h5c-3.1,3.2-6.1,6.4-9.3,9.6c-1.1,1.1-2.7,2-3.9,0.7s0.6-2.2,1.4-3.1
		C115.6,501.6,117.9,499.2,120.1,496.8z"/>
	<path class="st0" d="M260,496.8h5c-3.1,3.2-6.1,6.4-9.3,9.6c-1.1,1.1-2.7,2-3.9,0.7s0.6-2.2,1.4-3.1
		C255.5,501.6,257.8,499.2,260,496.8z"/>
	<path class="st0" d="M240,496.8h5c-3.1,3.2-6.1,6.4-9.3,9.6c-1.1,1.1-2.7,2-3.9,0.7s0.6-2.2,1.4-3.1
		C235.5,501.6,237.8,499.2,240,496.8z"/>
	<path class="st0" d="M300,496.8h5c-3.1,3.2-6.1,6.4-9.3,9.6c-1.1,1.1-2.7,2-3.9,0.7s0.6-2.2,1.4-3.1
		C295.4,501.6,297.7,499.2,300,496.8z"/>
	<path class="st0" d="M180.1,496.8h5c-3.1,3.2-6.1,6.4-9.3,9.6c-1.1,1.1-2.7,2-3.9,0.7s0.6-2.2,1.4-3.1
		C175.5,501.6,177.8,499.2,180.1,496.8z"/>
	<path class="st0" d="M360,496.8l5-0.2c-2.9,3.1-5.9,6.2-8.9,9.3c-1.2,1.3-2.9,2.5-4.3,1.1c-1.5-1.6,0.8-2.5,1.7-3.4
		C355.6,501.3,357.8,499.1,360,496.8z"/>
	<path class="st0" d="M160.1,496.8h5c-3.1,3.2-6.1,6.4-9.3,9.6c-1.1,1.1-2.7,2-3.9,0.7s0.6-2.2,1.4-3.1
		C155.5,501.6,157.8,499.2,160.1,496.8z"/>
	<path class="st0" d="M60.2,496.8h5c-3.1,3.2-6.2,6.4-9.3,9.6c-1.1,1.1-2.7,2-3.9,0.7s0.6-2.2,1.4-3.1
		C55.6,501.6,57.9,499.2,60.2,496.8z"/>
	<path class="st0" d="M15.1,462.7v5c-2,1.9-4,3.9-6.2,5.8c-0.9,0.8-1.7,2.7-3.1,1.4s-0.4-2.8,0.7-3.9
		C9.3,468.2,12.2,465.5,15.1,462.7z"/>
	<path class="st0" d="M15.1,282.8v5c-2,1.9-4,3.9-6.2,5.7c-0.9,0.8-1.7,2.7-3.1,1.4s-0.4-2.8,0.7-3.9
		C9.3,288.3,12.2,285.6,15.1,282.8z"/>
	<path class="st0" d="M15.1,382.8v5c-2,1.9-4,3.9-6.2,5.8c-0.9,0.8-1.7,2.7-3.1,1.4s-0.4-2.8,0.7-3.9
		C9.3,388.2,12.2,385.5,15.1,382.8z"/>
	<path class="st0" d="M15.1,222.9v5c-2,1.9-4,3.9-6.2,5.7c-0.9,0.8-1.7,2.7-3.1,1.4s-0.4-2.8,0.7-3.9
		C9.3,228.4,12.2,225.6,15.1,222.9z"/>
	<path class="st0" d="M15.1,202.9v5c-2,1.9-4,3.9-6.2,5.7c-0.9,0.8-1.7,2.7-3.1,1.4s-0.4-2.8,0.7-3.9
		C9.3,208.4,12.2,205.6,15.1,202.9z"/>
	<path class="st0" d="M15.1,142.9v5c-2.1,2-4.1,3.9-6.2,5.8c-0.9,0.8-1.7,2.7-3.1,1.4s-0.4-2.8,0.7-3.9
		C9.3,148.4,12.2,145.7,15.1,142.9z"/>
	<path class="st0" d="M15.1,322.8v5c-2,1.9-4,3.9-6.2,5.8c-0.9,0.8-1.7,2.7-3.1,1.4s-0.4-2.8,0.7-3.9
		C9.3,328.3,12.2,325.6,15.1,322.8z"/>
	<path class="st0" d="M15.1,162.9v5c-2.1,2-4.1,3.9-6.2,5.8c-0.9,0.8-1.7,2.7-3.1,1.4s-0.4-2.8,0.7-3.9
		C9.3,168.4,12.2,165.7,15.1,162.9z"/>
	<path class="st0" d="M15.1,102.9v5c-2.1,1.9-4.1,3.9-6.2,5.8c-0.9,0.8-1.7,2.7-3.1,1.4s-0.4-2.8,0.7-3.9
		C9.3,108.4,12.2,105.7,15.1,102.9z"/>
	<path class="st0" d="M15.1,422.7v5c-2.1,1.9-4.1,3.9-6.2,5.8c-0.9,0.8-1.7,2.7-3.1,1.4s-0.4-2.8,0.7-3.9
		C9.3,428.2,12.2,425.5,15.1,422.7z"/>
	<path class="st0" d="M15.1,482.7c0,1.7,0,3.3,0,5c-2,1.9-4,3.9-6.2,5.7c-0.9,0.8-1.7,2.7-3.1,1.4s-0.4-2.8,0.7-3.9
		C9.3,488.2,12.2,485.5,15.1,482.7z"/>
	<path class="st0" d="M15.1,402.8v5c-2,1.9-4,3.9-6.2,5.7c-0.9,0.8-1.7,2.7-3.1,1.4s-0.4-2.8,0.7-3.9
		C9.3,408.2,12.2,405.5,15.1,402.8z"/>
	<path class="st0" d="M15.1,442.7v5c-2,1.9-4,3.9-6.2,5.8c-0.9,0.8-1.7,2.7-3.1,1.4s-0.4-2.8,0.7-3.9
		C9.3,448.2,12.2,445.5,15.1,442.7z"/>
	<path class="st0" d="M15.1,122.9c0,1.7,0,3.3,0,5c-2.1,2-4.1,4-6.2,5.8c-0.9,0.8-1.7,2.7-3.1,1.4s-0.4-2.8,0.7-3.9
		C9.3,128.4,12.2,125.7,15.1,122.9z"/>
	<path class="st0" d="M15.1,342.8v5c-2.1,1.9-4.1,3.9-6.2,5.8c-0.9,0.8-1.7,2.7-3.1,1.4s-0.4-2.8,0.7-3.9
		C9.3,348.3,12.2,345.5,15.1,342.8z"/>
	<path class="st0" d="M15.1,362.8v5c-2,1.9-4,3.9-6.2,5.7c-0.9,0.8-1.7,2.7-3.1,1.4s-0.4-2.8,0.7-3.9
		C9.3,368.3,12.2,365.5,15.1,362.8z"/>
	<path class="st0" d="M15.1,242.9v5c-2,1.9-4,3.9-6.2,5.8c-0.9,0.8-1.7,2.7-3.1,1.4s-0.4-2.8,0.7-3.9
		C9.3,248.3,12.2,245.6,15.1,242.9z"/>
	<path class="st0" d="M15.1,262.9v5c-2,1.9-4,3.9-6.2,5.7c-0.9,0.8-1.7,2.7-3.1,1.4s-0.4-2.8,0.7-3.9
		C9.3,268.3,12.2,265.6,15.1,262.9z"/>
	<path class="st0" d="M15.1,302.8v5c-2,1.9-4,3.9-6.2,5.8c-0.9,0.8-1.7,2.7-3.1,1.4s-0.4-2.8,0.7-3.9
		C9.3,308.3,12.2,305.6,15.1,302.8z"/>
	<path class="st0" d="M15.1,182.9v5c-2,1.9-4,3.9-6.2,5.8c-0.9,0.8-1.7,2.7-3.1,1.4s-0.4-2.8,0.7-3.9
		C9.3,188.4,12.2,185.6,15.1,182.9z"/>
	<path class="st0" d="M366,485.6c0.1,3.4,0.1,6.8,0.2,10.2l-1.1,1v-1C363.3,492.1,361.9,488.6,366,485.6z"/>
	<path class="st0" d="M138.8,37.9c3.2-1.3,5-4.2,7.4-6.5c7.8-7.7,15.5-15.5,23.3-23.2c1.3-1.2,2.8-3.3,4.5-1.3
		c1.6,1.9-1.1,2.8-2.1,3.8c-11.5,11.5-23.1,23-34.7,34.4c-2.2-2.3,0.8-4,0.7-6L138.8,37.9z"/>
	<path class="st0" d="M455,426.7l-7,3c-0.6-2.7,1.6-3.8,3-5.2c8.6-8.7,17.2-17.3,25.9-25.9c1.4-1.4,3-2.6,3.7-4.6
		c1.5-2.3,4.2-2.8,6.3-4.2c2.3-0.8,4-3.7,7.1-2.2c-9.6,10.8-20.4,20.6-30.4,31.1c-1,1.1-3.4,1.6-2.4,4L455,426.7z"/>
	<path class="st0" d="M496.8,404.4l-5.8,2.5c1.9-3.3,5-5.5,7.6-8.2c1.2-1.2,2-3.5,4-3c1.8,0.5,0.3,3,1.6,4.2L496.8,404.4z"/>
	<path class="st0" d="M494.1,269.9l-7.3,4.5c-1.6,1.6-3,3.7-5.8,2.5c6.7-8.2,14.8-15,22-22.7c1.8-2,2.8-0.5,3.9,0.6
		c-3.7,3.9-7.6,7.8-11.2,11.8C495,267.4,492.6,267.8,494.1,269.9z"/>
	<path class="st0" d="M497.1,324.8c0-1.7,0-3.3,0-5c2.4-2.3,4.7-4.6,7.2-6.8c0.9-0.8,1.7-2.7,3.1-1.4s0.4,2.8-0.7,3.9
		C503.5,318.6,500.3,321.7,497.1,324.8z"/>
	<path class="st0" d="M497.1,284.8c0-1.7,0-3.3,0-5c2.4-2.3,4.7-4.6,7.2-6.8c0.9-0.8,1.7-2.7,3.1-1.4s0.4,2.8-0.7,3.9
		C503.5,278.6,500.3,281.7,497.1,284.8z"/>
	<path class="st0" d="M497.1,364.7c0-1.7,0-3.3,0-5c2.4-2.3,4.7-4.6,7.2-6.8c0.9-0.8,1.7-2.7,3.1-1.4s0.4,2.8-0.7,3.9
		C503.5,358.6,500.3,361.6,497.1,364.7z"/>
	<path class="st0" d="M497.1,344.8c0-1.7,0-3.3,0-5c2.4-2.3,4.7-4.6,7.2-6.8c0.9-0.8,1.7-2.7,3.1-1.4s0.4,2.8-0.7,3.9
		C503.5,338.6,500.3,341.7,497.1,344.8z"/>
	<path class="st0" d="M497.1,304.8c0-1.7,0-3.3,0-5c2.4-2.3,4.7-4.6,7.2-6.8c0.9-0.8,1.7-2.7,3.1-1.4s0.4,2.8-0.7,3.9
		C503.5,298.6,500.3,301.7,497.1,304.8z"/>
	<path class="st0" d="M497.1,384.7v-5c2.4-2.3,4.7-4.6,7.2-6.8c0.8-0.7,1.6-2.7,3.1-1c1.1,1.3,0.3,2.5-0.7,3.5
		C503.5,378.6,500.3,381.6,497.1,384.7z"/>
	<path class="st0" d="M151.1,56.9c-2.9,2.9-6.4,4.7-9.9,6.6c-11.9,6.1-21.6,15.7-27.9,27.6c-5.6,5.3-10.8,11-16.4,16.3
		c-1.4,1.3-2.4,3.9-5.1,2.2c-0.9-2.2,1.3-3.6,1.3-5.6c0.4-0.8,0.7-1.6,1-2.4c2.5,1.6,3-1.1,4-2c16.4-16.3,32.8-32.6,49.1-49
		c1.3-1.3,2.7-2.4,4.1-3.6C152.3,50.3,151.7,53.6,151.1,56.9z"/>
	<path class="st0" d="M87.2,95.9h-5c2.4-6.4,7.8-10,13-13.8h5L87.2,95.9z"/>
	<path class="st0" d="M187.1,15.1l-4-0.1c2.6-2.8,5.2-5.6,7.8-8.3c0.8-0.9,1.6-1.7,2.9-0.5s0.7,2.1-0.3,2.9
		c-1.4,1.1-2.9,2.2-4.8,3.6c2.6,2.1,5,0.5,6.3,2.2L187.1,15.1z"/>
	<path class="st0" d="M205.3,17.9l-3.2-1.8c2.2-3.1,4.9-5.8,8-8.1c1.6,1.7,1.6,3.2-0.3,4.9c-1.4,1.3-4.2,2.2-2.7,5.1
		c-0.4,0.5-1.1,0.5-1.6,0.1C205.4,18,205.4,18,205.3,17.9z"/>
	<path class="st0" d="M469.8,265.7c4.1-2.8,8.5-5.2,13.1-7.2c-1.2,3.1-4,4.8-6.2,7c-9.5,9.5-19,18.9-28.6,28.3
		c-1.5-1.1-1.3-2.6-1.1-4.2c2.6-4.7,7-7.8,10.6-11.6C461.5,273.8,465.9,270,469.8,265.7z"/>
	<path class="st0" d="M448.1,308.8l14.7-14c1.2,1.3,0.4,2.9,0.6,4.4c-3.3,6-8.7,9.9-13.6,14.4c-0.6,0.6-1.5,0.7-2.2,0.1
		c-0.1-0.1-0.3-0.3-0.4-0.5C446.7,311.6,446.6,310,448.1,308.8z"/>
	<path class="st0" d="M375,82.2l1.2-0.4c1.3,0.1,2.6,0.8,3.3,2c-5.2,3.3-8.4,8.7-13.4,12.1c-0.9,1-2.3,1.2-3.5,0.6
		c-1.4-1-0.7-2.2,0.1-3C366.5,89.5,369.8,84.8,375,82.2z"/>
	<path class="st0" d="M475.9,247.8l-1.1,0c-1.3-0.7-3-0.4-4-1.7c-0.2-0.4-0.3-0.8-0.2-1.2c5.1-2,8-6.4,11.3-10.3
		c1.5,0.3,2.9,1.1,4,2.2C482.3,240.1,478,242.9,475.9,247.8z"/>
	<path class="st0" d="M250.2,51.7c-1.8,3.2-4.9,5.2-7.2,7.9c-1.1,1.3-2.9,2.3-2.9,4.3c-0.5,0.6-1.3,0.8-2,0.6
		c-1.1-0.5-2.4-0.9-2-2.5c3.7-4,7.3-7.9,11-11.9C248.3,50.2,249.4,50.8,250.2,51.7z"/>
	<path class="st0" d="M362,95.9h4v0.6c-0.1,0.2-0.2,0.5-0.3,0.7c-0.4,0.3-0.9,0.6-1.5,0.7c-1.7,0.3-3.3,0.4-5,0.3
		c-4.7,0.1-9.3,0.1-14,0.1c-1.8-0.2-3.6,0.1-5.4,0c-4.8,0-9.7,0.1-14.5,0.1c-1.8-0.3-3.6,0.1-5.4-0.1c-4.8,0-9.6,0.1-14.4,0
		c-1.8-0.2-3.5,0.1-5.3,0c-4.1-0.3-8.2,0.6-12.2-0.6c-0.5-0.2-1-0.7-1.1-1.3c0.2-0.6,0.6-1.1,1.1-1.3c4.6-1.3,9.4-0.4,14.1-0.7
		c1.8,0.2,3.6-0.1,5.3,0c4.8,0,9.6-0.1,14.5-0.1c1.8,0.2,3.6-0.1,5.4,0c4.9,0,9.7-0.1,14.6,0c1.8,0.3,3.7-0.1,5.5,0
		C352.2,94.9,357.3,93,362,95.9z"/>
	<path class="st0" d="M380.8,97v5c-2.7,5.1-7.3,8.4-11.2,12.2c-0.9,0.9-2.2,1.8-3.3,0.1c-0.5-1.6-0.6-3.1,0.8-4.4L380.8,97z"/>
	<path class="st0" d="M473.1,229.8c-3.8,3.3-8.1,6.1-10.2,11c-0.3,0.4-0.7,0.5-1.1,0.5c-1.5-0.4-2.8-1.1-4-2.1
		c-0.2-0.4-0.3-0.8-0.1-1.2c5.1-2,8-6.5,11.4-10.4C470.6,227.8,472,228.6,473.1,229.8z"/>
	<path class="st0" d="M345.1,178.9c4.8-2.5,9.7-4.8,14.5-7.4c2.2-1.2,4.2-2,6.4-0.4c-7.8,7.9-15.6,15.9-23.4,23.9
		c-1.3,1.3-2.9,2.3-3.5,4.2c-0.7,3.6-5.7,2.8-6.5,6.3c-2.9,4.8-7.2,8.3-11.4,11.9c-0.4,0.2-0.9,0.2-1.4,0.3
		c-3.5-1.4-6.8-3.7-10.9-2.1c-2.8-2.6,0.3-3.8,1.4-5c7.6-7.8,15.4-15.5,23-23.2c1.7-1.6,3.3-3.3,4.7-5.1
		C340,180.4,342.5,179.2,345.1,178.9z"/>
	<path class="st0" d="M367.9,155.1c-0.9-0.4-1-1.1-1.1-1.9l0.2-3.3c3.9-5.1,7.4-10.5,13.8-12.9v5
		C376.1,145.9,371.8,150.3,367.9,155.1z"/>
	<path class="st0" d="M268.8,94.9c0.1-0.3,0.1-0.6,0.2-0.9c3.6-4.5,7.6-8.6,12.1-12.2l13.9,0.2c0.5,2-1,3-2.1,4.1
		c-5.5,5.6-11.1,11.2-16.7,16.7c-1.2,1.2-2.3,3-4.6,1.9C269.8,101.8,268.3,98.6,268.8,94.9z"/>
	<path class="st0" d="M362,95.9h-15c2.4-6.4,7.8-10,13-13.8l15,0.1L362,95.9z"/>
	<path class="st0" d="M302,95.9h-15c2.4-6.4,7.8-10,13-13.8h15C312.5,88.5,307.1,92,302,95.9z"/>
	<path class="st0" d="M322,95.9h-15c2.4-6.4,7.8-10,13-13.8h15C332.5,88.5,327.1,92,322,95.9z"/>
	<path class="st0" d="M342,95.9h-15c2.4-6.4,7.8-10,13-13.8h15C352.5,88.5,347.1,92,342,95.9z"/>
	<path class="st0" d="M300,82.1l-13,13.8l0,0c-2.9,5.1-7.6,8.6-11.7,12.6c-0.9,1.1-2.5,1.3-3.6,0.5c-0.6-0.8-0.8-1.9-0.5-2.9
		c0.2-0.5,0.5-0.9,1-1.2c7.8-7.4,15.5-14.9,22.8-22.8L300,82.1z"/>
	<path class="st0" d="M320,82.1l-13,13.8h-5c4.3-4.6,8.6-9.2,13-13.8L320,82.1z"/>
	<path class="st0" d="M340,82.1l-13,13.8h-5l13-13.8L340,82.1z"/>
	<path class="st0" d="M342,95.9c4.3-4.6,8.6-9.2,13-13.8h5l-13,13.8H342z"/>
	<path class="st0" d="M380.8,136.9l-13.8,13v-15c3.9-5.1,7.4-10.5,13.8-12.9V136.9z"/>
	<path class="st0" d="M367.1,129.9v-15l13.8-12.9v15C377,122.1,373.5,127.5,367.1,129.9z"/>
	<path class="st0" d="M367.1,129.9l13.8-12.9v5l-13.8,12.9V129.9z"/>
	<path class="st0" d="M480.7,394.6c1.3,2.2-1,2.7-1.9,3.7c-9,9.2-18.2,18.3-27.3,27.4c-1.3,1.3-2.4,2.7-3.5,4.1
		c-2,1.3-4,2.6-6.1,3.9l-21.9,11c-2,0.9-2.5-0.1-1.8-1.7s2.2-2.9,3.5-4.2c9.8-10,20-19.6,29.5-29.8c1.9-2,4.5-2.8,6.7-4.1
		c6-2.6,11.4-6.4,17.4-9.1C476.9,395,478.6,393.4,480.7,394.6z"/>
	<path class="st0" d="M451.9,409.7c-10.4,10.6-20.9,21.2-31.2,31.9c-0.5,0.5-4.2,1.3-0.8,3.1l-8,4.9l-7,3c-0.5-2.7,1.7-3.8,3.1-5.2
		c8.9-9,17.8-17.9,26.7-26.8c1.4-1.4,3-2.7,3.7-4.6c1.5-2.3,4.2-2.8,6.3-4.2C447.2,411,448.9,408.1,451.9,409.7z"/>
	<path class="st0" d="M398.8,456.6l-21.9,11c-1.6,1-2.3,0.3-1.9-1.3c0.5-1.8,2.1-3,3.3-4.3c10.2-10.4,20.8-20.5,30.8-31.1
		c1.9-1.9,4.5-2.8,6.7-4.1c6-2.7,11.6-6.2,17.4-9.1c1.7-0.8,3.3-2.3,5.5-1.1c1.3,2.3-1.1,2.7-2,3.7c-9.3,9.5-18.8,18.9-28.2,28.3
		c-1.3,1.3-2.4,2.7-3.6,4.1L398.8,456.6z"/>
	<path class="st0" d="M62.2,95.9h-15c2.4-6.4,7.8-10,13-13.8h15C72.7,88.5,67.3,92,62.2,95.9z"/>
	<path class="st0" d="M95.1,82.1l-13,13.8h-15c2.4-6.4,7.8-10,13-13.8L95.1,82.1z"/>
	<path class="st0" d="M27.2,95.9l13-13.8h15c-2.4,6.4-7.9,9.9-13,13.8L27.2,95.9z"/>
	<path class="st0" d="M42.2,95.9c4.3-4.6,8.6-9.2,13-13.8h5l-13,13.8H42.2z"/>
	<path class="st0" d="M80.2,82.1l-13,13.8h-5c4.3-4.6,8.7-9.2,13-13.8L80.2,82.1z"/>
	<path class="st0" d="M91.3,114.2l1-4.3c5.7-5.6,11.4-11.3,17.3-16.8c0.9-0.9,1.4-3.3,3.6-2c-1.8,5.9-4.9,11.5-5.1,17.8
		c0.1,0.9-0.1,1.9-0.7,2.6c-3.9,4.5-8.2,8.5-12.4,12.6c-1,1-2,2.3-3.8,1.8l-0.3-6C91.1,118,91.2,116.1,91.3,114.2z"/>
	<path class="st0" d="M161,53.7c2-11.5,11.6-20.7,23.9-22.9c0.4-0.3,1-0.3,1.3,0.1c0.3,1.7-0.8,2.8-1.9,3.9
		c-6.4,6.5-12.9,13-19.4,19.4c-0.8,0.8-1.7,1.8-2.9,1.8C160.1,56.1,160.6,54.8,161,53.7z"/>
	<path class="st0" d="M161,53.7c0.8,3.6,2.1,0.7,2.7,0.1c7.5-7.4,14.9-15,22.3-22.5c1.2-1.5,2.9-0.4,4.3-0.7
		c2.4,1.4,0.5,2.7-0.3,3.5c-8.8,9.2-17.9,18.2-27,27.1c-0.7,0.8-1.7,1.1-2.7,0.8l-0.3-5L161,53.7z"/>
	<path class="st0" d="M191.1,31l-5,0.2l-1.1-0.4l3.1-1h5l2.2,1c-0.9,1.2-2.7,1.4-3.9,0.4C191.3,31.2,191.2,31.1,191.1,31z"/>
	<path class="st0" d="M448.1,288.8c-0.3-0.7,0-1.8-1.1-2c-2.9-0.2-5.2-1.2-6.7-3.8c1.2-6.2,6.5-8.8,10.6-12.6
		c0.7-0.2,1.5-0.1,2.1,0.5c1.8,2.1,3.7,1.9,6,0.5c3.5-2.1,7.2-3.8,10.8-5.6c1.1,0.8,0.4,1.4-0.2,1.9
		C462.4,274.7,455.3,281.8,448.1,288.8z"/>
	<path class="st0" d="M447,324.9c2.2-3.5,0.2-7.4,1.1-11.1l14.7-13.9c0,5,0,10,0,15c-0.7,1.5-1.6,2.9-2.8,4
		c-11.9,11.9-23.8,23.9-35.8,35.8c-0.7,0.7-1.5,1.3-2.4,1.8c-0.7,0.3-1.5,0.4-2.2,0.4c-3.5-0.3-6.3-3.1-6.7-6.6
		c0-0.8,0.1-1.5,0.3-2.2c4.6-5.4,9.2-10.8,15.2-14.7c4.3-1.1,7.9-3.8,11.8-5.8C442.4,326.3,444.4,324.7,447,324.9z"/>
	<path class="st0" d="M463.1,330.8l-0.3,1.7c-1.4,2-3.1,3.7-5.2,5.1c-7,5.5-15,9.9-23.4,12.9c-2.4-0.9-1.5-2.4-0.4-3.5
		c8.9-9.2,17.7-18.4,27.1-26.9c0.5-0.4,1.2-0.5,1.9-0.3L463.1,330.8z"/>
	<path class="st0" d="M462.8,319.8c-9.5,9.3-18.9,18.7-28.4,28c-0.5,0.5-1.4,1.1-0.3,2c-1,3.6-5,3.6-7.2,5.8c-1.6,0.7-3.3,1.7-5,0
		c13.3-13.9,26.9-27.5,40.8-40.8C462.8,316.5,462.8,318.1,462.8,319.8z"/>
	<path class="st0" d="M422,253.8c0.1,0.2,0.1,0.5,0.1,0.7c-1.9,6.2-6.5,9.8-12.1,12.3c-3.3-0.6-6.2-2.3-8.4-4.9
		c0.6-4.6,6.8-11.1,11.7-12.2c0.2,0,0.5-0.1,0.7-0.1L422,253.8z"/>
	<path class="st0" d="M400.4,242.7l1.6,0.2l6,3.9c1.7,1.1,1.4,2.5,0.3,3.7c-3.2,3.2-5.8,7.1-10.1,9.1c-0.7,0.1-1.5,0.1-2.2-0.1
		c-2.4-1.2-5.1-1.9-6.8-4.2c-0.3-0.6-0.8-1.3-0.5-1.9C391.6,248.7,394.5,244,400.4,242.7z"/>
	<path class="st0" d="M397.6,259c4-2.5,6.8-6.5,10.3-9.6c1-0.9,0.4-1.8,0.1-2.7l1.6,0.2c1.2,0.9,2.4,1.8,3.6,2.7
		c-4.2,3.5-8.6,6.9-11.3,11.9c-0.3,0.4-0.7,0.6-1.1,0.6C399.2,261.7,397.8,261,397.6,259z"/>
	<path class="st0" d="M400.4,242.7c-4.1,2.5-6.8,6.4-10.3,9.6c-1,0.9-0.4,1.8-0.1,2.7c-0.5,0.5-1.3,0.7-2,0.5
		c-1.5-0.8-3-1.5-3.3-3.4c3-4.7,7.2-8.2,11.3-11.9c0.3-0.1,0.5-0.1,0.8-0.1L400.4,242.7z"/>
	<path class="st0" d="M396,240.1c-2.6,5-7.1,8.4-11.3,11.9c-0.4,0.3-0.8,0.4-1.3,0.4c-2.9-0.9-5.8-2-7.8-4.5c-0.2-0.5-0.2-1-0.2-1.4
		c2.1-4.4,6.1-7.2,9.5-10.4c0.8-0.9,2.2-1,3.1-0.3L396,240.1z"/>
	<path class="st0" d="M388,235.8c-5.3,2.5-8.6,7.1-12.2,11.3c-2,0.7-3.3-0.1-4.2-1.9c2.8-5.1,7.4-8.3,11.4-12.2
		c0.3-0.1,0.6-0.1,0.9-0.1c1.1,1.1,2.5,1.9,4,2.2C387.9,235.3,387.9,235.6,388,235.8z"/>
	<path class="st0" d="M349.9,214.9c2.6,0.9,5,2.2,7.1,3.9c0.8,0.9,0.7,2.3-0.2,3.1c0,0,0,0,0,0c-3.2,3.5-6,7.3-10.4,9.6
		c-0.5,0.1-1,0.1-1.5,0c-2.9-1.3-5.8-2.3-8.2-4.4c-0.2-0.4-0.3-0.9-0.3-1.4c2-4.6,6-7.2,9.4-10.5C347,214,348.7,213.9,349.9,214.9z"
		/>
	<path class="st0" d="M346.1,230.8c3.9-3.8,8.7-6.7,10.9-12l1.9,0.4c0.8,0.9,1.9,1.5,3.1,1.7c0.2,0.3,0.3,0.6,0.3,0.9
		c-4.1,4-7.7,8.5-12.6,11.7C347.9,233.4,346.1,233.4,346.1,230.8z"/>
	<path class="st0" d="M349.9,214.9c-6.3,1.3-8.8,7-12.9,10.9c-1.8,0.7-2.8-0.1-3.5-1.7c2.2-5.6,6.6-9,11.5-12c0.3,0,0.7,0,1,0
		c0.8,0.9,1.9,1.6,3.1,1.7L349.9,214.9z"/>
	<path class="st0" d="M263,119.1c2-0.1,3.9-0.1,5.9-0.1c5.9,0,5.9,0,4.3-6.2c-1.3-1-1.9-2.2-1-3.8c4.6-1.8,6.8-6.1,10.4-9.1
		c1.5-1.3,3-2.6,4.5-3.9c0,0.4,0,0.8,0.1,1.2c2.6,2.3,2.6,5.5,3.1,8.6c0,1-0.1,2-0.5,3c-8.4,9.2-16.8,18.6-26.8,26.2
		c-4.3,0.6-8.6,0.5-12.9-0.1c-2.1-0.9-1.5-2.4-0.4-3.5C254,127,257.6,122,263,119.1z"/>
	<path class="st0" d="M345,212.1c-3.3,4.4-8.1,7.4-11.1,12c-0.4,0.2-0.9,0.4-1.4,0.4c-3.4-1.2-6.9-2.2-8.9-5.6
		c2.1-5.6,6.8-8.9,11.4-12.1c0.3,0,0.7,0,1-0.1L345,212.1z"/>
	<path class="st0" d="M220,63l0.3,2c-3.1,13.6-10.9,22.4-25,25.1c-0.7,0.3-1.4,0.4-2.1,0.1c-0.9-1.8,0.4-2.8,1.4-3.8
		c7.3-7.4,14.6-14.7,22-22C217.5,63.5,218.5,62.5,220,63z"/>
	<path class="st0" d="M191.1,91.1l-5-0.2c-1.1,0-1.4-0.5-0.8-1.4c0.9-0.6,2-0.9,3.1-0.9c1.6,0,3.4-0.2,4.7,1.1l2.1,0.4
		C194.1,91.3,192.5,90.7,191.1,91.1z"/>
	<path class="st0" d="M188.1,89.8l-3.1,0.2c-3.8,1.5-6.6-0.3-9.1-2.9c3.2-7.4,8.3-12.3,16.7-13c5.2-1.9,9.4-4.7,10.7-10.5
		c0.7-1.8,0.4-3.8,0.8-5.6c2.1-4.6,6.2-7.4,9.7-10.8c0.7-0.9,2.1-1.1,3-0.4c0,0,0.1,0,0.1,0.1c2,2.7,2.3,5.9,3.3,9l-0.2,2
		c-1,1.9-2.3,3.7-3.9,5.1c-7.6,7.6-15.3,15.2-22.9,22.9C191.8,87.6,190.1,88.9,188.1,89.8z"/>
	<path class="st0" d="M188.1,89.8C198.4,78.9,209,68.3,220,58c0.4,1.6,0.4,3.4,0,5c-9.3,8.6-18.2,17.6-26.8,26.8L188.1,89.8z"/>
	<path class="st0" d="M217,47c-5.1,2.5-8.3,7-11.9,11.1c-2.4-0.3-2-2.4-2.5-3.9c0-0.5,0.1-1,0.3-1.4c4-3.1,6.8-7.6,11.4-10.1
		l2.8,3.4C217.1,46.4,217.1,46.7,217,47z"/>
	<path class="st0" d="M214.2,42.7c-3.3,3.9-6.2,8.1-11.1,10.2c-3.4-0.8-5.1-3.8-7.4-6c2.5-5,5.7-9.4,11.5-11c0.3,0,0.6,0,0.9,0
		l6.2,6.1C214.3,42.3,214.2,42.5,214.2,42.7z"/>
	<path class="st0" d="M191.1,31l4.2-0.2c2.4,0.1,4.8,0.9,6.8,2.2c1.9,1.1,1.3,2.5,0.3,3.7c-4.1,4.5-7.8,9.8-14.9,10.1
		c-5.4,2-9.3,5.4-10.6,11.4c-0.6,1.6-0.5,3.3-1.2,4.9c-2.4,3.5-5.6,6.1-8.6,9c-1.2,1.2-2.6,2.1-4.5,1.1c-2.4-3-4-6.2-2.7-10.2l0.3-1
		C170.8,51.9,181.2,41.7,191.1,31z"/>
	<path class="st0" d="M187.1,45.8c6.6-0.4,10-5.5,14.1-9.5c1-1,1.8-1.9,0.9-3.4l1.7,0.1l3.5,2.8c-4.2,3.1-7.7,7-11.2,10.9
		c-0.3,0.4-0.8,0.6-1.2,0.6c-1.4-0.1-2.9-0.2-4.4-0.2C189.2,47.1,187.9,47,187.1,45.8z"/>
	<path class="st0" d="M350,232.9c3.8-4.1,6.9-8.9,12.3-11.2c2.8,1,5.4,2.4,7.7,4.2c1.1,1.4,0.4,2.5-0.5,3.5c-3.2,3.2-5.9,7-10,9.2
		c-0.5,0.1-1,0.1-1.4,0.1c-2.8-1.1-5.5-2.6-8-4.4C349.7,233.8,349.7,233.3,350,232.9z"/>
	<path class="st0" d="M359,237.9c4-3.7,8.7-6.7,11-12l1,0c1.1,1.1,2.4,1.8,3.9,2.1c0.1,0.3,0.1,0.5,0.2,0.8c-4,4-7.6,8.5-12.5,11.6
		C360.9,240.4,359.1,240.4,359,237.9z"/>
	<path class="st0" d="M362.9,240c3.7-4.2,6.9-8.9,12.2-11.3c2.8,1,5.4,2.4,7.8,4.2c-2.5,5.1-7,8.3-11.1,11.9
		c-0.3,0.3-0.8,0.5-1.2,0.5c-2.9-0.6-5.1-2.6-7.6-4.1C362.8,240.9,362.7,240.4,362.9,240z"/>
	<path class="st0" d="M434.8,260.9c0.1,0.3,0.2,0.5,0.2,0.8c-2,6.1-6.5,9.7-12.1,12.1c-3.3-0.5-6.3-2.2-8.4-4.8
		c0.6-4.5,6.7-11,11.5-12.2c0.3,0,0.6,0,0.9-0.1L434.8,260.9z"/>
	<path class="st0" d="M439,263.8c0.3,0,0.7,0,1-0.1c2.4,1.8,5,3.2,7.7,4.2c0.1,0.3,0.2,0.6,0.3,0.8c-2.1,6-6.4,9.7-12.2,12
		c-3.3-0.7-6.4-1.7-8.4-4.6C428.9,269.9,433.1,266.1,439,263.8z"/>
	<path class="st0" d="M309.4,215l-14.2,8c-1-2.7,1.4-3.8,2.7-5.1c9.2-9.4,18.7-18.6,27.9-28l7.3-4.5l5.8-2.5
		c-8.6,10-18.5,18.6-27.5,28.2C310.5,212,307.8,212.5,309.4,215z"/>
	<path class="st0" d="M323,218.8l-2-1.8l11-12c1.2,0.2,2.3,0.8,3.1,1.7l-11,12c-0.1,0.3-0.5,0.4-0.8,0.3
		C323.2,219,323.1,218.9,323,218.8z"/>
	<path class="st0" d="M426.1,256.8c-4.1,3.6-8.6,6.8-11.1,11.9c-0.3,0.3-0.7,0.5-1.1,0.5c-1.5-0.4-2.9-1.1-4-2.1
		c-0.2-0.4-0.2-0.9,0.1-1.2c5.3-2.4,8.6-7.1,12.2-11.3C423.6,254.9,425,255.6,426.1,256.8z"/>
	<path class="st0" d="M53.2,276.6l7,0.3c-2.3,6.4-7.9,9.8-12.7,13.9c-0.7,0.6-1.6,0.1-1.7-1c0.2-2.4-0.4-4.8,0.3-7.1
		C47,279,49.5,277.2,53.2,276.6z"/>
	<path class="st0" d="M46.1,282.8l0.3,8c1.4,1.5,1.1,3.4,1.3,5.2c0.1,4.8,0,9.7,0,14.5c0.2,1.8-0.2,3.6,0,5.4c0,4.8,0,9.7-0.1,14.5
		c0.2,1.8-0.2,3.6,0,5.4c-0.1,2.4,0.4,5-1.6,6.9c-1.4-1.5-0.6-3.4-1-5v-5v-14.9v-5v-14.9v-5C45.7,289.5,44.3,286,46.1,282.8z"/>
	<path class="st0" d="M46.1,386.7c0.6-4.1,3.3-5.8,7.1-6.1c2.4-0.6,4.8-0.2,7.2-0.3c2,1,0.8,2.3,0.1,3.1c-3.6,4.1-7.5,8-11.7,11.6
		c-0.8,0.7-2.2,2-3.1-0.1C45.9,392.2,45.3,389.4,46.1,386.7z"/>
	<path class="st0" d="M46.1,386.7l0.3,9c2.6,4.7,0.9,9.8,1.3,14.6c0.2,1.8-0.2,3.7,0,5.5c0.1,4.9,0,9.7,0,14.6
		c0.2,1.8-0.2,3.7,0.1,5.5c-0.3,3.6,1.1,7.5-1.6,10.8c-1.8-2.8-0.4-6-1-9v-5v-14.9v-5v-14.9v-5C45.6,390.7,44.5,388.5,46.1,386.7z"
		/>
	<path class="st0" d="M50.6,452.5l-3.4-2.7v-1.1c4.6-4.2,8-9.6,13.8-12.4c1.2,0,2.4,0.4,3.3,1.1c0.6,2.9-2,3.9-3.3,5.6
		c-2.5,3.2-6.6,5.2-7.8,9.4l0.1,0.3L50.6,452.5z"/>
	<path class="st0" d="M53.2,244.7l-1,0.3c-3.2-0.9-5.4-2.8-6.1-6.1c-0.4-0.9-0.5-1.9-0.3-2.9c3.4-5.4,8.5-9.3,13-13.6
		c0.6-0.8,1.8-1,2.7-0.5c1.4,1.5,0.3,4,2,5.4c1.5,0.5,3.1,0.2,4.5,1.1c0.7,0.7,0.7,1.7,0.1,2.4c-0.1,0.1-0.1,0.1-0.2,0.2
		C63.2,235.8,59.2,241.3,53.2,244.7z"/>
	<path class="st0" d="M46.4,235.8l-0.3,3.1l-0.9-1l-0.1-5V218v-5V198v-5c0.8-4.6-0.9-9.5,1-14c2.9,3.6,1.2,7.8,1.6,11.7
		c0.2,1.8-0.2,3.7,0,5.5c0.1,4.9,0,9.7,0,14.5c0.2,1.8-0.2,3.6,0,5.4c0,4.8,0,9.7-0.1,14.5C47.6,232.4,47.2,234.2,46.4,235.8z"/>
	<path class="st0" d="M46.1,342.8c0.1-2.4,0.2-4.7,0.3-7.1c3-5.5,8-9,12.2-13.3c0.9-0.9,2.2-1.7,3.3-0.1c1.1,2.9,0.4,6,0.7,8.9
		c0,1,0.7,1.8,0.9,2.7c-2.5,5.6-7.5,9-11.9,12.9c-0.8,0.7-1.9,0.3-2.9,0C47,346.1,46.6,344.4,46.1,342.8z"/>
	<path class="st0" d="M48.7,346.9c6.3-2.7,9.8-8.5,14.4-13c1.2-1.5,2.7-1.4,4.3-0.9c1.7,1.1,0.9,2.4,0,3.3
		c-4.2,4.3-7.8,9.3-13.3,12.3l-2,0.3l-3-1.1L48.7,346.9z"/>
	<path class="st0" d="M61,436.7c-3.2,3.1-6.3,6.2-9.5,9.2c-1.3,1.2-2.3,2.8-4.4,2.8l-1.1-2c0.1-3.7,0.2-7.4,0.3-11.1
		c2.9-5.5,7.9-9,12.2-13.2c1-1,2.5-1.8,3.5,0.3c0.5,4.5,1.1,9-0.4,13.4L61,436.7z"/>
	<path class="st0" d="M46.4,190.9l-0.3-12l0.4-1.9c1.3-1.7,2.9-3.1,4.8-4.1c3.7-2.5,7.7-1.4,11.6-1c1.7,0.6,2,1.9,1,3
		c-5.2,5.7-10.1,11.6-16.5,16C47.1,191.1,46.7,190.9,46.4,190.9z"/>
	<path class="st0" d="M97.1,134c-2-0.5-3.8-1.6-5.1-3.1c0-0.3,0-0.7,0.1-1c3.9-5.2,7.7-10.5,14-13c0.3,2.5,2.2,1.9,3.7,2
		c2.8,0.1,5.6,0.1,8.3,0.2c0.4,1.5-0.5,2.6-1.5,3.4c-4.5,4-7.8,9.3-13.3,12.1C101.3,134.1,99.2,134.8,97.1,134z"/>
	<path class="st0" d="M106.1,116.9l-14,13c-1.3-1.1-1-2.6-0.8-4.1l15.8-15l-0.1,4.1L106.1,116.9z"/>
	<path class="st0" d="M145.4,429.7c-0.8-3-1.6-6-2.4-9c-0.4-0.6-0.6-1.4-0.3-2.1c2.5-3.8,6.1-6.5,9.2-9.7c0.9-0.9,1.9-1.9,3.5-1.2
		c0.8,1,1.3,2.1,1.6,3.3c0.6,2.4,1,4.9,1.3,7.3c0,0.7-0.2,1.5-0.4,2.2c-2.3,3.5-5.5,6.2-8.5,9C148.3,430.6,146.8,432.2,145.4,429.7z
		"/>
	<path class="st0" d="M145.4,429.7c1.8,1.2,2.6-0.4,3.6-1.3c2.7-2.5,5.4-5.1,8.2-7.7c1.8,0.7,2,2.1,1.6,3.8
		c-3,4.6-7.7,7.8-10.7,12.4l-1-1.2c-0.1-1.6-0.7-3.1-1.7-4.4L145.4,429.7z"/>
	<path class="st0" d="M114,443.7l0.1,4c-1.2,2.1-2.9,3.8-5,5l-2,0.2l-2-0.3C106.3,448.3,109.7,444.9,114,443.7z"/>
	<path class="st0" d="M148,436.9c1-6,6.4-8.5,10.1-12.2c0.7,0.1,1.3,0.5,1.7,1.1c1.3,2.5,2.3,5.1,3.1,7.8c0,0.5,0,1-0.1,1.5
		c-3,4-5.5,8.6-11,9.7c-0.2,0-0.5-0.1-0.7-0.1L148,436.9z"/>
	<path class="st0" d="M305.9,438.7c-0.3-0.4-0.6-0.8-0.9-1.2c1.8-5.5,6.2-8.7,10.8-11.5c0.5,0,1,0,1.5,0.1c2.9,1.6,6.7,2.2,7.5,6.3
		c-1.4,4.4-5.5,6.6-8.4,9.8c-1.1,0.7-2.1,1.3-3.4,0.3L305.9,438.7z"/>
	<path class="st0" d="M313.1,442.7l3-1c2.6,0.4,3,1.9,2,4.1l-1.8-0.5l-3-1.9C313.2,443.2,313.1,442.9,313.1,442.7z"/>
	<path class="st0" d="M318,445.8c0-1.6-0.7-3.1-2-4.1l8.1-9.2c0.4-0.2,0.8-0.4,1.2-0.4c1.5,0.3,2.8,1.3,4.3,1.7
		c2.7,1.2,5.3,2.8,7.6,4.6c0.2,0.4,0.3,0.9,0.4,1.4c-3,4.6-5.9,9.3-11.8,10.9c-0.3,0-0.6,0-0.8,0.1L318,445.8z"/>
	<path class="st0" d="M220.1,483.9l-1-0.3c-0.4-2.4,1.6-3.5,2.9-4.9c5-5.3,10.5-10.2,15.3-15.7c1.8-1.9,4.3-2.7,6.5-4
		c9.9-5.4,18-13.6,23.4-23.4c0.9-1.9,2-3.7,3.3-5.4c5.2-5.3,10.5-10.6,15.8-15.9c1.6-1.6,3.2-3.5,5.8-3.5c3.3,0.5,5.7,2.7,8.1,4.7
		c0.4,0.6,0.5,1.4,0.3,2.1c-2.9,4.3-6.8,7.6-10.6,11.1c-0.2,0.2-0.5,0.2-0.8,0.2c-7.2,9.2-16.1,16.8-24.2,25.1
		c-7.3,7.5-14.8,14.8-22.2,22.2c-1.7,1.8-3.7,3.4-5.8,4.7l-5.1,1.9L220.1,483.9z"/>
	<path class="st0" d="M285,439.7c-7.4,17.2-19.7,29.5-36.9,37c-1.3,0.6-2.4,0.7-2.1-1.2c0.2-1.4,1.3-2.3,2.2-3.2
		c10.8-10.8,21.5-21.6,32.4-32.4c0.9-0.9,1.9-2,3.2-2.3C285.6,437.4,285.9,438.3,285,439.7z"/>
	<path class="st0" d="M285,439.7c-1.9-3.5-2.6,0.3-3.1,0.8c-10.6,10.3-21,20.8-31.5,31.3c-1.2,1.1-2.4,2.3-3.4,3.6
		c-0.8,1.2,0.4,1.2,1.1,1.3l-6.1,3.1l-5,0.9c5.4-6.6,11.8-12.2,17.7-18.2c10-10.2,20.2-20.2,30.3-30.3c1.3-1.3,2.3-2.9,4.2-3.5
		C288.2,432.6,287.1,436.3,285,439.7z"/>
	<path class="st0" d="M290,428.6c2.2-4.8,6.4-7.7,10.1-10.9c1.4-1.1,2.8-0.2,4.2,0.2c2.9,1.7,6.2,3.1,8.2,6.1
		c-1.2,5.3-7.3,11-11.8,10.9L290,428.6z"/>
	<path class="st0" d="M300.8,434.8c5.1-2.2,8.5-6.2,11.3-10.8c0.2-0.4,0.7-0.6,1.1-0.6c1.4,0.7,3.1,1.1,3,3.3
		c-4.1,3.2-7.8,6.9-11,10.9l-4-1.9C301,435.4,300.8,435.1,300.8,434.8z"/>
	<path class="st0" d="M160.1,456.7c-0.3,0-0.6-0.1-0.9-0.2l-5-6.9v-1c1.3-5.3,5.6-7.8,9.6-10.6c0.5,0,1,0,1.4,0.2
		c2.4,2,3.8,4.7,5.4,7.3c0.1,0.5,0.2,0.9,0.1,1.4C168,451.1,165.5,455.5,160.1,456.7z"/>
	<path class="st0" d="M338.1,458.7H337l-7-5.1c-0.4-0.5-0.8-1.2-0.4-1.8c3.1-4.2,6-8.5,11.4-10.1c3.7,0.6,6.7,2.2,8.5,5.6
		C347.2,452.6,343.8,456.7,338.1,458.7z"/>
	<path class="st0" d="M341.4,442.5c-5.1,2.3-8.6,6.3-11.4,11c-0.3,0.1-0.6,0.1-0.9,0.1l-3.3-2.8c4.1-3.2,7.9-6.9,11.2-11
		c1.9-0.9,3,0.3,4.1,1.4C341.4,441.6,341.5,442.1,341.4,442.5z"/>
	<path class="st0" d="M170.1,466.7c-0.3,0-0.6,0-1-0.1l-6.1-5.9c0-0.2,0-0.5,0-0.8c1.3-5.5,5.5-8.3,10-10.9c3.7,0.9,5.6,3.8,7.6,6.6
		C179.2,461.4,175.5,464.8,170.1,466.7z"/>
	<path class="st0" d="M341.9,461.7c0-0.2-0.1-0.4-0.1-0.7c-0.6-3.7,2.9-4.8,4.6-6.9c1.5-2,3.3-3.6,5.5-4.9c0.4-0.1,0.8-0.2,1.2-0.3
		c1.5-0.4,0.8-2.1,1.6-2.9c3.7-4.2,7.6-8.2,11.7-11.9c1-0.9,2.4-3.3,4-0.4v12.8c-0.2,1.7-1.1,3.2-2.4,4.2c-4.5,4.5-8.9,9-13.4,13.4
		c-1.6,1.5-3.2,3-5.6,1.5L341.9,461.7z"/>
	<path class="st0" d="M349.1,465.7c2.3,0.4,3.6-1.2,5-2.5c5.3-5.2,10.5-10.3,15.8-15.4c1.3,1-0.2,3,1.3,3.9c0.3,0,0.6,0,0.8,0.1
		c-5.7,6-11.2,12.2-18,17l-4-1.9L349.1,465.7z"/>
	<path class="st0" d="M403,434.7l7-3c-10.7,10.9-21.5,21.8-32.1,32.8c-0.5,0.5-4.1,1.2-0.9,3.2l-8,4.9c-1.7,0.1-3.1,1.7-5,1.1
		c-0.5-2.6,1.7-3.8,3.1-5.2c9.9-10,19.9-19.8,29.7-29.8L403,434.7z"/>
	<path class="st0" d="M396.8,438.6c1.2,2.3-1.2,2.7-2.1,3.7c-10.2,10.6-20.5,20.9-30.8,31.3l-3,0l-6.8-4.2c-0.1-0.3-0.2-0.6-0.2-0.8
		c5.6-6.1,10.8-12.6,18-17l2.3-1.9L396.8,438.6z"/>
	<path class="st0" d="M183.1,475.5l-2-0.8l-7-5c-1.1-1.3-0.4-2.6,0.5-3.5c2.8-2.9,5.2-6.4,9-8.2c0.5-0.1,1-0.1,1.4,0
		c2.9,1.1,5.6,2.5,8.1,4.3c0.3,0.4,0.4,0.9,0.5,1.3C191.5,468.8,186.9,471.8,183.1,475.5z"/>
	<path class="st0" d="M184.2,458.7c-3.7,3.4-8,6.1-10,11l-0.9,0l-3-3c3.7-3.3,7.9-6.1,10-10.8c0.3-0.3,0.8-0.5,1.2-0.4
		C182.6,456.2,184.4,456.5,184.2,458.7z"/>
	<path class="st0" d="M114,443.7c-3.2,2.6-6.2,5.6-8.8,8.8h-15c-0.4-1.5,0.6-2.5,1.5-3.4c6.2-6.4,12.5-12.7,18.9-18.9
		c0.9-0.9,1.9-1.9,3.4-1.5C114,433.7,114,438.7,114,443.7z"/>
	<path class="st0" d="M85.2,452.6h-15c-0.4-1.5,0.5-2.6,1.5-3.5c4.5-4.1,8-9.3,13.4-12.4c4-0.5,8-0.5,12-0.2c0.5,0.1,1,0.3,1.4,0.5
		c1.3,1,0.9,2.2,0,3C94.4,444.5,90.7,449.5,85.2,452.6z"/>
	<path class="st0" d="M53.1,452.5c-2.4-1.5-0.7-2.6,0.4-3.7c3.6-3.7,7.1-7.3,10.6-11c4.3-2.8,9-1.3,13.5-1.2
		c2.5,0.9,1.9,2.5,0.6,3.8c-4.2,4.3-7.7,9.2-13.2,12.1L53.1,452.5z"/>
	<path class="st0" d="M85.2,452.6c4.1-5.5,10.2-9.1,13.7-15.1c0.1-0.2,0.2-0.4,0.3-0.7c3.5-4,7.3-7.6,11.1-11.3
		c1.1-1.1,2.3-3.1,4.5-1.4c0.6,1.2,0.4,2.6-0.4,3.5l-0.3,1c-8.2,7.7-16.1,15.6-23.8,23.8L85.2,452.6z"/>
	<path class="st0" d="M65.2,452.6l14-14.7c1.7-1.7,3.3-1.6,5,0l-14,14.7H65.2z"/>
	<path class="st0" d="M183.1,475.5c1-3.8,4.6-5.3,6.8-8.1c1.1-1.4,2.3-2.7,3.4-4.1c2-0.4,3.7,0.8,5.6,1c2.4,0.1,4.8,0.6,7.1,1.5
		c3.8,1.2,4.4,3.1,1.4,5.8c-3.4,3-5.8,7.1-10.2,9l-1,0.2l-9-3.2L183.1,475.5z"/>
	<path class="st0" d="M164.4,438.6c-3.8,2.9-7.3,6.3-10.2,10.1c-1.1-1-2-2.4-2.3-3.8c3.9-2.9,7.4-6.3,10.3-10.2
		C164.6,435,165,436.5,164.4,438.6z"/>
	<path class="st0" d="M202.4,482.6l-1.2-0.9c-0.6-1.8,0.7-2.8,1.7-3.8c3.9-3.7,7.1-8.2,11.8-11c2.5-0.8,5.1-0.2,7.6-1.1
		c1.8-0.4,3.7-0.5,5.6-0.2c2.9,0.6,3,2.3,1.3,4.2c-3.8,4.4-7.8,8.4-12.2,12.1c-2.6,2.1-5.9,1.4-9,0.8L202.4,482.6z"/>
	<path class="st0" d="M207.9,482.8c5.1,0.8,8.8-1.4,12-5.2c2.6-3.2,5.8-5.9,8.7-8.8c1.3-1.3,0.9-1.9-0.8-2.1c0.7-2.6,3.2-2.1,5-3
		c1.7-0.4,3.5-1.4,5.2-0.1c-4.3,6-10.3,10.6-15.3,16c-1.2,1.3-2.4,2.7-3.6,4l-6,0.3C211.4,483.3,209.5,483.9,207.9,482.8z"/>
	<path class="st0" d="M173,449.7c-3.8,3-7.1,6.4-10,10.3c-1.3-0.8-2.3-1.9-2.9-3.3c3.8-2.9,7.2-6.3,10.1-10.1
		c1.8-0.5,2.5,0.7,3.3,1.9C173.6,449,173.4,449.5,173,449.7z"/>
	<path class="st0" d="M352.9,449.7c-4,3.4-8,7-11.1,11.3c-1.4-0.4-2.7-1.3-3.7-2.4c4-3.5,8-6.9,11-11.3
		C351.1,447,352.9,447.1,352.9,449.7z"/>
	<path class="st0" d="M214.1,467.7l-13,13.9c-1.4,0.2-2.8-0.2-4-1c3.3-3.4,6.4-7.1,9.9-10.3c2.5-2.3,0.4-2.6-0.9-3.5
		c1-1.3,2.3-1.2,3.7-1.1C211.3,466.3,213,466.4,214.1,467.7z"/>
	<path class="st0" d="M371.2,451.6c-1.8-0.9-0.9-2.6-1.3-3.9v-15c-1.5-1.5-1.1-3.4-1.4-5.2c-0.1-4.8,0-9.7,0-14.5
		c-0.2-1.8,0.2-3.6,0-5.4c0-4.8,0-9.7,0-14.5c-0.2-1.8,0.2-3.6,0-5.5c0-4.8,0-9.7,0-14.5c-0.2-1.8,0.2-3.6,0-5.4c0-4.8,0-9.7,0-14.5
		c-0.2-1.8,0.2-3.6,0-5.5c-0.1-2.3-0.1-4.5,0.1-6.8c0.2-1.7,0-3.7,2.4-4.2c2.4,2.7,1.2,5.9,1.5,8.9c0.2,1.8-0.2,3.6,0,5.5
		c0,4.8,0,9.7,0,14.5c0.2,1.8-0.2,3.6,0,5.4c0,4.9,0,9.7,0,14.5c0.2,1.8-0.2,3.6,0,5.5c0,4.8,0,9.7,0,14.6c0.2,1.8-0.2,3.7,0.1,5.5
		c-0.3,4.9,1,10-1.4,14.7L371.2,451.6L371.2,451.6z"/>
	<path class="st0" d="M435.6,280c5.4-2.3,8.5-7.1,12.3-11.2c1.2,0.2,2.3,0.7,3.1,1.6c-1.7,3.3-4.9,5.3-7.3,8.1
		c-1.2,1.4-2.9,2.3-2.9,4.4l-1.9-0.4c-1.2,0.1-2.3-0.4-3.1-1.2C435.7,280.9,435.6,280.4,435.6,280z"/>
	<path class="st0" d="M428.8,328.8l0.3,4l-0.3,1c-4.9,4.7-9.8,9.3-14.7,14c-1.5-1.2-1.3-2.7-1-4.3
		C417.6,337.9,421.9,331.9,428.8,328.8z"/>
	<path class="st0" d="M414.1,342.7v-15c4-5.6,8.1-11.1,14.7-14l0.3,14l-0.3,1L414.1,342.7z"/>
	<path class="st0" d="M428.8,313.8l-14.7,14v-5c4-5.6,8.1-11,14.7-13.9l0.3,4L428.8,313.8z"/>
	<path class="st0" d="M428.8,308.8l-14.7,13.9c-0.1-2.3-0.1-4.5-0.2-6.8c-0.1-1.3-0.4-2.4-2-1.1c-0.9,2.2-2.7,2.8-4.9,2.7
		c-1.6-0.5-1.7-1.8-0.8-2.7c6.5-6.8,12.3-14.3,20.4-19.5c0.5,0,0.9,0.3,1.2,0.7c1.7,3.8,0.7,7.9,1.2,11.8L428.8,308.8z"/>
	<path class="st0" d="M123.1,119.1h15c0.4,1.5-0.5,2.6-1.5,3.5c-4.5,4.1-8,9.4-13.5,12.4c-4.3,0.6-8.6,0.5-12.9-0.1
		c-2.1-0.9-1.4-2.5-0.4-3.5C114.1,127,117.6,122,123.1,119.1z"/>
	<path class="st0" d="M243.1,119.1h15c0.4,1.5-0.5,2.6-1.5,3.5c-4.6,4.1-8,9.4-13.6,12.4c-4.3,0.6-8.6,0.5-12.9-0.1
		c-2.1-0.9-1.4-2.5-0.4-3.5C234,127,237.6,122,243.1,119.1z"/>
	<path class="st0" d="M163.1,119.1h15c0.4,1.5-0.5,2.6-1.5,3.5c-4.5,4.1-8,9.4-13.5,12.4c-4.3,0.6-8.6,0.5-12.9-0.1
		c-2.1-0.9-1.4-2.5-0.4-3.5C154,127,157.6,122,163.1,119.1z"/>
	<path class="st0" d="M223.1,119.1h15c0.4,1.5-0.5,2.6-1.5,3.5c-4.6,4.1-8,9.4-13.6,12.4c-4.3,0.6-8.6,0.5-12.9-0.1
		c-2.1-0.9-1.4-2.5-0.4-3.5C214,127,217.6,122,223.1,119.1z"/>
	<path class="st0" d="M143.1,119.1h15c0.4,1.5-0.5,2.6-1.5,3.5c-4.5,4.1-8,9.4-13.5,12.4c-4.3,0.6-8.6,0.5-12.9-0.1
		c-2.1-0.9-1.4-2.5-0.4-3.5C134.1,127,137.6,122,143.1,119.1z"/>
	<path class="st0" d="M203.1,119.1h15c0.4,1.5-0.5,2.6-1.5,3.5c-4.5,4.1-8,9.4-13.5,12.4c-4.3,0.6-8.6,0.5-12.9-0.1
		c-2.1-0.9-1.4-2.5-0.4-3.5C194,127,197.6,122,203.1,119.1z"/>
	<path class="st0" d="M183.1,119.1h15c0.4,1.5-0.5,2.6-1.5,3.5c-4.5,4.1-8,9.4-13.5,12.4c-4.3,0.6-8.6,0.5-12.9-0.1
		c-2.1-0.9-1.4-2.5-0.4-3.5C174,127,177.6,122,183.1,119.1z"/>
	<path class="st0" d="M224.1,133.8l14-14.7h5l-14,14.7C227.4,135.4,225.8,135.4,224.1,133.8z"/>
	<path class="st0" d="M184.1,133.8l14-14.7h5c-4.7,4.9-9.3,9.8-14,14.7C187.4,135.4,185.8,135.4,184.1,133.8z"/>
	<path class="st0" d="M244.1,133.8l14-14.7h5c-4.7,4.9-9.3,9.8-14,14.7C247.4,135.4,245.8,135.4,244.1,133.8z"/>
	<path class="st0" d="M183.1,119.1c-4.7,4.9-9.3,9.8-14,14.7c-1.7,1.6-3.3,1.6-5,0l14-14.7H183.1z"/>
	<path class="st0" d="M144.1,133.8l14-14.7h5l-14,14.7C147.5,135.4,145.8,135.4,144.1,133.8z"/>
	<path class="st0" d="M143.1,119.1c-4.7,4.9-9.3,9.8-14,14.7c-1.7,1.6-3.3,1.6-5,0l14-14.7H143.1z"/>
	<path class="st0" d="M123.1,119.1c-4.7,4.9-9.3,9.8-14,14.7c-1.7,1.6-3.3,1.6-5,0l14-14.7H123.1z"/>
	<path class="st0" d="M204.1,133.8l14-14.7h5l-14,14.7C207.4,135.4,205.8,135.4,204.1,133.8z"/>
	<path class="st0" d="M216,251.8c0.4-2.3,1.9-4.3,4-5.4c6.6-3.6,13.3-7.1,20-10.6c2.8,1.5,0.5,2.7-0.3,3.6c-2.8,3.2-6,6.1-9,9.2
		c-3.6,3.6-7.1,7.3-10.9,10.7c-1,0.9-2.4,3.3-4.1,0.5C215.8,257.1,215.2,254.4,216,251.8z"/>
	<path class="st0" d="M216.3,260.8c7.8-7.7,15.6-15.4,23.4-23.1c0.5-0.5,1.4-1.1,0.3-2l7.3-4.6l5.8-2.5c0.8,1.8-0.5,2.8-1.5,3.8
		c-10.5,10.6-21,21.1-31.6,31.6c-1.1,1-2.3,3.1-4.3,1.1C215.9,263.7,215,262.1,216.3,260.8z"/>
	<path class="st0" d="M248.2,216.1l-6.1-0.4c2.2-5.3,5.6-9.3,11.3-11c1.6,1.8,0.8,4,0.9,6.1C253.1,213.5,251.3,215.6,248.2,216.1z"
		/>
	<path class="st0" d="M253.4,204.8c-4.3,3.1-7.8,7-11.3,11h-15c-0.5-1.8,0.8-2.9,1.8-3.8c4.3-3.8,7.4-9,12.9-11.5
		c1.8,0.1,3.5-0.3,5.3,0.3c2.4,0.2,4.7,1.3,6.3,3.2C253.4,204.1,253.4,204.4,253.4,204.8z"/>
	<path class="st0" d="M269.1,133.7h-5c8.1-8.6,16.2-17.1,25.1-24.9l1,3.1l-0.3,1C284,120.9,277,127.9,269.1,133.7z"/>
	<path class="st0" d="M269.1,133.7c6.7-7.2,13.6-14.2,20.8-20.8c0.4,4.3,0.9,8.7,1.3,13c-0.2,2.6-1.3,5.1-3.1,7l-3,1.1L269.1,133.7z
		"/>
	<path class="st0" d="M216.3,280.8c0-5,0-10,0-15c12.5-12.1,25.2-24.1,36.8-37.1l7.4-4.6l22.3-11.3c1.7-0.5,1.5,0.7,1.2,1.6
		c-0.7,1.7-2.2,2.9-3.4,4.2c-8.8,9-18,17.6-26.5,26.9c-2.6,2.8-6.1,4.4-9.5,6c-2,1-3.3,2.1-2.8,4.5c-2,4.7-6,7.5-9.8,10.6
		c-1.1,0.6-2,1.6-2.5,2.8c-3,3.4-6.1,6.6-9.4,9.6C219,279.9,218,281.2,216.3,280.8z"/>
	<path class="st0" d="M253.1,244.9c8.7-10.1,18.7-18.9,27.8-28.5c0.9-0.9,3.2-1.5,1.9-3.7l7.4-4.6l5.8-2.5c0.8,2.7-1.5,3.8-2.9,5.3
		c-7.6,7.7-15.3,15.3-22.9,23c-1.4,1.4-3,2.7-3.7,4.6c-2,2.8-5.1,3.9-8,5.5C256.7,244.6,255.2,246.2,253.1,244.9z"/>
	<path class="st0" d="M266.4,238c-1.5-2.2,0.8-2.7,1.7-3.6c8.1-8.2,16.3-16.4,24.4-24.6c1.3-1.3,2.8-2.3,3.4-4.1l7.5-4.6l22.4-11.3
		c1.3,2.3-1.1,2.7-2,3.7c-8.4,8.5-16.8,16.9-25.2,25.4c-1.3,1.3-2.9,2.2-3.4,4.2l0,0c-3.4,4.5-7,8.7-12,11.6
		c-0.5,0.1-0.9,0.1-1.4,0.1c-2.8-1.2-5.3-0.5-7.9,0.9C271.7,236.8,269.5,239,266.4,238z"/>
	<path class="st0" d="M183.2,73.8l4.9,1l5,0.3c-8.1,0.3-12.2,6.4-16.9,11.6h-0.5h-0.5l-3-2.1c0-0.3-0.1-0.5-0.1-0.8
		C175.7,80.4,178.7,76.3,183.2,73.8z"/>
	<path class="st0" d="M175.3,62.9l1.6,3.4l0.2,1.7c-4.4,2.2-6.6,7.2-11.2,9.3l-2.8-3.4c0-0.3,0.1-0.6,0.1-0.9
		C168.5,71,170.7,65.4,175.3,62.9z"/>
	<path class="st0" d="M439,263.8c-4,3.7-8.7,6.7-11,12c-0.3,0.3-0.7,0.5-1.1,0.5c-1.5-0.4-2.8-1.1-4-2.1c-0.2-0.4-0.3-0.8-0.1-1.2
		c5.4-2.3,8.5-7.1,12.3-11.2C436.6,262,437.9,262.7,439,263.8z"/>
	<path class="st0" d="M311,232.6c3.8,0.9,6.8,3.1,10,5.2c0.6,1.5,2,0.8,3,0.9c0.2,0.3,0.3,0.5,0.4,0.9c-3.6,3.8-7.6,7.2-11,11.2
		c-0.4,0.3-0.8,0.4-1.3,0.4c-1.7-0.5-3.1-1.8-4.8-2.5c-2.7-1.3-5.3-2.7-7.8-4.2c-1.2-0.8-2.5-1.5-3-3c1.4-5.2,5.4-9.3,10.6-10.8
		c0.3,0,0.6,0,0.9,0C308.7,232,310,232.2,311,232.6z"/>
	<path class="st0" d="M307.1,230.8c-3.8,3.3-8,6.1-10.1,10.9c-0.9,0.7-1.8,0.3-2.6,0c-2.7-1.3-5.6-2.5-7.7-4.8
		c-0.2-0.5-0.3-0.9-0.3-1.4c1.6-4,5.2-6.3,8.1-9.1c1.2-1.3,3.1-1.5,4.5-0.5C301.9,227.2,305.1,228.1,307.1,230.8z"/>
	<path class="st0" d="M299,225.9c-5.9,1.2-8.4,6.4-12.1,10.2c-2.1,0.7-3.6,0.3-4-2.2c4.7-3,7.4-8.2,12.3-10.9L299,225.9z"/>
	<path class="st0" d="M46.4,310.8c0-5,0-10,0-15c5.2-7.2,11.6-13.6,18.8-18.8h15c0.4,2-1,3-2.1,4.1c-3.8,3.8-7.3,7.9-11.6,11.2
		c-1.2,0.8-2.9,0.3-3.8,1.7c-0.4,1-0.5,2-0.9,3c-3.5,4.5-7.9,8.3-11.9,12.4C48.9,310.2,47.9,311.2,46.4,310.8z"/>
	<path class="st0" d="M85.2,277h15c0.4,1.5-0.5,2.6-1.5,3.5c-4.5,4.1-8,9.4-13.5,12.4c-4.3,0.6-8.6,0.5-12.9-0.1
		c-2.1-1-1.4-2.5-0.4-3.5C76.1,284.9,79.7,279.9,85.2,277z"/>
	<path class="st0" d="M107.2,276.6c2.7,0.7,5.4,1.4,6.1,4.7c0.2,1.1,1.1,2.4,0.3,3.3c-4.2,5.1-7.9,10.8-14.5,13.3
		c-1.6-1.2-0.6-3.5-2.3-4.6c-1.8-0.5-3.7,0-5.3-1c-1.2-1.1-0.5-2.3,0.3-3c4.3-4.3,7.9-9.4,13.4-12.4L107.2,276.6z"/>
	<path class="st0" d="M65.2,277c-6,6.6-12.3,12.8-18.8,18.8v-5c4.9-4.3,9.5-8.9,13.8-13.8L65.2,277z"/>
	<path class="st0" d="M85.2,277l-14,14.7c-1.7,1.6-3.3,1.6-5,0l14-14.7H85.2z"/>
	<path class="st0" d="M105.2,277l-14,14.7c-1.7,1.6-3.3,1.6-5,0l14-14.7H105.2z"/>
	<path class="st0" d="M46.4,330.8v-15c2.9-5.4,7.8-9,12.1-13.1c1-1,2.5-2,3.6,0.2c0.7,4.3,0.7,8.6,0.2,12.9
		C57.9,321.6,53.4,327.6,46.4,330.8z"/>
	<path class="st0" d="M46.4,330.8l14.7-14c1.6,1.7,1.6,3.3,0,5l-14.7,14V330.8z"/>
	<path class="st0" d="M61,301.8l-14.7,14c0-1.7,0-3.3,0-5l14.7-14C62.7,298.5,62.7,300.1,61,301.8z"/>
	<path class="st0" d="M93.2,244.7h-15c-0.4-1.3,0.4-2.3,1.2-3.1c4.6-4.5,8.7-9.5,13.8-13.4c1.2-0.5,2.6-0.5,3.8-0.9
		c1.5-1.2,0.8-3.2,1.7-4.7c3.5-4.6,7.9-8.3,12-12.3c1.1-1.1,2.6-3,4.4-0.6c0.9,4.3,0.6,8.6,0.3,12.9c-1.2,3.5-4.1,5.5-6.6,7.8
		C103.6,235.2,99.5,241.1,93.2,244.7z"/>
	<path class="st0" d="M73.2,244.7h-15c-0.3-0.8-0.1-1.7,0.6-2.3c5-5,9.3-10.8,15.5-14.5c4.3-0.6,8.6-0.5,12.8,0.1
		c2.1,0.9,1.4,2.4,0.4,3.5C82.9,236.1,79,241.4,73.2,244.7z"/>
	<path class="st0" d="M114.3,237.8c-0.7,4.1-2.9,6.6-7.1,7.2l-9-0.4c-0.4-1.5,0.6-2.5,1.5-3.5c3.5-3.7,7.1-7.4,10.9-10.8
		c1-0.9,2.4-3.3,4.1-0.6C114.5,232.5,115,235.2,114.3,237.8z"/>
	<path class="st0" d="M114,228.9l-15.8,15.8h-5c6.7-7.2,13.6-14.2,20.8-20.8C115.6,225.5,115,227.2,114,228.9z"/>
	<path class="st0" d="M73.2,244.7l15-15.7c1.7-1.6,3.3-1.6,5,0l-15,15.7L73.2,244.7z"/>
	<path class="st0" d="M73.2,229l-15,15.7h-5l15-15.6C69.8,227.4,71.5,227.4,73.2,229z"/>
	<path class="st0" d="M89.2,348.6h-15c-0.4-1.5,0.5-2.5,1.4-3.4c4.4-4.1,8-9.1,13.2-12.3c2.6-0.8,5.4,0,7.9-0.9
		c2.3-2.6,0.3-6,1.6-8.9c3.5-5.2,8.4-9.1,12.9-13.5c1-1,2.4-2.1,3.7-0.2c1.1,4,0.5,8.1,0.5,12.1c-0.1,0.5-0.2,1-0.3,1.5
		C107.1,332.3,98.9,341.3,89.2,348.6z"/>
	<path class="st0" d="M54.2,348.6l14-14.7c4.3-2.8,9-1.3,13.5-1.2c2.5,0.9,1.9,2.6,0.6,3.8c-4.2,4.3-7.7,9.2-13.2,12.1L54.2,348.6z"
		/>
	<path class="st0" d="M114,328.8c0.1,3.6,0,7.3,0.2,11c0.2,5.1-1.9,8.3-7,9.2l-13-0.3c-0.1-0.3-0.3-0.7-0.1-1
		c5.5-7.1,11.8-13.4,18.9-18.9C113.3,328.5,113.7,328.7,114,328.8z"/>
	<path class="st0" d="M114,328.8c-6.9,6.3-13.5,12.9-19.8,19.8h-5c7.9-8.6,16.2-16.9,24.8-24.8V328.8z"/>
	<path class="st0" d="M69.2,348.6l14-14.7c1.7-1.6,3.3-1.6,5,0l-14,14.7L69.2,348.6z"/>
	<path class="st0" d="M61.2,380.9h15c0.4,2.2-1.3,3.2-2.5,4.5c-3.5,3.7-7.2,7.2-10.7,10.8c-0.3,0.3-0.6,0.7-1,1
		c-0.2,0.2-0.3,0.3-0.5,0.5c-3.6,3.4-7,7-10.6,10.5c-1.3,1.2-2.3,3-4.5,2.5v-15C51.6,391.1,56.5,386.1,61.2,380.9z"/>
	<path class="st0" d="M46.4,430.7v-15c2.9-5.4,7.8-9,12.1-13.2c1-1,2.5-2,3.6,0.2c0.7,4.3,0.7,8.6,0.2,12.9
		C57.9,421.6,53.4,427.5,46.4,430.7z"/>
	<path class="st0" d="M61,401.7l-14.7,14c0-1.7,0-3.3,0-5l14.8-14C62.7,398.4,62.7,400.1,61,401.7z"/>
	<path class="st0" d="M46.4,430.7l14.7-14c1.6,1.7,1.6,3.3,0,5l-14.7,14V430.7z"/>
	<path class="st0" d="M81.2,380.9h15c0.4,1.5-0.6,2.6-1.5,3.5c-4.5,4.1-8,9.4-13.5,12.4c-4.3,0.6-8.6,0.5-12.8-0.1
		c-2.1-0.9-1.4-2.5-0.4-3.5C72.1,388.8,75.7,383.8,81.2,380.9z"/>
	<path class="st0" d="M107.2,380.6c2,0.5,4,1,5,3.1c0.6,0.6,0.7,1.5,0.3,2.3c-3.8,4.6-7.4,9.5-13,12.2c-0.9-0.2-1.7-0.9-2.7-0.9
		c-2.9-0.4-6,0.4-8.8-0.7c-1.7-1.1-0.9-2.4,0-3.3c4.2-4.3,7.8-9.3,13.3-12.3L107.2,380.6z"/>
	<path class="st0" d="M101.2,380.9l-14,14.7c-1.7,1.7-3.3,1.6-5,0c4.7-4.9,9.3-9.8,14-14.7H101.2z"/>
	<path class="st0" d="M81.2,380.9c-4.7,4.9-9.3,9.8-14,14.7c-1.7,1.7-3.3,1.6-5,0.1l14-14.7L81.2,380.9z"/>
	<path class="st0" d="M46.4,235.8v-5c2.9-5.5,8-9,12.3-13.3c0.9-0.9,2.2-1.7,3.3,0c0.5,1.6,0.6,3.1-0.9,4.3L46.4,235.8z"/>
	<path class="st0" d="M61.3,188c-0.1,3-0.2,5.9-0.3,8.9c-4,5.6-8.1,11.1-14.7,14c0-5,0-10,0-15c1.5-3.6,4.6-6,7.3-8.5
		c5.3-5.1,9.9-11,16-15.3c0.5-0.2,1-0.3,1.5-0.4c4.1-0.1,8.1-0.6,12.1,0.4c2,1.2,1,2.6,0,3.6c-4.1,4.2-7.7,8.9-12.7,12.1
		C67.6,188.7,64.4,187.8,61.3,188z"/>
	<path class="st0" d="M61,201.9c0,5,0,10,0,15l-14.6,13.9c0-5,0-10,0-15C50.4,210.3,54.5,204.8,61,201.9z"/>
	<path class="st0" d="M69.2,173c-7.3,7.9-14.9,15.5-22.8,22.8v-5c6.2-5.6,12.2-11.6,17.8-17.8l1-0.3C66.6,172.1,68,171.6,69.2,173z"
		/>
	<path class="st0" d="M61,201.9l-14.6,13.9v-5L61,196.9V201.9z"/>
	<path class="st0" d="M143.2,418.7c-0.3-0.2-0.3-0.6-0.1-0.8c0,0,0,0,0,0c-1-2.6-1.2-5.4-1.9-8.1c-0.5-2.7-0.6-5.6-0.2-8.3
		c0.2-1.1,0.6-2.1,1.3-2.9c4.6-4.9,9.4-9.6,14.2-14.2c1.7-1.6,3.9-3.5,4.6,1c-0.8,4.5-2.5,8.8-3,13.3c-0.7,1.9-0.4,4-1.4,5.8
		c-1,0.9-0.8,2.3-1.6,3.3L143.2,418.7z"/>
	<path class="st0" d="M155.1,407.7c0-1.1-0.1-2.2,0.9-3c0.4,0.1,0.5,0.3,0.5,0.6c0,0.3-0.1,0.4-0.2,0.4c-0.1,1.7-0.2,3.3-0.3,5
		C155,409.9,155.2,408.8,155.1,407.7z"/>
	<path class="st0" d="M142.1,415.7c0.1-2,0.1-4,0.2-6c1.6,2.6,0.6,5.4,0.8,8.1L142.1,415.7z"/>
	<path class="st0" d="M271.2,430.7l1.2-4.9c-0.5-1.4-0.1-3,1-3.9c4.1-3.6,7.8-7.7,11.7-11.4c1.4-1.3,2.5-3.2,4.8-3
		c1.3,0.8,1.2,2.3,2,3.4c0,0.3,0.1,0.5,0.2,0.8c-2.8,0.2-4.1,2.6-5.8,4.3C281.3,420.8,276.2,425.8,271.2,430.7z"/>
	<path class="st0" d="M355.2,446.7v-5c4-5.6,8.1-11.1,14.7-13.9v5L355.2,446.7z"/>
	<path class="st0" d="M98.9,437.6c0.1-5,0.3-9.9,0.4-14.9c4-5.6,8.1-11.1,14.6-14v15C108.5,427.9,104.8,433.9,98.9,437.6z"/>
	<path class="st0" d="M355.2,361.7c0-5,0-10,0-15c0.9-2.3,2.6-3.8,4.2-5.5c11.5-11.7,23.5-23.1,34.8-35c2.1-2,4.7-3.2,7.1-4.8
		c0.8-0.6,1.4-1.6,1.5-2.6c2.2-3.7,5.6-6.3,8.6-9.2c1-1,2.3-1.9,3.9-0.8c2.8,1,5.5,2.4,7.9,4.2c1.5,3-1.3,4.2-2.7,5.7
		c-8.7,9.1-18,17.6-26.5,26.9c-1.9,1.9-4.4,2.7-6.6,4.1c-3.9,2.4-8,4.3-12,6.5c-1.2,0.7-2.4,1.8-4,0.8c-2.5,3.4-0.5,7.3-1.3,10.9
		C365.8,353.3,361.8,358.9,355.2,361.7z"/>
	<path class="st0" d="M369.9,427.7c-4.9,4.7-9.8,9.3-14.7,13.9v-15c4-5.5,8-11.2,14.7-13.9V427.7z"/>
	<path class="st0" d="M355.2,401.7v-15c4-5.6,8-11.2,14.7-13.9v15C365.8,393.3,361.8,398.9,355.2,401.7z"/>
	<path class="st0" d="M355.2,381.7v-15c4-5.5,8-11.2,14.7-13.9v15C365.8,373.3,361.8,378.9,355.2,381.7z"/>
	<path class="st0" d="M355.2,421.7v-15c4-5.6,8-11.2,14.7-13.9v15C365.8,413.2,361.8,418.8,355.2,421.7z"/>
	<path class="st0" d="M369.9,392.8l-14.7,13.9v-5l14.7-13.9V392.8z"/>
	<path class="st0" d="M355.2,381.7c4.9-4.7,9.8-9.3,14.7-13.9v5l-14.7,13.9V381.7z"/>
	<path class="st0" d="M355.2,421.7l14.7-13.9v5l-14.7,13.9V421.7z"/>
	<path class="st0" d="M369.9,352.8l-14.7,13.9v-5l14.7-13.9V352.8z"/>
	<path class="st0" d="M399.9,321.7l-6.9,3.1c8.9-9,17.8-18.1,26.6-27.2c1.3-1.4,3.2-2.4,3.4-4.7c0.3-0.1,0.6-0.1,0.9-0.1
		c0.8,1.3,2.9,1.1,3.2,2.9c-7.1,5.9-13.2,12.9-19.8,19.3c-0.7,0.6-1,1.4,0.1,1.9L399.9,321.7z"/>
	<path class="st0" d="M389.2,274.7c2.8,1,5.4,2.4,7.8,4.2c0.4,0.5,0.8,1.2,0.4,1.8c-3.1,4.2-6,8.6-11.5,10.1
		c-3.3-0.7-6.6-1.6-8.5-4.8C378.3,280.7,384.5,274.8,389.2,274.7z"/>
	<path class="st0" d="M385.7,290c4.9-2.3,8.9-6.2,11.3-11.1c0.3,0,0.6-0.1,1-0.1c1.1,1.1,2.4,1.8,4,2.1c0.1,0.3,0.1,0.5,0.2,0.8
		c-3.5,3.9-7.5,7.2-10.8,11.3c-0.6,0.4-1.3,0.5-2,0.4c-1.3-0.5-2.4-1.2-3.4-2.2C385.7,290.9,385.6,290.4,385.7,290z"/>
	<path class="st0" d="M389.2,274.7c-4.9,2.3-8.8,6.2-11.2,11.1c-0.3,0.3-0.8,0.5-1.2,0.4c-1.5-0.4-3-1.2-4.1-2.3
		c-0.1-0.4-0.1-0.9,0.1-1.3c3.9-3.3,7.2-7.3,11.1-10.7l1-0.1c1.1,1.1,2.4,1.8,3.9,2.1C389,274.2,389.1,274.5,389.2,274.7z"/>
	<path class="st0" d="M384,271.9c-2.4,4.8-6.3,8.7-11.2,11c-3.9,0.9-6.2-1.4-8.3-4.1c1-5.3,7.1-11,11.8-11.1
		C379.1,268.7,381.7,270.1,384,271.9z"/>
	<path class="st0" d="M376.3,267.7c-4.9,2.3-8.8,6.2-11.3,11c-0.3,0.3-0.8,0.5-1.2,0.4c-1.6-0.3-3-1.1-4-2.3
		c-0.1-0.4-0.1-0.9,0.1-1.3c3.9-3.3,7.3-7.3,11.1-10.7h1.1c1.1,1.1,2.4,1.8,3.9,2.1C376.1,267.2,376.2,267.4,376.3,267.7z"/>
	<path class="st0" d="M166,77.2c2.2-3.6,5.7-6,8.5-9.1c0.9-1,1.8-0.5,2.7-0.2c1.9,1.8,3.1,4.4,5.8,5.1c0.1,0.3,0.2,0.5,0.2,0.8
		c-3.3,3.8-6.2,8.1-11.1,10.2c-2.8-1.3-4-4.1-6.2-6C166,77.7,166,77.5,166,77.2z"/>
	<path class="st0" d="M371,264.8c-2.4,4.8-6.3,8.7-11.1,11c-3.9,1.2-5.9-1.7-8.3-3.9c-0.6-1.9,0.4-3.2,1.5-4.4c2.7-2.6,5-5.7,8-8.1
		c0.8,0,0.8,1.6,1.9,1C365.9,261.5,368.6,263,371,264.8z"/>
	<path class="st0" d="M361.1,259.4c-0.4,3.5-3.6,4.9-5.5,7.2c-1.3,1.6-3.5,2.6-3.6,5c-0.3,0.4-0.7,0.5-1.2,0.5
		c-1.6-0.3-3-1.1-4.1-2.3c-0.1-0.4-0.1-0.9,0.1-1.3c4-3.3,7.3-7.3,11.1-10.7l1.9,0.4L361.1,259.4z"/>
	<path class="st0" d="M313,250.7c2.8-4.8,6.3-8.8,11.4-11c3.4,1.3,6.6,3.1,9.6,5.2c0.6,1.5,2,0.8,3,0.9c0.2,0.3,0.3,0.5,0.4,0.9
		c-3.6,3.8-7.6,7.2-11,11.2c-0.4,0.3-0.8,0.4-1.3,0.4c-1.9-0.3-3.3-1.7-4.9-2.5C317.8,254,314.4,253.9,313,250.7z"/>
	<path class="st0" d="M161.1,201h15c-2.9,6.6-8.4,10.6-13.9,14.7h-15C150,209.1,155.6,205,161.1,201z"/>
	<path class="st0" d="M181.1,201h15c-2.9,6.6-8.4,10.6-13.9,14.7h-15C170,209.1,175.5,205,181.1,201z"/>
	<path class="st0" d="M201.1,201h15c-2.9,6.6-8.4,10.6-13.9,14.7h-15C190,209.1,195.5,205,201.1,201z"/>
	<path class="st0" d="M221.1,201h15c-2.9,6.6-8.4,10.6-14,14.7h-15C210,209.1,215.5,205,221.1,201z"/>
	<path class="st0" d="M134,216c-1.6-0.3-3-0.8-3.8-2.4c-1.1-1.1-0.4-2.3,0.3-3.1c3.3-3.5,6.1-7.4,10.6-9.6h15
		c-2.9,6.6-8.4,10.6-14,14.7L134,216z"/>
	<path class="st0" d="M142.2,215.7l14-14.7h5l-13.9,14.7L142.2,215.7z"/>
	<path class="st0" d="M222.1,215.7l14-14.7h5l-13.9,14.7L222.1,215.7z"/>
	<path class="st0" d="M181.1,201l-14,14.7h-5l13.9-14.7L181.1,201z"/>
	<path class="st0" d="M201.1,201l-13.9,14.7h-5c4.7-4.9,9.3-9.8,13.9-14.7L201.1,201z"/>
	<path class="st0" d="M221.1,201l-13.9,14.7h-5l14-14.7L221.1,201z"/>
	<path class="st0" d="M211.1,333.7c7.9,1.4,4-4.9,5.2-7.9c2.3-4.7,6.5-7.7,10.1-11.2c1-1,2.5-1.9,3.6,0.2c0.7,4.3,0.7,8.7,0.2,13
		c-7.1,8.3-13.5,17.5-24.1,22c-4.8,1.3-9.5,3-14.4,3.8c-2.4-0.6-1.9-2.2-0.8-3.4c5.9-5.9,10.8-12.6,18.1-17
		C209.7,333,210.5,333.2,211.1,333.7z"/>
	<path class="st0" d="M216.3,300.8c0-5,0-10,0-15c2.3-4.7,6.5-7.7,10.1-11.2c1-1,2.5-1.9,3.6,0.2c0.7,4.3,0.7,8.6,0.2,12.9
		C226.4,293,222.6,298.2,216.3,300.8z"/>
	<path class="st0" d="M216.3,320.8c0-5,0-10,0-15c2.3-4.7,6.5-7.7,10.1-11.2c1-1,2.5-1.9,3.6,0.2c0.7,4.3,0.7,8.6,0.2,12.9
		C226.4,313,222.6,318.2,216.3,320.8z"/>
	<path class="st0" d="M228.9,293.8l-12.7,12c0-1.7,0-3.3,0-5l12.7-12C230.6,290.5,230.6,292.1,228.9,293.8z"/>
	<path class="st0" d="M228.9,273.8l-12.7,12c0-1.7,0-3.3,0-5l12.7-12C230.6,270.5,230.6,272.2,228.9,273.8z"/>
	<path class="st0" d="M216.3,320.8l12.7-12c1.6,1.7,1.6,3.3,0,5l-12.7,12C216.3,324.1,216.3,322.4,216.3,320.8z"/>
	<path class="st0" d="M206.4,310.8c0.4,1.3,1.2,2.5,0.6,4c-1.4,2.6-2.4,5.6-5.9,6.2c-5.7,2.2-11.6,1.1-17.5,1
		c-2.4-0.8-2.1-2.4-0.8-3.7c4.2-4.3,7.8-9.3,13.3-12.2l5.1-0.3C203.9,306.3,206.2,307.5,206.4,310.8z"/>
	<path class="st0" d="M128.1,310.6c0.5-2.9,2.3-4.3,5-4.9l18,0.3c0.4,1.7-0.8,2.8-1.8,3.7c-4.2,3.8-7.4,8.7-12.5,11.5
		c-1,0.1-2,0.2-3.1,0.5c-3.7-0.5-6.1-2.4-6.8-6.2C126.6,313.7,127,312,128.1,310.6z"/>
	<path class="st0" d="M176.1,305.9h15c0.4,1.5-0.5,2.6-1.5,3.5c-4.6,4-7.7,9.6-13.6,12.1c-4.2-0.5-8.5-0.1-12.7-0.2
		c-3-0.6-1.1-2.4-0.4-3.1C167.1,313.9,170.6,308.9,176.1,305.9z"/>
	<path class="st0" d="M156.1,305.9h15c0.4,1.5-0.5,2.6-1.5,3.4c-4.6,3.9-7.6,9.7-13.6,11.9h-12.7c-2.9-0.7-1.1-2.4-0.4-3.1
		C147.1,313.8,150.6,308.9,156.1,305.9z"/>
	<path class="st0" d="M156.1,305.9l-14,14.7c-1.5,1-3.5,1-5,0c4.7-4.9,9.3-9.8,14-14.7L156.1,305.9z"/>
	<path class="st0" d="M157.1,320.6l14-14.7h5l-14,14.7C160.6,321.6,158.6,321.6,157.1,320.6z"/>
	<path class="st0" d="M177.1,320.6l14-14.7h5l-14,14.7C180.5,322.3,178.8,322.3,177.1,320.6z"/>
	<path class="st0" d="M128,209.9c0-4.9,1.9-8.3,7.1-9.2l6,0.3c-3.1,4.7-8.7,7.2-10.9,12.6c-0.2,0-0.4,0-0.6,0
		C127.7,212.9,127.2,211.7,128,209.9z"/>
	<path class="st0" d="M231.1,266.7c0-0.3,0-0.6-0.1-0.9c3.8-2.9,7.2-6.3,10.1-10.1c1.5,0.2,2.9,0.9,4,2c-2.4,4.6-6.8,7.4-10,11.3
		C233.2,269.2,231.7,268.7,231.1,266.7z"/>
	<path class="st0" d="M358,257.8c-2.4,4.8-6.2,8.6-11,11c-3.9,1.2-6-2.5-9.1-3.3c-1.1-0.5-2-1.5-2.5-2.6c1-5.6,5.6-8.3,9.7-11.3
		l1.9,0.3l3,1.6C352.9,254.5,355.6,256,358,257.8z"/>
	<path class="st0" d="M345.1,251.7c-2.3,4.4-7.7,6.2-9.1,11.3c-0.6,0.4-1.3,0.6-2,0.3c-2.6-2-6.3-2.3-7.9-5.6
		c2.7-4.8,6.2-8.7,11.4-11C340.2,248,343.5,248.5,345.1,251.7z"/>
	<path class="st0" d="M391,292.9c2.4-4.9,6.3-8.8,11.2-11.1c2.8,1,5.4,2.4,7.8,4.1c0.4,0.5,0.8,1.2,0.4,1.8
		c-3.1,4.2-6,8.6-11.5,10.1C395.8,296.9,392.2,296.8,391,292.9z"/>
	<path class="st0" d="M398.6,297c5.1-2.3,8.7-6.3,11.4-11.1c0.3-0.1,0.6-0.1,1-0.1c1.1,1.1,2.5,1.9,4,2.1c0.1,0.3,0.1,0.5,0.2,0.8
		c-5.4,2.2-8.1,7.2-12.1,10.8c-0.2,0.4-0.6,0.7-1,0.6c-1.3-0.3-2.4-0.9-3.2-1.9C398.6,297.9,398.5,297.4,398.6,297z"/>
	<path class="st0" d="M114.3,282.8l-0.3,6c-2.9,5.5-8,9-12.2,13.3c-0.9,0.9-2.2,1.7-3.3,0c-0.5-1.6-0.6-3.1,0.9-4.3
		c4-3.9,7.9-7.8,12-11.6c1.3-1.2,2.1-3,2-4.8C113.6,281.8,114,282.3,114.3,282.8z"/>
	<path class="st0" d="M114,203.9v5l-14.7,14c-1.5-1.2-1.3-2.7-1-4.3C102.9,212.9,107.1,207,114,203.9z"/>
	<path class="st0" d="M99.3,322.8v-5c4-5.6,8.1-11.1,14.7-13.9l0.3,4c0.3,0.5,0.2,0.8-0.3,1L99.3,322.8z"/>
	<path class="st0" d="M113,383.8c0.4,1.7,1.6,3.1,1,5c-4,5.6-8.1,11.1-14.7,13.9c0-1.7,0-3.3,0-5c4.5-4.5,10-8.1,12.9-14L113,383.8z
		"/>
	<path class="st0" d="M76.2,186.7h-5l13-13.7l1-0.3l4,0.3C86.6,179.3,81.4,183,76.2,186.7z"/>
	<path class="st0" d="M179.1,399.4l4,1.4c2.8,1.5,4.2,4.1,5.6,6.8c0.1,0.5,0.1,0.9,0.1,1.4c-2.9,4.5-6.1,8.8-11.4,10.7l-6.1-8
		c-1.8-2.5-1.3-5.3-1.2-8C172,400.1,175.4,399.5,179.1,399.4z"/>
	<path class="st0" d="M227.7,348.9h-2.7l-3.8-0.3l-6.2-0.9c-0.6-1.8,0.6-2.9,1.7-3.7c4.1-3.3,6.4-8.8,12.1-10.2l1.2,0.9
		c3.2-0.9,6.1,0,8.8,1.5c0.4,0.3,0.6,0.8,0.7,1.3C237,342.8,233.6,347.1,227.7,348.9z"/>
	<path class="st0" d="M173.9,364.7c-5.5,6-10.2,12.8-13.7,20.2c-1.1-3.2-2.2-0.4-2.8,0.2c-4.8,4.5-9.5,9.1-14.3,13.7l-0.1-4
		c-0.6-2.1-0.4-3.9,1.5-5.2c0.8-0.9,0.1,2.2,1.6,0.4c7.5-8.5,15.8-16.2,23.8-24.2c0.7-0.7,1.6-1.3,2.6-1.5
		C173,364.3,173.5,364.4,173.9,364.7z"/>
	<path class="st0" d="M99.3,402.7l14.7-13.9l0.4,14l-0.3,1c-4,5.6-8.1,11.1-14.7,13.9L99.3,402.7z"/>
	<path class="st0" d="M99.3,417.7l14.7-13.9c0,1.7,0,3.3,0,5l-14.7,14V417.7z"/>
	<path class="st0" d="M177.3,419.7c3.9-3.3,7.6-7,10.8-11c2.2-0.2,2.6,1.6,3.4,3c0.1,0.5,0,0.9-0.2,1.3c-4,3.3-7.3,7.3-11.1,10.7
		c-0.2-0.1-0.5-0.1-0.7-0.1c-0.3-1.2-1-2.2-2-2.9C177.3,420.4,177.3,420,177.3,419.7z"/>
	<path class="st0" d="M290.2,403.7l-0.3,4c-5.8,4.5-10,10.7-16,14.9c0.4-2.7,0.9-5.3,1.3-8c0.8-4.3,0.1-8.7,0.4-13
		c2.6-5.2,6.2-9.4,11.9-11.4c1.4,0.6,1.7,2,2,3.3C289.9,397,292.6,400.2,290.2,403.7z"/>
	<path class="st0" d="M180.1,423.7c2.4-4.8,6.2-8.6,11-11c3.8,0.8,4.5,4.2,5.8,7c-1.6,5.5-7.6,11-11.9,11
		C183,428.6,181.4,426.3,180.1,423.7z"/>
	<path class="st0" d="M185,430.8c4.8-2.3,8.7-6.2,11.1-11c0.3-0.3,0.8-0.4,1.3-0.2c1.2,1.2,2.3,2.5,2,4.3
		c-3.3,4.2-6.8,8.3-11.5,11.2c-1-1.1-1.9-2.1-2.9-3.2L185,430.8z"/>
	<path class="st0" d="M187.9,435.1c3.2-4.2,7-8,11.2-11.3c3.4-5,8.8-8.1,12.6-12.8c11.3-9.7,21.9-20.2,33-30.1
		c4.8-4.3,8.1-4.7,12.6-1.3c0.3,2.4-1.5,3.6-2.9,4.9c-18.5,18.6-37,37.1-55.6,55.6c-1.3,1.3-2.4,3.3-4.9,2.7h-0.9l-5.3-7
		C187.9,435.5,187.9,435.3,187.9,435.1z"/>
	<path class="st0" d="M354.2,336.6l-4.2-3c-1-1.1-0.5-2.2,0.3-3.1c2.9-3.1,5.4-6.6,9.3-8.5c0.5-0.1,0.9-0.2,1.4-0.2
		c4.1,0.4,7.1-2.2,10.4-3.9c3-1.6,5.7-4,9.4-3.9c1.9,0.8,1.4,2.2,0.5,3.2c-8,8.4-15.9,16.9-24.8,24.4c-0.4,0.3-1,0.3-1.4,0.1
		C354.6,340.1,355.8,338.1,354.2,336.6z"/>
	<path class="st0" d="M355.2,341.7c8.4-8.3,16.8-16.6,25.2-24.8c0.6-0.6,1.8-1.3,0.3-2.3c0.9-3.7,4.7-3.8,7.1-5.6
		c2.4-0.9,4.1-3.7,7.2-2.3c-5.8,7.3-12.8,13.3-19.3,19.9c-6.7,6.8-13.6,13.5-20.5,20.2C355.2,345.1,355.2,343.4,355.2,341.7z"/>
	<path class="st0" d="M194,442.7c0.8-0.5,1.6-1.1,2.3-1.8c20.3-20.3,40.5-40.6,60.7-61c0.3-0.4,0.8-0.6,1.2-0.4
		c0.9,0.4,1.5,1.3,1.4,2.3l0.3,1.9c-16.4,16.9-33.3,33.5-50,50.1c-2.9,2.9-6.3,5.4-8.5,9c-1.1,1.4-3,0.9-4.4,1.6
		C196.3,443.6,194.6,444.2,194,442.7z"/>
	<path class="st0" d="M201.5,442.9c-1.9-1.3,0-2,0.6-2.6c18.3-18.3,36.6-36.7,54.9-55c0.7-0.9,1.8-1.5,3-1.6
		c1.3,2.8,0.5,5.2-1.6,7.2c-18.5,17.2-37,34.3-55.5,51.4C202.4,442.6,202,442.8,201.5,442.9z"/>
	<path class="st0" d="M272.6,388.9c-0.9-0.4-0.3-2-1.5-2.2c-0.3-3.8-2.4-6.9-4.4-10c-0.2-0.4-0.3-0.9-0.3-1.4
		c2.8-4.1,5.6-8.4,10.8-9.9c3,2,4.5,5,5.8,8.2c0.4,1.7,1,3.3,0.8,5.1C281.1,383.2,278.3,387.7,272.6,388.9z"/>
	<path class="st0" d="M272.6,388.9c4-2.9,7.5-6.3,10.5-10.3c1.2-0.3,2,0.3,2.7,1.1c1.7,3,2.9,6.1,2.2,9.6c-0.1,0.5-0.4,1-0.8,1.3
		l-11.1,10c-0.3,0.5-0.6,0.5-0.8,0l-2.4-10L272.6,388.9z"/>
	<path class="st0" d="M275.2,400.7h0.8c-0.4,4.7,1,9.4-0.8,14l-0.1-7c0.4-1.7,0.3-3.4-0.1-5C275,402.1,275.1,401.4,275.2,400.7z"/>
	<path class="st0" d="M128.1,315.9c-0.2-0.1-0.5-0.2-0.7-0.2c0-1.6-0.1-3.2-0.1-4.8c0.3-0.1,0.5-0.2,0.7-0.3
		C128.1,312.4,128.1,314.1,128.1,315.9z"/>
	<path class="st0" d="M114,303.8l-14.7,13.9c0-5,0-10,0-15l14.7-13.9V303.8z"/>
	<path class="st0" d="M173.9,364.7c-0.3,0-0.5,0-0.8,0c-0.4-2.6,1.8-3.7,3.2-5.2c7.8-8,15.9-15.8,23.6-23.8l3.2-1.1l6-0.6
		c-6.6,5.1-11.9,11.5-17.9,17.3c-0.6,0.5-0.6,1.1,0.1,1.6C185.1,356.2,179.3,360.2,173.9,364.7z"/>
	<path class="st0" d="M208.1,348.9l-2-0.2c4.6-1.1,7.3-4.7,10.4-7.8l12.4-12v5c-5,4.3-9.6,8.9-13.8,13.9L208.1,348.9z"/>
	<path class="st0" d="M199.9,335.7c1.3,2.3-1.1,2.8-2,3.7c-8.2,8.5-16.5,16.9-24.8,25.3c-8.4,8.2-16.7,16.5-25.1,24.6
		c-0.7,0.7-2,4-3.1,0.1c0.4-5.6,3.6-10.2,5.3-15.4c3.8-6.3,8.2-12.4,13-18c5-7.7,12.4-12.1,20.9-15.1
		C189.3,339,194.3,336.2,199.9,335.7z"/>
	<path class="st0" d="M99,188c-0.5-1.3-1.8-1.1-2.8-1.3c2.7-6.1,6.9-10.6,13.3-13l1.7,0.2c1.7,1.6,2.8,3.7,3.2,5.9l-0.3,4
		c-4,5.6-8.1,11.1-14.7,13.9C99.2,194.6,99.1,191.3,99,188z"/>
	<path class="st0" d="M76.2,186.7L89.2,173l1-0.3l14,0.3c-2.5,6.3-7.8,9.9-12.9,13.7L76.2,186.7z"/>
	<path class="st0" d="M91.2,186.8l12.9-13.7l1-0.3c1.4,0.5,3.1-0.3,4.3,1c-5,3.8-9.1,8.3-13.3,13L91.2,186.8z"/>
	<path class="st0" d="M99.3,217.8c0-5,0-10,0-15c4-5.6,8.1-11.1,14.7-14l0.4,14l-0.3,1L99.3,217.8z"/>
	<path class="st0" d="M114,188.9l-14.7,14c0-1.7,0-3.3,0-5l14.7-14c0.1,1.3,0.2,2.7,0.3,4L114,188.9z"/>
	<path class="st0" d="M253.8,262c0.1,0.3,0.2,0.6,0.3,0.9c-1.8,5.6-5.8,9-11.1,11c-3.3-0.7-6.6-1.4-7.9-5.1c2.1-4.7,6.3-7.6,10-10.9
		c0.3,0,0.7,0,1-0.1L253.8,262z"/>
	<path class="st0" d="M257,281h-0.5H256l-8-5.1c-1-1.4-0.4-2.6,0.5-3.5c2.7-2.8,5-6.1,8.7-7.9c0.3,0,0.6,0,0.9,0c3,1.8,6,3.6,9,5.5
		C265.5,275.3,261.1,278,257,281z"/>
	<path class="st0" d="M257.2,264.5c-2.2,4.5-7.8,6.3-9.2,11.4l-1.9-0.4c-0.8-0.9-1.9-1.5-3.1-1.7c-0.1-0.3-0.3-0.6-0.3-0.9
		c5.1-1.9,7.9-6.4,11.3-10.1C255.3,262.9,256.4,263.6,257.2,264.5z"/>
	<path class="st0" d="M304.9,290.9c0.1,0.3,0.2,0.5,0.2,0.8c-1.6,5.7-5.8,8.9-10.9,11.1c-3.5-0.4-6.1-3-9.3-4.2
		c-1.1-0.5-2-1.5-2.5-2.6c1-5.6,5.5-8.3,9.7-11.2c0.3,0.1,0.6,0.2,0.9,0.2c1.2,0.8,2.3,2,4,1.7L304.9,290.9z"/>
	<path class="st0" d="M292.1,284.7c-2.3,4.3-7.7,6.2-9.1,11.2c-1,0.4-1.4-0.4-2-0.8l-7.9-4.3c-0.1-0.2-0.1-0.5-0.2-0.8
		c1.1-5,6.8-10.2,11.2-10.2C287,281,290,282.1,292.1,284.7z"/>
	<path class="st0" d="M284.1,279.8c-5,2-7.8,6.4-11.2,10.2c-1.5-0.3-2.9-1.1-3.9-2.2c2.4-4.5,6.5-7.4,10-10.9l1-0.1
		c1.1,1.1,2.4,1.9,3.9,2.2C284,279.3,284.1,279.5,284.1,279.8z"/>
	<path class="st0" d="M279,276.9c-2,4.8-6.3,7.6-10,10.9h-1c-2.3-1.8-4.9-3.2-7.6-4.3c-0.1-0.3-0.2-0.6-0.4-0.9
		c1.5-5.2,7-10.1,11.5-10.1C274.2,273.7,276.7,275.1,279,276.9z"/>
	<path class="st0" d="M271.5,272.6c-5.3,1.7-7.9,6.4-11.5,10.1c-1.2-0.2-2.3-0.8-3.1-1.8l10-11c0.3,0,0.7,0,1,0
		c0.8,1,1.9,1.6,3.1,1.8L271.5,272.6z"/>
	<path class="st0" d="M234.1,350.6h-1.8l-4.5-1.7c4.3-3.2,8.1-7,11.4-11.3c1.6-0.9,3.5-0.6,4.9,0.6c0.3,0.4,0.5,0.9,0.4,1.3
		C241.1,343.4,236.9,346.4,234.1,350.6z"/>
	<path class="st0" d="M349.1,333.7c-1.1-1.1-2.4-1.9-3.9-2.3c-0.3-0.3-0.3-0.9,0-1.2c3.9-3,6.6-7.4,11-9.8c1.5,0.4,2.9,1.1,3.9,2.3
		c-3.8,3.3-7.9,6.1-10.1,10.9C349.7,333.7,349.4,333.7,349.1,333.7z"/>
	<path class="st0" d="M276.9,364.8c0.1,0.3,0.1,0.6,0,1c-3.6,3.2-7.3,6.3-10,10.4l-2.9-3.3l-0.1-1c3.1-3.5,6.8-6.5,9.7-10.1
		c0.4-0.2,0.8-0.4,1.3-0.3C276.1,362.2,276.9,363.4,276.9,364.8z"/>
	<path class="st0" d="M345,330.8l-8.1-4c0-0.2-0.1-0.4-0.1-0.6c1-4.9,6.7-10.3,11.1-10.4l8.1,4c0.1,0.2,0.1,0.4,0.1,0.7
		C352.9,324.4,350,328.7,345,330.8z"/>
	<path class="st0" d="M347.9,315.8c-4.9,2.1-7.9,6.4-11.1,10.4c-1.5-0.4-2.9-1.2-4-2.3c2.5-4.5,6.5-7.5,10.1-10.9
		c0.3-0.1,0.6-0.1,0.9-0.1c1.1,1.1,2.5,1.9,4,2.3C347.8,315.4,347.9,315.6,347.9,315.8z"/>
	<path class="st0" d="M343,313c-2.2,4.7-6.4,7.6-10.1,10.9c-0.3,0-0.6,0-0.9,0.1c-2.4-1.8-5-3.2-7.7-4.3c-0.5-0.2-0.8-0.6-0.8-1.2
		c3-4.4,5.3-9.6,11.8-9.8C338,309.7,340.6,311.2,343,313z"/>
	<path class="st0" d="M335.3,308.7c-5.1,1.9-7.9,6.4-11.3,10.2c-1.9,0.9-2.8-0.1-3.5-1.7c1.4-5.3,6.2-7.8,9.5-11.5l1.9,0.4
		c0.8,0.9,1.9,1.6,3.1,1.8C335.1,308.1,335.2,308.4,335.3,308.7z"/>
	<path class="st0" d="M330,305.7c-1.4,5.1-7,6.9-9.2,11.5c-0.6,0.3-1.4,0.4-2.1,0.2c-3-1.4-6.1-2.6-8.1-5.5c1.9-5.2,6-8.2,10.3-11.2
		c0.3,0,0.7,0,1,0L330,305.7z"/>
	<path class="st0" d="M309,293.8h1c2.1,1.7,4.5,3,7.1,4l0.9,1.1c-2.3,5.5-5.6,9.9-12,10.8c-2.8-1-5.8-1.8-7.5-4.6
		C299.8,299.3,303.5,295.8,309,293.8z"/>
	<path class="st0" d="M306.1,308.8c5.8-1,8.1-6.4,11.9-9.9c1.2,0.2,2.3,0.8,3.1,1.8l-10,11c-0.2,0.3-0.7,0.5-1.1,0.5
		c-1.3-0.3-2.4-0.9-3.5-1.7C306,310,305.6,309.5,306.1,308.8z"/>
	<path class="st0" d="M309,293.8c-3.6,3.4-8,6.1-9.9,11c-0.3,0.3-0.7,0.5-1.1,0.4c-1.5-0.4-2.8-1.1-4-2.1c-0.2-0.4-0.2-0.8,0-1.2
		c5-2,7.8-6.4,11.2-10.2C306.6,291.9,308,292.7,309,293.8z"/>
	<path class="st0" d="M244.5,339.6l8.2,3.3c1.6,0.9,3.6,1.4,3.7,3.7c-2.3,4.1-6,6.9-9.3,10l-0.5,0.1h-0.5c-1.1-1.1-2.5-1.9-4-2.1
		c-2.1-2.5-5.5-2.4-8-4C235.4,344.9,239.8,342.1,244.5,339.6z"/>
	<path class="st0" d="M247.1,356.7c1.8-4.5,5.7-7,9.2-10c0.4-0.4,0.8-0.6,1.3-0.6c3.4,0.7,6.1,2.3,7.3,5.9c-1.8,5-4.7,8.8-10.2,10
		c-0.2,0-0.4,0.1-0.6,0.1L247.1,356.7z"/>
	<path class="st0" d="M274,361.9c-2.1,4.4-5.7,7.9-10.1,9.9l-5.8-6.1c0-0.3,0-0.5-0.1-0.8c0.9-5.2,5.5-7.3,8.8-10.5
		c0.5-0.1,1-0.1,1.4,0C270.6,356.6,274.3,357.8,274,361.9z"/>
	<path class="st0" d="M267.2,354.4c-2.3,4.2-6.8,6.4-9.2,10.5c-1.4-0.7-2.5-1.7-3.3-3c3.8-2.9,7.7-5.6,9.5-10.4
		c0.4-0.2,0.9-0.2,1.4,0C266.6,352.1,267.2,353.2,267.2,354.4z"/>
</g>
<g id="Layer_2">
</g>
</svg>
